<svg width="318" height="673" viewBox="0 0 318 673" fill="none" xmlns="http://www.w3.org/2000/svg">
<circle cx="199" cy="17" r="15.5" stroke="#FFE1EA" stroke-width="3"/>
<circle cx="307" cy="108" r="9.5" stroke="#B6FFDB" stroke-width="3"/>
<circle cx="23" cy="171" r="21.5" stroke="#D0F3FF" stroke-width="3"/>
<path d="M10.9159 41.2694L9.18795 43.2096L11.7322 43.7359L33.5201 48.2432L36.0643 48.7696L35.248 46.303L28.2575 25.1805L27.4412 22.714L25.7133 24.6542L10.9159 41.2694Z" stroke="#FFEBB6" stroke-width="3"/>
<g opacity="0.2">
<path d="M131 667.098C131 666.401 131.128 665.715 131.384 665.039C131.651 664.364 132.036 663.758 132.537 663.222C133.039 662.686 133.648 662.252 134.363 661.919C135.078 661.587 135.895 661.421 136.813 661.421C137.913 661.421 138.863 661.651 139.664 662.112C140.475 662.562 141.078 663.163 141.473 663.913L139.087 665.618C138.98 665.339 138.836 665.109 138.655 664.927C138.484 664.744 138.292 664.6 138.078 664.492C137.865 664.385 137.641 664.31 137.406 664.267C137.181 664.224 136.963 664.203 136.749 664.203C136.301 664.203 135.911 664.294 135.58 664.476C135.26 664.648 134.993 664.878 134.779 665.168C134.577 665.447 134.422 665.768 134.315 666.133C134.219 666.487 134.171 666.84 134.171 667.194C134.171 667.591 134.23 667.972 134.347 668.336C134.464 668.701 134.635 669.022 134.859 669.301C135.084 669.58 135.356 669.805 135.676 669.976C136.007 670.137 136.375 670.218 136.781 670.218C136.995 670.218 137.214 670.196 137.438 670.153C137.662 670.1 137.875 670.019 138.078 669.912C138.292 669.794 138.479 669.649 138.639 669.478C138.81 669.296 138.943 669.076 139.039 668.819L141.585 670.346C141.415 670.765 141.153 671.14 140.801 671.472C140.459 671.805 140.064 672.083 139.616 672.308C139.178 672.534 138.703 672.705 138.19 672.823C137.689 672.941 137.198 673 136.717 673C135.874 673 135.1 672.834 134.395 672.501C133.701 672.158 133.098 671.708 132.585 671.151C132.084 670.593 131.694 669.96 131.416 669.253C131.139 668.545 131 667.827 131 667.098Z" fill="#0F2F54"/>
<path d="M144.97 672.904V661.485H150.19C150.746 661.485 151.258 661.603 151.728 661.839C152.198 662.064 152.598 662.364 152.929 662.739C153.27 663.104 153.537 663.527 153.73 664.01C153.922 664.482 154.018 664.959 154.018 665.441C154.018 666.106 153.874 666.728 153.585 667.307C153.297 667.875 152.897 668.341 152.384 668.706L154.786 672.904H151.263L149.262 669.398H148.093V672.904H144.97ZM148.093 666.664H150.062C150.254 666.664 150.431 666.556 150.591 666.342C150.762 666.127 150.847 665.827 150.847 665.441C150.847 665.045 150.751 664.744 150.559 664.541C150.367 664.326 150.174 664.219 149.982 664.219H148.093V666.664Z" fill="#0F2F54"/>
<path d="M165.441 671.563L164.833 670.92C164.374 671.199 163.893 671.402 163.391 671.531C162.9 671.66 162.404 671.724 161.902 671.724C161.24 671.724 160.658 671.617 160.157 671.402C159.665 671.188 159.249 670.909 158.907 670.566C158.577 670.223 158.326 669.837 158.155 669.408C157.984 668.969 157.899 668.529 157.899 668.089C157.899 667.435 158.053 666.873 158.363 666.401C158.683 665.918 159.062 665.5 159.5 665.146C159.158 664.728 158.918 664.358 158.779 664.037C158.641 663.704 158.571 663.34 158.571 662.943C158.571 662.482 158.657 662.069 158.827 661.705C158.998 661.329 159.228 661.019 159.516 660.772C159.815 660.525 160.167 660.338 160.573 660.209C160.979 660.07 161.422 660 161.902 660C162.319 660 162.724 660.054 163.119 660.161C163.525 660.257 163.883 660.418 164.192 660.643C164.512 660.858 164.769 661.142 164.961 661.496C165.153 661.839 165.249 662.257 165.249 662.75C165.249 663.329 165.116 663.849 164.849 664.31C164.582 664.771 164.224 665.195 163.776 665.581L165.089 666.98C165.206 666.68 165.297 666.358 165.361 666.015C165.425 665.661 165.457 665.28 165.457 664.873H167.907C167.897 665.699 167.801 666.444 167.619 667.108C167.438 667.762 167.192 668.352 166.883 668.878L169.429 671.563H165.441ZM162.222 669.344C162.543 669.344 162.858 669.274 163.167 669.135L161.358 667.189C160.995 667.489 160.813 667.789 160.813 668.089C160.813 668.207 160.835 668.341 160.877 668.492C160.931 668.631 161.011 668.765 161.117 668.894C161.235 669.022 161.384 669.129 161.566 669.215C161.747 669.301 161.966 669.344 162.222 669.344ZM161.326 662.814C161.326 662.954 161.363 663.077 161.438 663.184C161.523 663.281 161.662 663.42 161.854 663.602C162.068 663.452 162.222 663.324 162.319 663.216C162.415 663.099 162.463 662.954 162.463 662.782C162.463 662.6 162.409 662.461 162.302 662.364C162.206 662.268 162.073 662.219 161.902 662.219C161.721 662.219 161.577 662.278 161.47 662.396C161.374 662.504 161.326 662.643 161.326 662.814Z" fill="#0F2F54"/>
<path d="M182 669.976C182 670.491 181.893 670.936 181.68 671.311C181.466 671.676 181.173 671.976 180.799 672.212C180.425 672.448 179.988 672.625 179.486 672.743C178.995 672.85 178.472 672.904 177.916 672.904H172.327V661.485H178.925C179.32 661.485 179.678 661.571 179.998 661.742C180.319 661.914 180.591 662.139 180.815 662.418C181.039 662.686 181.21 662.997 181.327 663.351C181.456 663.694 181.52 664.047 181.52 664.412C181.52 664.948 181.381 665.463 181.103 665.956C180.836 666.438 180.431 666.803 179.886 667.049C180.537 667.242 181.05 667.58 181.423 668.063C181.808 668.534 182 669.172 182 669.976ZM178.829 669.333C178.829 669.054 178.754 668.824 178.605 668.642C178.456 668.449 178.263 668.352 178.028 668.352H175.45V670.266H177.916C178.173 670.266 178.386 670.186 178.557 670.025C178.738 669.864 178.829 669.633 178.829 669.333ZM175.45 664.155V665.908H177.58C177.794 665.908 177.986 665.849 178.157 665.731C178.338 665.613 178.429 665.377 178.429 665.023C178.429 664.712 178.354 664.492 178.205 664.364C178.055 664.224 177.879 664.155 177.676 664.155H175.45Z" fill="#0F2F54"/>
</g>
</svg>
