<svg width="296" height="432" viewBox="0 0 296 432" fill="none" xmlns="http://www.w3.org/2000/svg">
<path d="M202.821 424.537C202.821 426.237 202.221 427.537 201.12 428.637C200.02 429.437 198.921 430.037 197.221 430.037H75.6205C74.2205 430.037 72.8205 429.437 71.7205 428.637C70.6205 427.537 70.0205 426.137 70.0205 424.537V343.537H202.721V424.537H202.821Z" fill="#FFD15C"/>
<path d="M202.821 396.637V424.537C202.821 426.237 202.221 427.537 201.121 428.637C200.021 429.437 198.921 430.037 197.221 430.037" stroke="#3C3C3C" stroke-width="3" stroke-miterlimit="10" stroke-linecap="round" stroke-linejoin="round"/>
<path d="M202.82 383.137V388.237" stroke="#3C3C3C" stroke-width="3" stroke-miterlimit="10" stroke-linecap="round" stroke-linejoin="round"/>
<path d="M70.0205 359.237V343.537H202.721V376.437" stroke="#3C3C3C" stroke-width="3" stroke-miterlimit="10" stroke-linecap="round" stroke-linejoin="round"/>
<path d="M75.6205 430.137C74.2205 430.137 72.8205 429.537 71.7205 428.737C70.6205 427.637 70.0205 426.237 70.0205 424.637V368.937" stroke="#3C3C3C" stroke-width="3" stroke-miterlimit="10" stroke-linecap="round" stroke-linejoin="round"/>
<path d="M201.121 428.737C200.021 429.537 198.921 430.137 197.221 430.137H75.6207C74.2207 430.137 72.8207 429.537 71.7207 428.737L136.421 373.137L201.121 428.737Z" fill="#F8B64C"/>
<path d="M182.72 412.937L201.12 428.737C200.02 429.537 198.92 430.137 197.22 430.137H141.42" stroke="#3C3C3C" stroke-width="3" stroke-miterlimit="10" stroke-linecap="round" stroke-linejoin="round"/>
<path d="M121.221 386.137L136.421 373.137L177.921 408.837" stroke="#3C3C3C" stroke-width="3" stroke-miterlimit="10" stroke-linecap="round" stroke-linejoin="round"/>
<path d="M99.8203 404.537L115.62 390.937" stroke="#3C3C3C" stroke-width="3" stroke-miterlimit="10" stroke-linecap="round" stroke-linejoin="round"/>
<path d="M75.6207 430.137C74.2207 430.137 72.8207 429.537 71.7207 428.737L94.9207 408.837" stroke="#3C3C3C" stroke-width="3" stroke-miterlimit="10" stroke-linecap="round" stroke-linejoin="round"/>
<path d="M130.92 430.137H82.9204" stroke="#3C3C3C" stroke-width="3" stroke-miterlimit="10" stroke-linecap="round" stroke-linejoin="round"/>
<path d="M202.821 343.537L184.021 357.037L140.021 388.537C137.821 390.237 134.721 390.237 132.521 388.537L88.8205 357.037L70.0205 343.537L88.8205 330.037L129.721 300.737L132.721 298.537C134.921 296.837 138.021 296.837 140.221 298.537L143.221 300.737L162.821 314.837L172.521 321.737L183.821 330.037L202.821 343.537Z" fill="#40596B"/>
<path d="M78.8205 349.837L70.0205 343.537L88.8205 330.037L129.721 300.737L132.721 298.537C134.921 296.837 138.021 296.837 140.221 298.537L143.221 300.737L162.821 314.837L172.521 321.737L183.821 330.037L202.62 343.537L194.62 349.337" stroke="#3C3C3C" stroke-width="3" stroke-miterlimit="10" stroke-linecap="round" stroke-linejoin="round"/>
<path d="M187.921 354.237L184.021 357.037L140.021 388.537C137.821 390.237 134.721 390.237 132.521 388.537L88.8207 357.037L85.2207 354.437" stroke="#3C3C3C" stroke-width="3" stroke-miterlimit="10" stroke-linecap="round" stroke-linejoin="round"/>
<path d="M184.02 317.837V357.137L140.02 388.637C137.82 390.337 134.72 390.337 132.52 388.637L88.8203 357.137V306.237C88.8203 303.237 91.3203 300.737 94.3203 300.737H166.52L184.02 317.837Z" fill="#F2F2F2"/>
<path d="M88.8203 322.337V306.237C88.8203 303.237 91.3203 300.737 94.3203 300.737H102.32" stroke="#3C3C3C" stroke-width="3" stroke-miterlimit="10" stroke-linecap="round" stroke-linejoin="round"/>
<path d="M184.02 343.537V357.037L140.02 388.537C137.82 390.237 134.72 390.237 132.52 388.537L88.8203 357.037V330.037" stroke="#3C3C3C" stroke-width="3" stroke-miterlimit="10" stroke-linecap="round" stroke-linejoin="round"/>
<path d="M111.32 300.637H166.62L184.02 317.737V337.337" stroke="#3C3C3C" stroke-width="3" stroke-miterlimit="10" stroke-linecap="round" stroke-linejoin="round"/>
<path d="M166.82 313.437C166.82 315.937 168.72 317.837 171.22 317.837H183.92L166.82 300.737V313.437Z" fill="#CDD6E0"/>
<path d="M166.82 313.437C166.82 315.937 168.72 317.837 171.22 317.837H183.92L166.82 300.737V313.437Z" stroke="#3C3C3C" stroke-width="3" stroke-miterlimit="10" stroke-linecap="round" stroke-linejoin="round"/>
<path d="M149.92 327.837L130.42 347.337L122.92 339.737L116.92 345.737L130.42 359.237L155.92 333.837L149.92 327.837Z" fill="#2FE036"/>
<path d="M126.72 343.537L122.92 339.737L116.92 345.737L130.42 359.237L143.42 346.337" stroke="#3C3C3C" stroke-width="3" stroke-miterlimit="10" stroke-linecap="round" stroke-linejoin="round"/>
<path d="M143.42 334.437L130.42 347.337" stroke="#3C3C3C" stroke-width="3" stroke-miterlimit="10" stroke-linecap="round" stroke-linejoin="round"/>
<path d="M147.621 342.037L155.921 333.837L149.921 327.837L147.821 330.037" stroke="#3C3C3C" stroke-width="3" stroke-miterlimit="10" stroke-linecap="round" stroke-linejoin="round"/>
<path d="M75.3205 142.137C75.9205 142.937 76.2205 144.037 75.9205 145.037C75.6205 146.137 74.7205 147.037 74.7205 148.237C74.7205 149.237 75.4205 150.037 76.2205 150.637C77.5205 151.637 80.2205 152.937 79.9205 154.937C79.6205 156.937 76.6205 157.137 75.3205 158.137C74.3205 158.937 73.6205 160.337 74.3205 161.437C75.0205 162.637 76.7205 162.637 78.0205 163.237C79.2205 163.837 79.9205 165.237 79.8205 166.637" stroke="#DB4437" stroke-width="1.5993" stroke-miterlimit="10"/>
<path d="M15.9209 13.1368C18.5209 14.4368 21.5209 16.3368 21.4209 19.2368C21.3209 21.2368 19.8209 22.7368 19.1209 24.6368C18.2209 26.8368 18.6209 29.5368 20.1209 31.3368C21.8209 33.5368 25.0209 34.9368 25.3209 37.6368" stroke="#0F9D58" stroke-width="2.4327" stroke-miterlimit="10"/>
<path d="M109.221 228.237C107.321 226.037 105.321 223.137 106.621 220.437C107.421 218.637 109.421 217.837 110.821 216.437C112.521 214.737 113.121 212.137 112.521 209.837C111.821 207.137 109.421 204.637 110.221 201.937" stroke="#FFC216" stroke-width="2.4327" stroke-miterlimit="10"/>
<path d="M5.32066 142.637C3.82066 144.937 1.72067 146.237 0.620667 145.437C-0.479333 144.737 -0.0793314 142.337 1.52067 140.037C3.02067 137.737 5.12067 136.437 6.22067 137.237C7.32067 137.937 6.92066 140.437 5.32066 142.637Z" fill="#FFC216"/>
<path d="M111.421 5.63681C109.921 7.93681 107.821 9.2368 106.721 8.4368C105.621 7.7368 106.021 5.33681 107.621 3.03681C109.121 0.736809 111.221 -0.563194 112.321 0.236806C113.321 0.936806 112.921 3.33681 111.421 5.63681Z" fill="#4285F4"/>
<path d="M72.0208 196.337C69.2208 196.537 67.0208 195.637 66.9208 194.337C66.8208 193.037 69.0208 191.937 71.7208 191.737C74.5208 191.537 76.7208 192.437 76.8208 193.737C76.9208 194.937 74.8208 196.137 72.0208 196.337Z" fill="#FFC216"/>
<path d="M97.9207 119.237C95.1207 119.437 92.9207 118.537 92.8207 117.237C92.7207 115.937 94.9207 114.837 97.6207 114.637C100.421 114.437 102.621 115.337 102.721 116.637C102.821 117.937 100.621 119.037 97.9207 119.237Z" fill="#FFC216"/>
<path d="M42.1208 176.537C41.0208 179.037 39.1208 180.637 38.0208 180.137C36.8208 179.637 36.8208 177.137 37.9208 174.637C39.0208 172.137 40.9208 170.537 42.0208 171.037C43.2208 171.537 43.2208 174.037 42.1208 176.537Z" fill="#0F9D58"/>
<path d="M39.3207 31.0368C36.6207 30.6368 34.5207 29.2368 34.7207 28.0368C34.9207 26.7368 37.3207 26.1368 40.0207 26.5368C42.7207 26.9368 44.8207 28.3368 44.6207 29.5368C44.3207 30.7368 42.0207 31.4368 39.3207 31.0368Z" fill="white"/>
<path d="M201.42 87.1368C199.42 85.2368 198.52 82.9368 199.32 82.0368C200.22 81.1368 202.52 81.9368 204.52 83.7368C206.52 85.6368 207.42 87.9368 206.62 88.8368C205.72 89.8368 203.42 89.0368 201.42 87.1368Z" fill="#EC1A57"/>
<path d="M94.9209 271.137C93.7209 273.637 91.8209 275.137 90.6209 274.637C89.5209 274.037 89.5209 271.637 90.8209 269.137C92.0209 266.637 93.9209 265.137 95.1209 265.637C96.2209 266.237 96.2209 268.637 94.9209 271.137Z" fill="#DB4437"/>
<path d="M9.09297 62.0254C9.29013 59.2711 8.42288 56.9649 7.15593 56.8742C5.88897 56.7835 4.70208 58.9427 4.50493 61.697C4.30777 64.4512 5.17502 66.7575 6.44197 66.8482C7.70892 66.9389 8.89582 64.7796 9.09297 62.0254Z" fill="#4285F4"/>
<path d="M55.8204 127.337C55.9204 125.937 56.5204 124.837 57.1204 124.937C57.7204 124.937 58.2204 126.137 58.1204 127.537C58.0204 128.937 57.4204 130.037 56.8204 129.937C56.2204 129.837 55.7204 128.737 55.8204 127.337Z" fill="#DB4437"/>
<path d="M94.0124 47.8676C94.111 46.4904 93.6997 45.3389 93.0938 45.2955C92.4879 45.2521 91.9167 46.3334 91.8182 47.7105C91.7196 49.0876 92.1309 50.2391 92.7368 50.2825C93.3427 50.3259 93.9138 49.2447 94.0124 47.8676Z" fill="#FFC216"/>
<path d="M152.52 96.1368C151.22 95.6368 150.32 94.7368 150.62 94.1368C150.82 93.5368 152.02 93.4368 153.32 93.9368C154.62 94.4368 155.52 95.3368 155.22 95.9368C155.02 96.5368 153.82 96.6368 152.52 96.1368Z" fill="#EC1A57"/>
<path d="M46.7206 202.137C48.1206 202.337 49.1206 202.937 49.1206 203.537C49.0206 204.137 47.9206 204.537 46.5206 204.437C45.1206 204.237 44.1206 203.637 44.1206 203.037C44.1206 202.437 45.3206 201.937 46.7206 202.137Z" fill="white"/>
<path d="M129.921 135.937C131.321 136.137 132.321 136.737 132.321 137.337C132.221 137.937 131.121 138.337 129.721 138.237C128.321 138.037 127.321 137.437 127.321 136.837C127.321 136.137 128.521 135.737 129.921 135.937Z" fill="white"/>
<path d="M39.4204 64.9368C38.3204 64.1368 37.6205 63.1368 38.0205 62.5368C38.4205 62.0368 39.6204 62.2368 40.7204 62.9368C41.8204 63.7368 42.5204 64.7368 42.1204 65.3368C41.7204 65.9368 40.5204 65.7368 39.4204 64.9368Z" fill="#DB4437"/>
<path d="M56.0206 234.337C56.1206 232.937 56.7206 231.837 57.3206 231.937C57.9206 231.937 58.4206 233.137 58.3206 234.537C58.2206 235.937 57.6206 237.037 57.0206 236.937C56.3206 236.837 55.9206 235.637 56.0206 234.337Z" fill="#4285F4"/>
<path d="M153.42 50.5368C152.92 51.8368 152.12 52.7368 151.52 52.5368C150.92 52.3368 150.82 51.1368 151.22 49.8368C151.72 48.5368 152.52 47.6368 153.12 47.8368C153.72 48.0368 153.82 49.2368 153.42 50.5368Z" fill="#FFC216"/>
<path d="M207.921 128.437C206.921 129.637 206.421 131.337 206.821 132.837C207.221 134.537 208.521 136.037 208.421 137.737C208.321 139.237 207.221 140.437 206.021 141.337C204.021 142.737 199.821 144.537 200.121 147.737C200.521 150.837 204.921 151.237 206.921 152.937C208.421 154.137 209.321 156.437 208.321 158.037C207.121 159.837 204.521 159.637 202.621 160.537C200.721 161.437 199.521 163.537 199.721 165.537" stroke="#DB4437" stroke-width="2.4327" stroke-miterlimit="10"/>
<path d="M295.421 52.5369C292.821 53.7369 289.721 55.5369 289.721 58.4369C289.721 60.4369 291.121 62.0369 291.821 63.9369C292.621 66.1369 292.121 68.8369 290.521 70.6369C288.721 72.7369 285.421 73.9369 285.121 76.7369" stroke="#FFC216" stroke-width="2.4327" stroke-miterlimit="10"/>
<path d="M177.621 244.037C179.621 241.937 181.721 239.037 180.621 236.437C179.821 234.637 177.921 233.637 176.621 232.237C175.021 230.437 174.521 227.837 175.221 225.537C176.121 222.837 178.621 220.437 177.821 217.837" stroke="#4285F4" stroke-width="2.4327" stroke-miterlimit="10"/>
<path d="M246.321 160.037C247.721 162.337 249.821 163.737 250.921 163.137C252.021 162.537 251.721 160.037 250.321 157.637C248.921 155.337 246.821 153.937 245.721 154.537C244.521 155.237 244.821 157.737 246.321 160.037Z" fill="#FFC216"/>
<path d="M183.42 26.6368C184.82 28.9368 186.92 30.3368 188.02 29.7368C189.12 29.0368 188.82 26.6368 187.42 24.2368C186.02 21.9368 183.92 20.5368 182.82 21.1368C181.72 21.8368 182.02 24.3368 183.42 26.6368Z" fill="#FFC216"/>
<path d="M215.021 210.037C217.721 210.337 220.121 209.537 220.221 208.337C220.321 207.037 218.221 205.837 215.521 205.537C212.821 205.237 210.421 206.037 210.321 207.237C210.221 208.437 212.321 209.737 215.021 210.037Z" fill="#FFC216"/>
<path d="M161.721 139.337C164.421 139.637 166.821 138.837 166.921 137.637C167.021 136.437 164.921 135.137 162.221 134.837C159.521 134.537 157.121 135.337 157.021 136.537C156.921 137.737 159.021 139.037 161.721 139.337Z" fill="#4285F4"/>
<path d="M213.121 163.237C214.121 165.837 215.921 167.537 217.121 167.037C218.321 166.537 218.421 164.137 217.421 161.537C216.421 158.937 214.621 157.237 213.421 157.737C212.321 158.237 212.121 160.637 213.121 163.237Z" fill="white"/>
<path d="M230.021 32.5368C232.721 32.2368 234.921 30.9368 234.721 29.7368C234.621 28.4368 232.221 27.7368 229.521 28.0368C226.821 28.3368 224.621 29.6368 224.821 30.8368C224.921 32.0368 227.221 32.8368 230.021 32.5368Z" fill="#DB4437"/>
<path d="M116.421 167.037C118.521 165.237 119.521 163.037 118.721 162.037C117.921 161.037 115.521 161.737 113.421 163.537C111.321 165.337 110.321 167.537 111.121 168.537C111.921 169.537 114.321 168.837 116.421 167.037Z" fill="#EC1A57"/>
<path d="M163.521 269.837C164.621 272.337 166.521 274.037 167.621 273.437C168.821 272.937 168.821 270.437 167.721 267.937C166.621 265.437 164.721 263.737 163.621 264.337C162.521 264.837 162.421 267.337 163.521 269.837Z" fill="#FFC216"/>
<path d="M261.167 69.744C262.436 69.7105 263.407 67.4455 263.334 64.6849C263.262 61.9243 262.173 59.7135 260.903 59.747C259.633 59.7804 258.663 62.0454 258.736 64.806C258.808 67.5666 259.897 69.7774 261.167 69.744Z" fill="#0F9D58"/>
<path d="M245.021 109.237C245.021 107.837 244.421 106.737 243.821 106.737C243.221 106.737 242.721 107.837 242.721 109.237C242.721 110.637 243.321 111.737 243.921 111.737C244.521 111.837 245.021 110.637 245.021 109.237Z" fill="#4285F4"/>
<path d="M24.8915 113.348C25.4988 113.332 25.9617 112.2 25.9253 110.82C25.889 109.439 25.3672 108.333 24.7598 108.349C24.1525 108.365 23.6896 109.497 23.726 110.878C23.7623 112.258 24.2841 113.364 24.8915 113.348Z" fill="#FFC216"/>
<path d="M113.921 78.7367C115.221 78.3367 116.121 77.4368 115.921 76.8368C115.721 76.2368 114.521 76.1368 113.221 76.5368C111.921 76.9368 111.021 77.8367 111.221 78.4367C111.421 78.9367 112.621 79.1367 113.921 78.7367Z" fill="#0F9D58"/>
<path d="M214.821 203.037C213.421 203.137 212.321 203.737 212.421 204.337C212.421 204.937 213.621 205.437 215.021 205.337C216.421 205.237 217.521 204.637 217.421 204.037C217.321 203.437 216.221 202.937 214.821 203.037Z" fill="white"/>
<path d="M134.721 133.237C133.321 133.337 132.221 133.937 132.321 134.537C132.321 135.137 133.521 135.637 134.921 135.537C136.321 135.437 137.421 134.837 137.321 134.237C137.221 133.537 136.121 133.137 134.721 133.237Z" fill="white"/>
<path d="M228.321 66.3369C229.521 65.6369 230.221 64.6369 229.821 64.0369C229.521 63.5369 228.221 63.6369 227.121 64.3369C225.921 65.0369 225.221 66.0369 225.621 66.6369C225.921 67.2369 227.121 67.1369 228.321 66.3369Z" fill="#FFC216"/>
<path d="M204.121 234.837C204.121 233.437 203.521 232.337 202.921 232.337C202.321 232.337 201.821 233.437 201.821 234.837C201.821 236.237 202.421 237.337 203.021 237.337C203.721 237.337 204.121 236.237 204.121 234.837Z" fill="#FFC216"/>
<path opacity="0.4" d="M173.14 116.604H168.963V121H167.65V111.047H173.816V112.127H168.963V115.531H173.14V116.604ZM174.705 117.233C174.705 116.509 174.846 115.857 175.129 115.278C175.416 114.7 175.812 114.253 176.318 113.938C176.829 113.624 177.41 113.467 178.062 113.467C179.069 113.467 179.882 113.815 180.502 114.513C181.126 115.21 181.438 116.137 181.438 117.295V117.384C181.438 118.104 181.299 118.751 181.021 119.325C180.748 119.895 180.354 120.339 179.839 120.658C179.328 120.977 178.741 121.137 178.075 121.137C177.073 121.137 176.259 120.788 175.635 120.091C175.015 119.394 174.705 118.471 174.705 117.322V117.233ZM175.977 117.384C175.977 118.204 176.166 118.863 176.544 119.359C176.927 119.856 177.437 120.104 178.075 120.104C178.718 120.104 179.228 119.854 179.606 119.353C179.985 118.847 180.174 118.14 180.174 117.233C180.174 116.422 179.98 115.766 179.593 115.265C179.21 114.759 178.7 114.506 178.062 114.506C177.437 114.506 176.934 114.754 176.551 115.251C176.168 115.748 175.977 116.459 175.977 117.384ZM186.6 114.738C186.408 114.706 186.201 114.69 185.978 114.69C185.148 114.69 184.585 115.044 184.289 115.75V121H183.024V113.604H184.255L184.275 114.458C184.69 113.797 185.278 113.467 186.039 113.467C186.285 113.467 186.472 113.499 186.6 113.562V114.738ZM191.439 121V111.047H194.693C195.773 111.047 196.585 111.27 197.127 111.717C197.674 112.163 197.947 112.824 197.947 113.699C197.947 114.164 197.815 114.576 197.551 114.937C197.286 115.292 196.926 115.568 196.471 115.764C197.008 115.914 197.432 116.201 197.742 116.625C198.057 117.044 198.214 117.546 198.214 118.129C198.214 119.022 197.924 119.724 197.346 120.234C196.767 120.745 195.949 121 194.892 121H191.439ZM192.752 116.345V119.927H194.919C195.53 119.927 196.01 119.77 196.361 119.455C196.717 119.136 196.895 118.699 196.895 118.143C196.895 116.944 196.243 116.345 194.939 116.345H192.752ZM192.752 115.292H194.734C195.309 115.292 195.767 115.148 196.108 114.861C196.455 114.574 196.628 114.185 196.628 113.692C196.628 113.146 196.468 112.749 196.149 112.503C195.83 112.252 195.345 112.127 194.693 112.127H192.752V115.292ZM201.338 121H200.073V110.5H201.338V121ZM203.033 117.233C203.033 116.509 203.174 115.857 203.457 115.278C203.744 114.7 204.141 114.253 204.646 113.938C205.157 113.624 205.738 113.467 206.39 113.467C207.397 113.467 208.21 113.815 208.83 114.513C209.454 115.21 209.767 116.137 209.767 117.295V117.384C209.767 118.104 209.628 118.751 209.35 119.325C209.076 119.895 208.682 120.339 208.167 120.658C207.657 120.977 207.069 121.137 206.403 121.137C205.401 121.137 204.587 120.788 203.963 120.091C203.343 119.394 203.033 118.471 203.033 117.322V117.233ZM204.305 117.384C204.305 118.204 204.494 118.863 204.872 119.359C205.255 119.856 205.765 120.104 206.403 120.104C207.046 120.104 207.556 119.854 207.935 119.353C208.313 118.847 208.502 118.14 208.502 117.233C208.502 116.422 208.308 115.766 207.921 115.265C207.538 114.759 207.028 114.506 206.39 114.506C205.765 114.506 205.262 114.754 204.879 115.251C204.496 115.748 204.305 116.459 204.305 117.384ZM211.052 117.24C211.052 116.087 211.318 115.171 211.852 114.492C212.385 113.809 213.091 113.467 213.971 113.467C214.873 113.467 215.577 113.786 216.083 114.424L216.145 113.604H217.3V120.822C217.3 121.779 217.015 122.534 216.445 123.085C215.88 123.636 215.119 123.912 214.162 123.912C213.629 123.912 213.107 123.798 212.597 123.57C212.086 123.342 211.697 123.03 211.428 122.634L212.084 121.875C212.626 122.545 213.289 122.88 214.073 122.88C214.688 122.88 215.167 122.707 215.509 122.36C215.855 122.014 216.028 121.526 216.028 120.897V120.262C215.522 120.845 214.832 121.137 213.957 121.137C213.091 121.137 212.389 120.788 211.852 120.091C211.318 119.394 211.052 118.443 211.052 117.24ZM212.323 117.384C212.323 118.218 212.494 118.874 212.836 119.353C213.178 119.826 213.656 120.063 214.271 120.063C215.069 120.063 215.655 119.701 216.028 118.977V115.6C215.641 114.893 215.06 114.54 214.285 114.54C213.67 114.54 213.189 114.779 212.843 115.258C212.496 115.736 212.323 116.445 212.323 117.384ZM218.913 117.24C218.913 116.087 219.18 115.171 219.713 114.492C220.246 113.809 220.952 113.467 221.832 113.467C222.734 113.467 223.438 113.786 223.944 114.424L224.006 113.604H225.161V120.822C225.161 121.779 224.876 122.534 224.307 123.085C223.742 123.636 222.98 123.912 222.023 123.912C221.49 123.912 220.968 123.798 220.458 123.57C219.948 123.342 219.558 123.03 219.289 122.634L219.945 121.875C220.488 122.545 221.151 122.88 221.935 122.88C222.55 122.88 223.028 122.707 223.37 122.36C223.716 122.014 223.89 121.526 223.89 120.897V120.262C223.384 120.845 222.693 121.137 221.818 121.137C220.952 121.137 220.251 120.788 219.713 120.091C219.18 119.394 218.913 118.443 218.913 117.24ZM220.185 117.384C220.185 118.218 220.355 118.874 220.697 119.353C221.039 119.826 221.518 120.063 222.133 120.063C222.93 120.063 223.516 119.701 223.89 118.977V115.6C223.502 114.893 222.921 114.54 222.146 114.54C221.531 114.54 221.05 114.779 220.704 115.258C220.358 115.736 220.185 116.445 220.185 117.384ZM230.145 121.137C229.142 121.137 228.326 120.809 227.697 120.152C227.068 119.492 226.754 118.61 226.754 117.507V117.274C226.754 116.541 226.893 115.887 227.171 115.312C227.453 114.734 227.845 114.283 228.347 113.959C228.853 113.631 229.399 113.467 229.987 113.467C230.949 113.467 231.696 113.784 232.229 114.417C232.763 115.05 233.029 115.957 233.029 117.138V117.664H228.019C228.037 118.393 228.249 118.983 228.654 119.435C229.064 119.881 229.584 120.104 230.213 120.104C230.66 120.104 231.038 120.013 231.348 119.831C231.658 119.649 231.929 119.407 232.161 119.106L232.934 119.708C232.314 120.66 231.384 121.137 230.145 121.137ZM229.987 114.506C229.477 114.506 229.049 114.693 228.702 115.066C228.356 115.436 228.142 115.955 228.06 116.625H231.765V116.529C231.728 115.887 231.555 115.39 231.245 115.039C230.935 114.684 230.516 114.506 229.987 114.506ZM238.074 114.738C237.883 114.706 237.675 114.69 237.452 114.69C236.623 114.69 236.06 115.044 235.764 115.75V121H234.499V113.604H235.729L235.75 114.458C236.165 113.797 236.753 113.467 237.514 113.467C237.76 113.467 237.947 113.499 238.074 113.562V114.738ZM243.55 119.038C243.55 118.696 243.42 118.432 243.16 118.245C242.905 118.054 242.456 117.89 241.813 117.753C241.175 117.616 240.667 117.452 240.289 117.261C239.915 117.069 239.637 116.841 239.455 116.577C239.277 116.313 239.188 115.998 239.188 115.634C239.188 115.028 239.444 114.515 239.954 114.096C240.469 113.676 241.125 113.467 241.923 113.467C242.761 113.467 243.44 113.683 243.96 114.116C244.484 114.549 244.746 115.103 244.746 115.777H243.475C243.475 115.431 243.326 115.132 243.03 114.882C242.739 114.631 242.369 114.506 241.923 114.506C241.463 114.506 241.103 114.606 240.843 114.807C240.583 115.007 240.453 115.269 240.453 115.593C240.453 115.898 240.574 116.128 240.815 116.283C241.057 116.438 241.492 116.586 242.121 116.728C242.755 116.869 243.267 117.037 243.659 117.233C244.051 117.429 244.34 117.666 244.527 117.944C244.719 118.218 244.814 118.553 244.814 118.949C244.814 119.61 244.55 120.141 244.021 120.542C243.493 120.938 242.807 121.137 241.964 121.137C241.371 121.137 240.847 121.032 240.392 120.822C239.936 120.613 239.578 120.321 239.318 119.947C239.063 119.569 238.936 119.161 238.936 118.724H240.2C240.223 119.147 240.392 119.485 240.706 119.735C241.025 119.981 241.444 120.104 241.964 120.104C242.442 120.104 242.825 120.009 243.112 119.817C243.404 119.621 243.55 119.362 243.55 119.038Z" fill="#0F2F54"/>
<path d="M49 70.8449C49 68.1109 49.4949 65.419 50.4846 62.7691C51.5156 60.1192 53.0002 57.7427 54.9385 55.6396C56.8767 53.5365 59.2273 51.833 61.9904 50.5291C64.7534 49.2252 67.9082 48.5732 71.4548 48.5732C75.7024 48.5732 79.3727 49.4775 82.4657 51.2862C85.5999 53.0528 87.9299 55.4082 89.4557 58.3526L80.2387 65.0404C79.8264 63.9468 79.2696 63.0425 78.5686 62.3274C77.9087 61.6124 77.1664 61.0445 76.3416 60.6239C75.5169 60.2033 74.6508 59.9089 73.7436 59.7406C72.8775 59.5724 72.0321 59.4882 71.2073 59.4882C69.4753 59.4882 67.9701 59.8458 66.6917 60.5608C65.4545 61.2338 64.4235 62.1381 63.5987 63.2738C62.8152 64.3674 62.2172 65.6293 61.8048 67.0594C61.4336 68.4474 61.2481 69.8355 61.2481 71.2235C61.2481 72.7798 61.4749 74.273 61.9285 75.7031C62.3821 77.1332 63.042 78.3951 63.908 79.4887C64.774 80.5823 65.8256 81.4656 67.0628 82.1386C68.3412 82.7695 69.764 83.0849 71.3311 83.0849C72.1559 83.0849 73.0013 83.0008 73.8673 82.8326C74.7333 82.6223 75.5581 82.3068 76.3416 81.8862C77.1664 81.4235 77.8881 80.8557 78.5067 80.1827C79.1665 79.4676 79.682 78.6054 80.0532 77.5959L89.8887 83.5897C89.2289 85.2301 88.2186 86.7023 86.8577 88.0062C85.538 89.3101 84.0121 90.4037 82.2801 91.287C80.5893 92.1703 78.7541 92.8433 76.7747 93.306C74.8364 93.7687 72.9394 94 71.0836 94C67.8257 94 64.8359 93.348 62.1141 92.0441C59.4335 90.6981 57.1035 88.9315 55.124 86.7443C53.1858 84.5571 51.6806 82.0755 50.6083 79.2994C49.5361 76.5233 49 73.7052 49 70.8449Z" fill="#0F2F54"/>
<path d="M102.962 93.6214V48.8256H123.128C125.272 48.8256 127.252 49.2882 129.066 50.2136C130.881 51.0969 132.427 52.2746 133.705 53.7468C135.025 55.1769 136.056 56.8383 136.798 58.7311C137.541 60.5819 137.912 62.4536 137.912 64.3464C137.912 66.9542 137.355 69.3938 136.242 71.6652C135.128 73.8944 133.582 75.7241 131.602 77.1542L140.881 93.6214H127.272L119.54 79.8672H115.024V93.6214H102.962ZM115.024 69.1414H122.633C123.375 69.1414 124.055 68.7208 124.674 67.8796C125.334 67.0383 125.664 65.8606 125.664 64.3464C125.664 62.7901 125.293 61.6124 124.55 60.8132C123.808 59.972 123.066 59.5513 122.323 59.5513H115.024V69.1414Z" fill="#0F2F54"/>
<path d="M182.038 88.3637L179.687 85.84C177.914 86.9336 176.058 87.7328 174.12 88.2375C172.223 88.7423 170.305 88.9946 168.367 88.9946C165.81 88.9946 163.563 88.574 161.624 87.7328C159.727 86.8915 158.119 85.7979 156.799 84.452C155.521 83.106 154.552 81.5918 153.892 79.9093C153.232 78.1847 152.902 76.4602 152.902 74.7357C152.902 72.1699 153.5 69.9616 154.696 68.1109C155.933 66.2181 157.397 64.5777 159.088 63.1897C157.769 61.5493 156.841 60.0981 156.305 58.8363C155.768 57.5324 155.5 56.1023 155.5 54.546C155.5 52.7373 155.83 51.1179 156.49 49.6878C157.15 48.2157 158.037 46.9959 159.15 46.0285C160.305 45.061 161.666 44.325 163.233 43.8202C164.8 43.2734 166.511 43 168.367 43C169.975 43 171.543 43.2103 173.068 43.6309C174.635 44.0095 176.017 44.6404 177.213 45.5237C178.45 46.3649 179.44 47.4796 180.182 48.8676C180.924 50.2136 181.296 51.854 181.296 53.7889C181.296 56.0602 180.78 58.1002 179.749 59.9089C178.718 61.7175 177.337 63.379 175.605 64.8932L180.677 70.3823C181.131 69.2045 181.481 67.9427 181.729 66.5967C181.976 65.2087 182.1 63.7155 182.1 62.1171H191.564C191.523 65.3559 191.152 68.2792 190.451 70.887C189.75 73.4528 188.801 75.7662 187.605 77.8272L197.441 88.3637H182.038ZM169.604 79.6569C170.841 79.6569 172.058 79.3835 173.254 78.8367L166.264 71.2025C164.862 72.3802 164.161 73.5579 164.161 74.7357C164.161 75.1983 164.243 75.7241 164.408 76.313C164.614 76.8598 164.924 77.3856 165.336 77.8903C165.79 78.3951 166.367 78.8157 167.068 79.1522C167.769 79.4887 168.615 79.6569 169.604 79.6569ZM166.14 54.0412C166.14 54.588 166.284 55.0718 166.573 55.4924C166.903 55.8709 167.439 56.4177 168.182 57.1328C169.006 56.5439 169.604 56.0392 169.975 55.6186C170.347 55.1559 170.532 54.588 170.532 53.9151C170.532 53.2 170.326 52.6532 169.914 52.2746C169.542 51.8961 169.027 51.7068 168.367 51.7068C167.666 51.7068 167.109 51.9381 166.697 52.4008C166.326 52.8214 166.14 53.3682 166.14 54.0412Z" fill="#0F2F54"/>
<path d="M246 82.1386C246 84.1575 245.588 85.9031 244.763 87.3753C243.938 88.8054 242.804 89.9831 241.361 90.9085C239.917 91.8338 238.226 92.5278 236.288 92.9905C234.391 93.4111 232.37 93.6214 230.226 93.6214H208.637V48.8256H234.123C235.649 48.8256 237.03 49.1621 238.268 49.8351C239.505 50.508 240.556 51.3913 241.422 52.4849C242.288 53.5365 242.948 54.7563 243.402 56.1443C243.897 57.4903 244.144 58.8784 244.144 60.3085C244.144 62.4115 243.608 64.4305 242.536 66.3654C241.505 68.2581 239.938 69.6882 237.835 70.6557C240.35 71.4128 242.33 72.7377 243.773 74.6305C245.258 76.4812 246 78.9839 246 82.1386ZM233.752 79.6148C233.752 78.5212 233.463 77.6169 232.886 76.9019C232.309 76.1447 231.566 75.7662 230.659 75.7662H220.7V83.2742H230.226C231.216 83.2742 232.041 82.9588 232.7 82.3278C233.401 81.6969 233.752 80.7926 233.752 79.6148ZM220.7 59.299V66.1761H228.927C229.752 66.1761 230.494 65.9447 231.154 65.4821C231.855 65.0194 232.205 64.094 232.205 62.706C232.205 61.4862 231.917 60.6239 231.339 60.1192C230.762 59.5724 230.082 59.299 229.298 59.299H220.7Z" fill="#0F2F54"/>
</svg>
