<svg width="35" height="36" viewBox="0 0 35 36" fill="none" xmlns="http://www.w3.org/2000/svg">
<path d="M17.2884 7.22327C11.5387 7.22327 6.86523 11.8967 6.86523 17.6464C6.86523 23.3889 11.5387 28.0695 17.2884 28.0695C23.0381 28.0695 27.7115 23.3889 27.7115 17.6464C27.7115 11.8967 23.0381 7.22327 17.2884 7.22327ZM17.2884 26.2999C12.521 26.2999 8.63493 22.421 8.63493 17.6464C8.63493 12.8791 12.5138 8.99296 17.2884 8.99296C22.0629 8.99296 25.9418 12.8791 25.9418 17.6464C25.9418 22.4137 22.0557 26.2999 17.2884 26.2999Z" fill="#0F9D58"/>
<path d="M33.3892 18.2098C33.0931 17.8053 33.0859 17.2491 33.382 16.8374L33.996 15.9634C34.4799 15.2772 34.6533 14.4104 34.4583 13.5869C34.2632 12.7635 33.7287 12.0628 32.9847 11.6655L32.0457 11.1599C31.5979 10.9215 31.3595 10.4304 31.439 9.93196L31.6195 8.87737C31.7568 8.04669 31.5329 7.19435 31.0056 6.53703C30.471 5.87972 29.6837 5.48244 28.8458 5.44632L27.7768 5.40299C27.2711 5.38132 26.8377 5.04182 26.7005 4.55787L26.3899 3.53939C26.0287 2.28977 24.8658 1.41576 23.5584 1.41576C23.1611 1.41576 22.7638 1.49521 22.3955 1.65412L21.4131 2.07307C20.958 2.2681 20.4018 2.1453 20.0768 1.77692L19.3617 0.982361C18.8055 0.361162 18.0037 0 17.173 0C16.3207 0 15.5117 0.368385 14.9483 1.01125L14.2549 1.82026C13.9298 2.19587 13.3808 2.32588 12.9186 2.13808L11.929 1.73358C11.5678 1.58911 11.1922 1.50966 10.8094 1.50966C9.48752 1.50966 8.31735 2.39812 7.97064 3.67663L7.68893 4.70955C7.55891 5.19351 7.12552 5.54023 6.61989 5.56912L5.55807 5.63413C4.72018 5.67747 3.93285 6.08919 3.41277 6.75373C2.8927 7.41827 2.68322 8.27784 2.83491 9.10129L3.02994 10.1487C3.12384 10.6471 2.88548 11.1455 2.44486 11.3911L1.51306 11.9111C0.776289 12.3229 0.248992 13.0307 0.0684108 13.8542C-0.11217 14.6776 0.0684108 15.5444 0.566815 16.2234L1.19524 17.083C1.49139 17.4875 1.49861 18.0437 1.20246 18.4554L0.588484 19.3294C0.104527 20.0156 -0.0688308 20.8824 0.126197 21.7058C0.321224 22.5293 0.855744 23.2299 1.59974 23.6272L2.53876 24.1329C2.9866 24.3712 3.22497 24.8624 3.14551 25.3608L2.96493 26.4154C2.82769 27.2461 3.05161 28.0984 3.57891 28.7557C4.11343 29.413 4.90076 29.8103 5.73866 29.8464L6.8077 29.8898C7.31332 29.9114 7.74672 30.2509 7.88396 30.7349L8.18011 31.7606C8.54127 33.0102 9.70422 33.8842 11.0116 33.8842C11.4089 33.8842 11.8062 33.8048 12.1746 33.6459L13.1569 33.2269C13.612 33.0319 14.1682 33.1547 14.4932 33.5231L15.2083 34.3176C15.7645 34.9388 16.5663 35.3 17.397 35.3C18.2493 35.3 19.0583 34.9316 19.6217 34.2887L20.3224 33.4797C20.6474 33.1041 21.1964 32.9741 21.6587 33.1619L22.6483 33.5664C23.0094 33.7109 23.385 33.7903 23.7679 33.7903C25.0897 33.7903 26.2599 32.9019 26.6066 31.6234L26.8883 30.5904C27.0183 30.1065 27.4517 29.7598 27.9573 29.7309L29.0264 29.6659C29.8715 29.6153 30.6516 29.2108 31.1717 28.5463C31.6918 27.8817 31.9012 27.0294 31.7496 26.1987L31.5545 25.1513C31.4606 24.6529 31.699 24.1545 32.1396 23.9089L33.0714 23.3889C33.8082 22.9771 34.3355 22.2693 34.5161 21.4458C34.6966 20.6224 34.5161 19.7556 34.0177 19.0766L33.3892 18.2098ZM32.7897 21.063C32.7175 21.3952 32.508 21.6697 32.2118 21.8359L31.28 22.3559C30.1749 22.9699 29.5826 24.2195 29.8137 25.4619L30.0088 26.5093C30.0738 26.8488 29.9871 27.1811 29.7776 27.4483C29.5681 27.7156 29.2648 27.8745 28.918 27.8962L27.8562 27.9612C26.5922 28.0334 25.5159 28.9002 25.1836 30.1209L24.9019 31.1466C24.7647 31.6595 24.2952 32.0134 23.7679 32.0134C23.6162 32.0134 23.4645 31.9845 23.32 31.9267L22.3304 31.5222C21.9693 31.3778 21.5937 31.2983 21.2108 31.2983C20.3585 31.2983 19.5495 31.6667 18.9861 32.3096L18.2854 33.1113C18.0615 33.3714 17.7437 33.5158 17.397 33.5158C17.0575 33.5158 16.7469 33.3786 16.523 33.1258L15.8079 32.3312C15.2517 31.71 14.4499 31.3489 13.612 31.3489C13.2075 31.3489 12.8174 31.4283 12.449 31.5872L11.4667 32.0062C11.315 32.0712 11.1633 32.1001 11.0044 32.1001C10.4843 32.1001 10.022 31.7534 9.87757 31.255L9.58142 30.2293C9.22748 29.0158 8.144 28.1634 6.87993 28.1056L5.81089 28.0623C5.4714 28.0479 5.1608 27.8962 4.95132 27.6289C4.73463 27.3616 4.64795 27.0294 4.70573 26.6971L4.88631 25.6425C5.09579 24.3929 4.48904 23.1577 3.36943 22.5582L2.43041 22.0526C2.12703 21.8936 1.91756 21.6192 1.83811 21.2869C1.75865 20.9546 1.82366 20.6151 2.02591 20.3407L2.63989 19.4666C3.36943 18.4337 3.36221 17.0541 2.61099 16.0284L1.98257 15.1688C1.78032 14.8943 1.70809 14.5548 1.78754 14.2226C1.85977 13.8903 2.06925 13.6158 2.3654 13.4497L3.2972 12.9296C4.40236 12.3156 4.99466 11.066 4.76352 9.82361L4.57571 8.78346C4.5107 8.44397 4.59738 8.1117 4.80686 7.84444C5.01633 7.57718 5.31971 7.41827 5.66642 7.3966L6.72824 7.33159C7.99231 7.25936 9.06135 6.39257 9.40084 5.17184L9.68255 4.13892C9.81979 3.62607 10.2893 3.27213 10.8166 3.27213C10.9683 3.27213 11.12 3.30102 11.2644 3.35881L12.254 3.76331C12.6152 3.90777 12.9908 3.98723 13.3736 3.98723C14.226 3.98723 15.035 3.61884 15.5984 2.97598L16.299 2.1742C16.523 1.91416 16.8408 1.76969 17.1875 1.76969C17.527 1.76969 17.8376 1.90694 18.0615 2.15975L18.7766 2.95431C19.3328 3.57551 20.1346 3.93667 20.9725 3.93667C21.377 3.93667 21.767 3.85721 22.1354 3.6983L23.1178 3.27935C23.2695 3.21434 23.4212 3.18545 23.5801 3.18545C24.1001 3.18545 24.5624 3.53217 24.7069 4.03057L25.003 5.05627C25.357 6.26977 26.4405 7.12212 27.7045 7.1799L28.7736 7.22324C29.1131 7.23769 29.4237 7.38938 29.6404 7.65664C29.8571 7.9239 29.9437 8.25617 29.886 8.58844L29.7054 9.64303C29.4959 10.8926 30.1027 12.1278 31.2223 12.7274L32.1613 13.233C32.4647 13.3919 32.6741 13.6664 32.7536 13.9986C32.833 14.3309 32.768 14.6704 32.573 14.9449L31.959 15.8189C31.2295 16.8518 31.2367 18.2315 31.9879 19.2572L32.6163 20.1167C32.7897 20.3912 32.8619 20.7307 32.7897 21.063Z" fill="#0F9D58"/>
<path d="M19.8529 14.7789L15.9813 18.6289L14.7244 17.3648C14.3777 17.0181 13.8215 17.0181 13.4748 17.3648C13.1281 17.7115 13.1281 18.2677 13.4676 18.6144L15.3529 20.5069C15.519 20.673 15.7429 20.7669 15.9813 20.7669C16.2124 20.7669 16.4363 20.673 16.6025 20.5069L21.1026 16.0357C21.4493 15.689 21.4493 15.1328 21.1098 14.7861C20.7631 14.4394 20.1997 14.4394 19.8529 14.7789Z" fill="#0F9D58"/>
</svg>
