<svg width="338" height="327" viewBox="0 0 338 327" fill="none" xmlns="http://www.w3.org/2000/svg">
<path fill-rule="evenodd" clip-rule="evenodd" d="M113 137.8C111.5 140.2 109.8 142.2 108.4 143C104.3 145.1 104.4 134.6 104.5 130.6C104.5 126.6 104.4 120.6 107.3 121C108.1 121.1 109.4 121.7 110.7 122.4C111.9 118.3 111.9 101 129.3 107.4C143.1 112.5 150.7 123.2 158.3 118.8C165.9 114.4 165.7 127.9 153.6 136.5C141.5 145 126.8 145.4 119.4 141.6C117.1 140.3 114.9 139.1 113 137.8Z" fill="white"/>
<path d="M112.4 114.5C114.2 108.8 118.2 103.2 129.3 107.3C143.1 112.4 150.7 123.1 158.3 118.7C165.9 114.3 165.7 127.8 153.6 136.4C141.5 144.9 126.8 145.3 119.4 141.5C117.1 140.3 115 139.2 113.1 137.8C111.6 140.2 109.9 142.2 108.5 143C104.4 145.1 104.5 134.6 104.6 130.6" stroke="black" stroke-width="0.9192" stroke-miterlimit="10" stroke-linecap="round" stroke-linejoin="round"/>
<path d="M104.5 128C104.6 124.4 104.9 120.5 107.2 120.9C108 121 109.3 121.6 110.6 122.3C110.9 121.1 111.2 119 111.7 116.6" stroke="black" stroke-width="0.9192" stroke-miterlimit="10" stroke-linecap="round" stroke-linejoin="round"/>
<path fill-rule="evenodd" clip-rule="evenodd" d="M21.1 180.2C21 180.3 -0.199982 221.8 51 217.7C78.3 215.5 84.1 191.9 82.6 172.7C82.5 171.6 82.4 170.5 82.3 169.5L81.7 169.2C76.9 166.4 73.5 162.8 71.7 159.2C70.1 155.9 69.8 152.5 71.1 149.5C72 147.5 73.1 146.9 74.4 147.5C76.2 148.3 78.2 151.4 79.8 156C81.1 159.7 82.2 164.2 82.9 169.3C87.4 171.8 93.1 173.5 99.6 174C112.8 174.9 129.4 170.5 147 155.9C150.7 152.9 154.6 149.8 158.7 146.8C181 130.3 208.6 114.7 233.4 106.5C303 83.5 314.2 143.1 288.7 149.1L288.6 148.5C313 142.7 302.5 84.3 233.6 107.1C208.9 115.3 181.3 130.9 159.1 147.3C155 150.3 151.1 153.4 147.4 156.4C129.7 171.1 112.9 175.5 99.5 174.6C93.1 174.2 87.5 172.5 82.9 170.1C83 171 83.1 172 83.2 172.9C84.8 192.4 78.9 216.3 51 218.5C-1.29998 222.7 20.4 180.2 20.5 180.1L21.1 180.2ZM82.2 168.7C81.5 163.9 80.5 159.5 79.2 156C77.6 151.6 75.8 148.6 74.1 147.9C73.2 147.5 72.3 148 71.6 149.6C70.4 152.4 70.7 155.7 72.2 158.8C74 162.4 77.3 165.9 82 168.6L82.2 168.7Z" fill="#7E89FD"/>
<path fill-rule="evenodd" clip-rule="evenodd" d="M154.5 134.5C154.5 134.5 148.5 147.9 144.4 150C140.3 152.1 140.4 141.6 140.5 137.6C140.5 133.6 140.4 127.6 143.3 128C146.1 128.4 154.5 134.5 154.5 134.5Z" fill="#281616"/>
<path fill-rule="evenodd" clip-rule="evenodd" d="M205.1 297.1C205.1 297.1 174.7 214.4 170.8 212.2C166.8 210 154.7 227 157.6 256.8C160.5 286.6 160.1 319.5 171.3 323.8C182.4 328.1 215.1 326.6 205.1 297.1Z" fill="#BDC5FF"/>
<path fill-rule="evenodd" clip-rule="evenodd" d="M205.1 297.1C205.1 297.1 174.7 214.4 170.8 212.2C166.8 210 154.7 227 157.6 256.8C160.5 286.6 160.1 319.5 171.3 323.8C182.4 328.1 215.1 326.6 205.1 297.1Z" stroke="black" stroke-width="0.9192" stroke-miterlimit="10" stroke-linecap="round" stroke-linejoin="round"/>
<path fill-rule="evenodd" clip-rule="evenodd" d="M118 145.1L107.9 149L100.2 195.3L131.2 204.1L133.3 163.2L118 145.1Z" fill="#FFE1DA"/>
<path fill-rule="evenodd" clip-rule="evenodd" d="M125.9 202.6L131.2 204.1L133.3 163.2L127.7 156.6L126.9 157L125.9 202.6Z" fill="#FF8685"/>
<path d="M103.5 175.3L100.2 195.3L131.2 204.1L133.3 163.2L118 145.1L107.9 149L105 166.3" stroke="black" stroke-width="0.9192" stroke-miterlimit="10" stroke-linecap="round" stroke-linejoin="round"/>
<path d="M104.5 169.4L104 172.5" stroke="black" stroke-width="0.9192" stroke-miterlimit="10" stroke-linecap="round" stroke-linejoin="round"/>
<path fill-rule="evenodd" clip-rule="evenodd" d="M150.8 122.7C149.6 125.2 148.1 179.6 130.4 177.2C112.8 174.8 104.7 150 110.4 133.7C116.2 117.4 150.8 122.7 150.8 122.7Z" fill="#FFD3CA"/>
<path fill-rule="evenodd" clip-rule="evenodd" d="M150.8 122.7C149.7 125.1 148.2 175.6 132.3 177.2C132.3 177 132.5 176.8 132.6 176.6C135.7 173.5 134.1 170.5 134 168.4C133.8 166.3 134.3 165.2 135.1 163.8C135.9 162.5 134.9 162.5 135 161.4C135.1 160.2 136.5 160.1 136.5 159.3C136.6 158.6 136.2 156.8 136.7 155.9C137.3 155.1 140.9 155.8 141.5 154.5C142.1 153.2 141.5 128.6 141.5 127.3L147.7 122.2C149.7 122.6 150.8 122.7 150.8 122.7Z" fill="#FF8685"/>
<path fill-rule="evenodd" clip-rule="evenodd" d="M150.8 122.7C150.3 123.7 149.8 132.8 148.3 143.3C137.8 147.5 126.8 146.6 120.7 143.1C116.5 140.7 112.6 138.3 110.2 134.9C110.3 134.5 110.4 134.1 110.6 133.7C116.2 117.4 150.8 122.7 150.8 122.7Z" fill="#FF8685"/>
<path d="M124.8 175.6C111.2 169.3 105.5 148.2 110.6 133.8C116.3 117.5 150.9 122.8 150.9 122.8C150.1 124.5 149.1 149.9 143.2 165.4" stroke="black" stroke-width="0.6894" stroke-miterlimit="10" stroke-linecap="round" stroke-linejoin="round"/>
<path d="M142.2 167.6C139.4 173.8 135.6 177.9 130.5 177.2C129.2 177 128 176.7 126.8 176.4" stroke="black" stroke-width="0.6894" stroke-miterlimit="10" stroke-linecap="round" stroke-linejoin="round"/>
<path fill-rule="evenodd" clip-rule="evenodd" d="M107.7 124.9C107.7 124.9 108.2 121.7 111.1 123.9C113.7 125.9 110.1 100.6 130.6 108.1C144.4 113.2 152 123.9 159.6 119.5C167.2 115.1 167 128.6 154.9 137.2C142.8 145.7 128.1 146.1 120.7 142.3C113.2 138.5 106.6 134.5 107.7 124.9Z" fill="#412F2F"/>
<path fill-rule="evenodd" clip-rule="evenodd" d="M107.7 124.9C107.7 124.9 108.2 121.7 111.1 123.9C111.5 124.2 111.7 123.9 111.9 123.2C111.9 123.1 112 123 112 122.9C121.1 91.8 148.8 146.4 164 125.8C162.8 129.4 159.8 133.7 154.8 137.2C142.7 145.7 128 146.1 120.6 142.3C113.2 138.5 106.6 134.5 107.7 124.9Z" fill="#281616"/>
<path fill-rule="evenodd" clip-rule="evenodd" d="M119.9 128.3C119.9 128.3 113.9 141.7 109.8 143.8C105.7 145.9 105.8 135.4 105.9 131.4C105.9 127.4 105.8 121.4 108.7 121.8C111.5 122.2 119.9 128.3 119.9 128.3Z" fill="#281616"/>
<path fill-rule="evenodd" clip-rule="evenodd" d="M110.5 141.4C110.5 141.4 108.6 134.7 105.4 135.5C102.2 136.3 103 150.6 106.5 152.2C110 153.9 112.6 150.1 110.5 141.4Z" fill="#FFE1DA"/>
<path fill-rule="evenodd" clip-rule="evenodd" d="M110.5 141.4C110.5 141.4 108.6 134.7 105.4 135.5C102.2 136.3 103 150.6 106.5 152.2C110 153.9 112.6 150.1 110.5 141.4Z" stroke="black" stroke-width="0.6894" stroke-miterlimit="10" stroke-linecap="round" stroke-linejoin="round"/>
<path fill-rule="evenodd" clip-rule="evenodd" d="M156.8 324.6C156.8 324.7 156.7 324.9 156.7 325H78.6C78.5 324.7 78.4 324.3 78.3 324C78.2 323.8 78.2 323.5 78.1 323.3C78.1 323.2 78 323 78 322.9C78 322.7 77.9 322.5 77.9 322.3C77.9 322.2 77.8 322.1 77.8 321.9C77.6 321.1 77.4 320.3 77.2 319.5C77.2 319.4 77.1 319.2 77.1 319.1C77.1 318.9 77 318.8 77 318.6V318.5C76.9 318.1 76.8 317.6 76.7 317.2C76.6 316.5 76.4 315.8 76.3 315.1C76.1 314 75.8 312.9 75.6 311.7C75.6 311.5 75.5 311.3 75.5 311.2C75.4 310.8 75.4 310.5 75.3 310.1C75.3 310 75.3 309.9 75.2 309.8C75.1 309.5 75.1 309.1 75 308.8C75 308.7 75 308.6 74.9 308.4C74.8 307.7 74.6 306.9 74.5 306.1C74.5 305.9 74.4 305.7 74.4 305.5C74.4 305.4 74.4 305.4 74.4 305.3C74.3 305 74.3 304.7 74.2 304.3C73.9 302.7 73.6 301.1 73.3 299.4C73.2 299 73.2 298.6 73.1 298.2C73 297.9 73 297.5 72.9 297.2C72.8 296.8 72.8 296.3 72.7 295.9C72.6 295.6 72.6 295.3 72.6 295C72.4 293.8 72.2 292.5 72 291.2C72 290.9 71.9 290.7 71.9 290.4C71.9 290.3 71.9 290.3 71.9 290.2C71.8 289.6 71.7 289 71.6 288.4C71.5 287.7 71.4 287.1 71.3 286.4C71.2 285.7 71.1 285.1 71 284.4C70.9 283.7 70.8 283 70.7 282.3C70.6 281.8 70.6 281.4 70.5 280.9C70.4 280.4 70.4 279.9 70.3 279.4C70.2 279.1 70.2 278.7 70.1 278.4C70.1 278.3 70.1 278.2 70.1 278.1C70 277.6 70 277.2 69.9 276.7C69.8 276 69.7 275.3 69.6 274.6C69.5 274.1 69.5 273.7 69.4 273.2C69.1 271.4 68.9 269.5 68.6 267.7C68.6 267.5 68.5 267.2 68.5 267C68.4 266.5 68.4 266.1 68.3 265.6C68.3 265.5 68.3 265.4 68.3 265.4C68.2 264.8 68.1 264.2 68 263.6C67.9 262.9 67.8 262.2 67.7 261.5C67.6 260.8 67.5 260.2 67.4 259.5C67.3 259 67.3 258.6 67.2 258.1C67.1 257.6 67.1 257.2 67 256.7C67 256.6 67 256.5 67 256.5C66.9 255.9 66.8 255.3 66.7 254.7C66.7 254.6 66.7 254.6 66.7 254.6C66.6 254.2 66.6 253.8 66.5 253.4C65.9 249.4 65.4 245.5 64.9 241.8C64.9 241.6 64.8 241.4 64.8 241.2C64.7 240.6 64.6 240 64.6 239.4C64.6 239.2 64.5 239 64.5 238.8C64.2 236.5 63.9 234.4 63.6 232.3C63.6 232 63.5 231.8 63.5 231.5C61.8 218.6 60.7 209.8 60.7 209.8L61.2 209.5L61.8 209.2L84.7 196.2L96.3 189.6L96.8 189.3L101.6 186.6C101.6 186.6 124.4 199 132 187.8C132 187.8 133 188.3 134.6 189.2C134.8 189.3 134.9 189.4 135.1 189.5C138.3 191.3 143.7 194.2 149.4 197.4C150.2 197.8 150.9 198.3 151.7 198.7C152 198.9 152.3 199.1 152.6 199.2C153.1 199.5 153.6 199.8 154.1 200.1C154.5 200.3 154.8 200.5 155.2 200.7C155.3 200.8 155.4 200.8 155.6 200.9C155.7 201 155.8 201 156 201.1C156.2 201.2 156.5 201.4 156.7 201.5C156.9 201.6 157.2 201.8 157.4 201.9C157.7 202.1 158.1 202.3 158.4 202.5H158.5C158.9 202.8 159.3 203 159.8 203.3C159.9 203.4 160.1 203.5 160.2 203.6C161.5 204.4 162.7 205.2 163.8 205.9C164 206 164.2 206.2 164.4 206.3C164.6 206.4 164.8 206.5 164.9 206.7C165.2 206.9 165.4 207.1 165.7 207.2C166.4 207.7 167 208.1 167.6 208.5C167.7 208.6 167.9 208.7 168 208.8C168 208.8 168.1 208.8 168.1 208.9C168.2 209 168.3 209.1 168.4 209.1C168.5 209.2 168.6 209.3 168.8 209.4C168.9 209.4 168.9 209.5 169 209.5C169.1 209.5 169.1 209.6 169.2 209.6C169.4 209.7 169.5 209.9 169.7 210C169.8 210.1 169.9 210.1 169.9 210.2C170 210.3 170 210.3 170.1 210.4L170.2 210.5C170.5 210.8 170.7 211.1 170.9 211.3C170.9 211.3 170.9 211.4 171 211.4C173.1 216.8 158.1 316 156.8 324.6Z" fill="#BDC5FF"/>
<path fill-rule="evenodd" clip-rule="evenodd" d="M126.1 192.3C128.5 191.6 130.5 190.4 132 188.2C132 188.2 149.3 197.4 160.8 204.6L126.1 192.3Z" fill="#7E89FD"/>
<path fill-rule="evenodd" clip-rule="evenodd" d="M107.3 325H78.6C78.5 324.7 78.4 324.3 78.3 324C78.2 323.8 78.2 323.6 78.1 323.3C78.1 323.2 78 323 78 322.9C78 322.7 77.9 322.5 77.9 322.3C77.9 322.2 77.8 322.1 77.8 321.9C77.6 321.1 77.4 320.3 77.2 319.5C77.2 319.4 77.1 319.2 77.1 319.1C77.1 318.9 77 318.8 77 318.6V318.5C76.9 318.1 76.8 317.6 76.7 317.2C76.6 316.5 76.4 315.8 76.3 315.1C76.1 314 75.8 312.9 75.6 311.7C75.6 311.5 75.5 311.3 75.5 311.2C75.4 310.8 75.4 310.5 75.3 310.1C75.3 310 75.3 309.9 75.2 309.8C75.1 309.5 75.1 309.1 75 308.8C75 308.7 75 308.6 74.9 308.4C74.8 307.7 74.6 306.9 74.5 306.1C74.5 305.9 74.4 305.7 74.4 305.5C74.4 305.4 74.4 305.4 74.4 305.3C74.3 305 74.3 304.7 74.2 304.3C73.9 302.7 73.6 301.1 73.3 299.4C73.2 299 73.2 298.6 73.1 298.2C73 297.9 73 297.5 72.9 297.2C72.8 296.8 72.8 296.3 72.7 295.9C72.6 295.6 72.6 295.3 72.6 295C72.4 293.8 72.2 292.5 72 291.2C72 290.9 71.9 290.7 71.9 290.4C71.9 290.3 71.9 290.3 71.9 290.2C71.8 289.6 71.7 289 71.6 288.4C71.5 287.7 71.4 287.1 71.3 286.4C71.2 285.7 71.1 285.1 71 284.4C70.9 283.7 70.8 283 70.7 282.3C70.6 281.8 70.6 281.4 70.5 280.9C70.4 280.4 70.4 279.9 70.3 279.4C70.2 279.1 70.2 278.7 70.1 278.4C70.1 278.3 70.1 278.2 70.1 278.1C70 277.6 70 277.2 69.9 276.7C69.8 276 69.7 275.3 69.6 274.6C69.5 274.1 69.5 273.7 69.4 273.2C69.1 271.4 68.9 269.5 68.6 267.7C68.6 267.5 68.5 267.2 68.5 267C68.4 266.5 68.4 266.1 68.3 265.6C68.3 265.5 68.3 265.4 68.3 265.4C68.2 264.8 68.1 264.2 68 263.6C67.9 262.9 67.8 262.2 67.7 261.5C67.6 260.8 67.5 260.2 67.4 259.5C67.3 259 67.3 258.6 67.2 258.1C67.1 257.6 67.1 257.2 67 256.7C67 256.6 67 256.5 67 256.5C66.9 255.9 66.8 255.3 66.7 254.7C66.7 254.6 66.7 254.6 66.7 254.6C66.6 254.2 66.6 253.8 66.5 253.4C65.9 249.4 65.4 245.5 64.9 241.8C64.9 241.6 64.8 241.4 64.8 241.2C64.7 240.6 64.6 240 64.6 239.4C64.6 239.2 64.5 239 64.5 238.8C64.2 236.5 63.9 234.4 63.6 232.3C63.6 232 63.5 231.8 63.5 231.5C64.8 228.1 66.1 224.8 67.5 221.6C67.5 221.6 78.8 244.6 89.5 270.7C92.2 277.3 94.9 284.2 97.4 290.9C98.5 294 99.6 297 100.6 300C103.5 309.4 106 317.8 107.3 325Z" fill="#7E89FD"/>
<path fill-rule="evenodd" clip-rule="evenodd" d="M134.6 189.5C131.3 193.7 127 195.9 126.9 196C114.4 202.2 100.8 192.9 96.7 189.7L96.2 190C100.1 193.1 114.2 203 127.2 196.5C127.2 196.5 131.7 194.2 135.1 189.8L134.6 189.5Z" fill="#7E89FD"/>
<path d="M78.6 325C78.5 324.7 78.4 324.3 78.3 324C78.2 323.8 78.2 323.6 78.1 323.3C78.1 323.2 78 323 78 322.9C78 322.7 77.9 322.5 77.9 322.3C77.9 322.2 77.8 322.1 77.8 321.9C77.6 321.1 77.4 320.3 77.2 319.5C77.2 319.4 77.1 319.2 77.1 319.1C77.1 318.9 77 318.8 77 318.6V318.5C76.9 318.1 76.8 317.6 76.7 317.2C76.6 316.5 76.4 315.8 76.3 315.1C76.1 314 75.8 312.9 75.6 311.7C75.6 311.5 75.5 311.3 75.5 311.2C75.4 310.8 75.4 310.5 75.3 310.1C75.3 310 75.3 309.9 75.2 309.8C75.1 309.5 75.1 309.1 75 308.8C75 308.7 75 308.7 75 308.6C75 308.5 75 308.5 75 308.4C74.9 307.7 74.7 306.9 74.6 306.1C74.6 305.9 74.5 305.7 74.5 305.5C74.5 305.4 74.5 305.4 74.5 305.3C74.4 305 74.4 304.7 74.3 304.3C74 302.7 73.7 301.1 73.4 299.4C73.3 299 73.3 298.6 73.2 298.2C73.1 297.9 73.1 297.5 73 297.2C72.9 296.8 72.9 296.3 72.8 295.9C72.7 295.6 72.7 295.3 72.7 295C72.5 293.8 72.3 292.5 72.1 291.2C72.1 290.9 72 290.7 72 290.4C72 290.3 72 290.3 72 290.2C71.9 289.6 71.8 289 71.7 288.4C71.6 287.7 71.5 287.1 71.4 286.4C71.3 285.7 71.2 285.1 71.1 284.4C71 283.7 70.9 283 70.8 282.3C70.7 281.8 70.7 281.4 70.6 280.9C70.5 280.4 70.5 279.9 70.4 279.4C70.3 279.1 70.3 278.7 70.2 278.4C70.2 278.3 70.2 278.2 70.2 278.1C70.1 277.6 70.1 277.2 70 276.7C69.9 276 69.8 275.3 69.7 274.6C69.6 274.1 69.6 273.7 69.5 273.2C69.2 271.4 69 269.5 68.7 267.7C68.7 267.5 68.6 267.2 68.6 267C68.5 266.5 68.5 266.1 68.4 265.6C68.4 265.5 68.4 265.4 68.4 265.4C68.3 264.8 68.2 264.2 68.1 263.6C68 262.9 67.9 262.2 67.8 261.5C67.7 260.8 67.6 260.2 67.5 259.5C67.4 259 67.4 258.6 67.3 258.1C67.2 257.6 67.2 257.2 67.1 256.7C67.1 256.6 67.1 256.5 67.1 256.5C67 255.9 66.9 255.3 66.8 254.7C66.8 254.6 66.8 254.6 66.8 254.6C66.7 254.2 66.7 253.8 66.6 253.4C66 249.4 65.5 245.5 65 241.8C65 241.6 64.9 241.4 64.9 241.2C64.8 240.6 64.7 240 64.7 239.4C64.7 239.2 64.6 239 64.6 238.8C64.3 236.5 64 234.4 63.7 232.3C63.7 232 63.6 231.8 63.6 231.5C61.9 218.6 60.8 209.8 60.8 209.8L61.3 209.5L61.9 209.2L84.8 196.2" stroke="black" stroke-width="0.9192" stroke-miterlimit="10" stroke-linecap="round" stroke-linejoin="round"/>
<path d="M156.7 325C156.7 324.9 156.8 324.8 156.8 324.6C158.1 316 173.1 216.8 170.7 212.2C170.7 212.2 170.7 212.1 170.6 212.1C170.5 211.9 170.2 211.6 169.9 211.3L169.8 211.2C169.7 211.1 169.7 211.1 169.6 211C169.5 210.9 169.5 210.9 169.4 210.8C169.3 210.7 169.1 210.5 168.9 210.4C168.8 210.4 168.8 210.3 168.7 210.3C168.6 210.3 168.6 210.2 168.5 210.2C168.4 210.1 168.3 210 168.1 209.9C168 209.8 167.9 209.7 167.8 209.7C167.8 209.7 167.7 209.7 167.7 209.6C167.6 209.5 167.4 209.4 167.3 209.3C166.7 208.9 166.1 208.4 165.4 208C165.1 207.8 164.9 207.6 164.6 207.5C164.4 207.4 164.2 207.3 164.1 207.1C163.9 207 163.7 206.8 163.5 206.7C162.4 206 161.2 205.2 159.9 204.4C159.8 204.3 159.6 204.2 159.5 204.1C159.1 203.8 158.7 203.6 158.2 203.3H158.1C157.8 203.1 157.4 202.9 157.1 202.7C156.9 202.6 156.6 202.4 156.4 202.3C156.2 202.2 155.9 202 155.7 201.9C155.6 201.8 155.5 201.8 155.3 201.7C155.2 201.6 155.1 201.6 154.9 201.5C154.5 201.3 154.2 201.1 153.8 200.9C153.3 200.6 152.8 200.3 152.3 200C152 199.8 151.7 199.6 151.4 199.5C150.6 199.1 149.9 198.6 149.1 198.2" stroke="black" stroke-width="0.9192" stroke-miterlimit="10" stroke-linecap="round" stroke-linejoin="round"/>
<path d="M143.4 194.4C144.3 194.9 145.1 195.4 146 195.9" stroke="black" stroke-width="0.9192" stroke-miterlimit="10" stroke-linecap="round" stroke-linejoin="round"/>
<path d="M90.2 193.4L96.2 190L96.7 189.7L101.5 187C101.5 187 124.3 199.4 131.9 188.2C131.9 188.2 132.9 188.7 134.5 189.6C134.7 189.7 134.8 189.8 135 189.9C136.5 190.7 138.5 191.8 140.8 193.1" stroke="black" stroke-width="0.9192" stroke-miterlimit="10" stroke-linecap="round" stroke-linejoin="round"/>
<path d="M86.4 195.6L88 194.6" stroke="black" stroke-width="0.9192" stroke-miterlimit="10" stroke-linecap="round" stroke-linejoin="round"/>
<path fill-rule="evenodd" clip-rule="evenodd" d="M168.6 236.7C168.5 247.6 163.1 286.6 159 315.2C147.4 316.4 145.8 320.1 113.1 320.5C61.8 321.3 118.8 261.8 123.9 257.2C129.1 252.6 103.1 275.4 106.7 270.8C110.3 266.2 140.8 246.7 140.8 246.7C153.3 245.4 160.5 233.3 168.6 236.7Z" fill="#7E89FD"/>
<path fill-rule="evenodd" clip-rule="evenodd" d="M26.3 295.1C26.3 295.1 56.7 212.4 60.6 210.2C64.6 208 76.8 225 73.8 254.8C70.9 284.6 71.3 317.5 60.1 321.8C49 326.1 16.2 324.6 26.3 295.1Z" fill="#BDC5FF"/>
<path fill-rule="evenodd" clip-rule="evenodd" d="M40.4 257.5C43.3 249.8 46.4 241.9 49.3 234.8C51.6 234.1 54 234.1 56.2 235C62.2 237.4 64.7 245.4 61.7 252.8C58.7 260.2 51.4 264.2 45.4 261.8C43.2 261 41.6 259.5 40.4 257.5Z" fill="#7E89FD"/>
<path d="M74.2 250.7C74.1 252 74 253.4 73.9 254.8C71 284.6 71.4 317.5 60.2 321.8C49 326.1 16.2 324.7 26.3 295.1C26.3 295.1 31.4 281.3 37.6 264.9" stroke="black" stroke-width="0.9192" stroke-miterlimit="10" stroke-linecap="round" stroke-linejoin="round"/>
<path d="M72 226.9C73.5 232.5 74.5 239.5 74.3 247.6" stroke="black" stroke-width="0.9192" stroke-miterlimit="10" stroke-linecap="round" stroke-linejoin="round"/>
<path d="M56.8 217.1C58.6 213.1 60 210.5 60.7 210.2C63 208.9 67.9 213.9 71.2 224" stroke="black" stroke-width="0.9192" stroke-miterlimit="10" stroke-linecap="round" stroke-linejoin="round"/>
<path d="M39.1 261.1C44.7 246.3 51.1 230.2 55.5 220.1" stroke="black" stroke-width="0.9192" stroke-miterlimit="10" stroke-linecap="round" stroke-linejoin="round"/>
<path d="M248.4 201.4H246.5V241.2H248.4V201.4Z" fill="#C49A6C"/>
<path d="M248.3 231V241.3H245.6V201.4H248.3V228.7" stroke="black" stroke-width="0.8749" stroke-miterlimit="10" stroke-linecap="round" stroke-linejoin="round"/>
<path d="M290.9 255.4H168.5V325.6H290.9V255.4Z" fill="#F4F5F5"/>
<path d="M235.4 325.6H212.4" stroke="black" stroke-width="0.8749" stroke-miterlimit="10" stroke-linecap="round" stroke-linejoin="round"/>
<path d="M210.3 325.6H168.5V255.4H290.9V325.6H237.5" stroke="black" stroke-width="0.8749" stroke-miterlimit="10" stroke-linecap="round" stroke-linejoin="round"/>
<path d="M165.3 269.7L169.4 249.1H290.9L294.8 269.7" fill="#FBB040"/>
<path d="M290.9 249.1C290.9 249.1 294.3 269.3 281.6 269.8H294.8L290.9 249.1Z" fill="#E59C3C"/>
<path d="M293.4 262.8L294.8 269.7" stroke="black" stroke-width="0.8749" stroke-miterlimit="10" stroke-linecap="round" stroke-linejoin="round"/>
<path d="M177 249.1H290.9L293.1 261.1" stroke="black" stroke-width="0.8749" stroke-miterlimit="10" stroke-linecap="round" stroke-linejoin="round"/>
<path d="M167.7 257.7L169.4 249.1H173.4" stroke="black" stroke-width="0.8749" stroke-miterlimit="10" stroke-linecap="round" stroke-linejoin="round"/>
<path d="M165.3 269.7L167 261.4" stroke="black" stroke-width="0.8749" stroke-miterlimit="10" stroke-linecap="round" stroke-linejoin="round"/>
<path d="M184.7 249.5C184.7 249.5 180.9 269.3 168.2 269.8H181.1L184.7 249.5Z" fill="#E59C3C"/>
<path d="M199.2 249.1C199.2 249.1 197.2 269.3 184.4 269.8H197.3L199.2 249.1Z" fill="#E59C3C"/>
<path d="M215.1 249.1C215.1 249.1 213.1 269.3 200.3 269.8H213.8L215.1 249.1Z" fill="#E59C3C"/>
<path d="M230 249.1C230 249.1 228 269.3 215.2 269.8H230.1L230 249.1Z" fill="#E59C3C"/>
<path d="M244.7 249.1C244.7 249.1 244.5 269.3 231.8 269.8H245.8L244.7 249.1Z" fill="#E59C3C"/>
<path d="M259.6 249.1C259.6 249.1 262.2 269.3 249.5 269.8H262.7L259.6 249.1Z" fill="#E59C3C"/>
<path d="M274.9 249.1C274.9 249.1 278 269.3 265.3 269.8H278.5L274.9 249.1Z" fill="#E59C3C"/>
<path d="M184.8 249.1L181.9 267.1" stroke="black" stroke-width="0.8749" stroke-miterlimit="10" stroke-linecap="round" stroke-linejoin="round"/>
<path d="M275.1 250.1L274.9 249.1" stroke="black" stroke-width="0.8749" stroke-miterlimit="10" stroke-linecap="round" stroke-linejoin="round"/>
<path d="M275.7 253.2L275.4 251.5" stroke="black" stroke-width="0.8749" stroke-miterlimit="10" stroke-linecap="round" stroke-linejoin="round"/>
<path d="M278.6 269.7L276 255.1" stroke="black" stroke-width="0.8749" stroke-miterlimit="10" stroke-linecap="round" stroke-linejoin="round"/>
<path d="M261.3 260.7L259.9 249.1" stroke="black" stroke-width="0.8749" stroke-miterlimit="10" stroke-linecap="round" stroke-linejoin="round"/>
<path d="M262.4 269.7L261.5 262.4" stroke="black" stroke-width="0.8749" stroke-miterlimit="10" stroke-linecap="round" stroke-linejoin="round"/>
<path d="M245.4 256.8L245 249.1" stroke="black" stroke-width="0.8749" stroke-miterlimit="10" stroke-linecap="round" stroke-linejoin="round"/>
<path d="M245.7 261.6L245.6 258.9" stroke="black" stroke-width="0.8749" stroke-miterlimit="10" stroke-linecap="round" stroke-linejoin="round"/>
<path d="M246.2 269.7L245.8 263.1" stroke="black" stroke-width="0.8749" stroke-miterlimit="10" stroke-linecap="round" stroke-linejoin="round"/>
<path d="M230 269.7V249.1" stroke="black" stroke-width="0.8749" stroke-miterlimit="10" stroke-linecap="round" stroke-linejoin="round"/>
<path d="M214.8 253.4L215.1 249.1" stroke="black" stroke-width="0.8749" stroke-miterlimit="10" stroke-linecap="round" stroke-linejoin="round"/>
<path d="M213.9 269.7L214.7 255.9" stroke="black" stroke-width="0.8749" stroke-miterlimit="10" stroke-linecap="round" stroke-linejoin="round"/>
<path d="M198.3 261.6L199.2 249.1" stroke="black" stroke-width="0.8749" stroke-miterlimit="10" stroke-linecap="round" stroke-linejoin="round"/>
<path d="M197.7 269.7L198.1 263.9" stroke="black" stroke-width="0.8749" stroke-miterlimit="10" stroke-linecap="round" stroke-linejoin="round"/>
<path d="M282.7 279.3H255.9V325.6H282.7V279.3Z" fill="#52D2FF"/>
<path opacity="0.5" d="M278.3 325.6H272.7L255.9 298.6V289.2L278.3 325.6Z" fill="white"/>
<path opacity="0.5" d="M282.7 309.3V319.4L257.7 279.3H264.2L282.7 309.3Z" fill="white"/>
<path d="M255.9 312.2V279.3H282.7V295.8" stroke="black" stroke-width="0.8541" stroke-miterlimit="10" stroke-linecap="round" stroke-linejoin="round"/>
<path d="M282.7 298.2V325.6H255.9V313.9" stroke="black" stroke-width="0.8541" stroke-miterlimit="10" stroke-linecap="round" stroke-linejoin="round"/>
<path d="M243.2 273H181.5V318.4H243.2V273Z" fill="#CCF2FF"/>
<path d="M243.2 292.5V318.5H181.5V273H243.2V289.6" stroke="black" stroke-width="0.9159" stroke-miterlimit="10" stroke-linecap="round" stroke-linejoin="round"/>
<path d="M243.2 298.7H181.5V318.5H243.2V298.7Z" fill="#FF9966"/>
<path d="M215.6 298.7H243.2V318.5H201" stroke="black" stroke-width="0.8749" stroke-miterlimit="10" stroke-linecap="round" stroke-linejoin="round"/>
<path d="M197.4 318.5H181.5V298.7H212.4" stroke="black" stroke-width="0.8749" stroke-miterlimit="10" stroke-linecap="round" stroke-linejoin="round"/>
<path d="M204.8 289.6H181.5V298.7H204.8V289.6Z" fill="#F4F5F5"/>
<path d="M204.8 289.6H181.5V298.7H204.8V289.6Z" stroke="black" stroke-width="0.8749" stroke-miterlimit="10" stroke-linecap="round" stroke-linejoin="round"/>
<path d="M180.1 295L182.3 325.1H177" fill="#F7941D"/>
<path d="M152.4 326.3H176.8L180.1 295H155.3L152.4 326.3Z" fill="white"/>
<path d="M179.4 301.3L180.1 295H155.3L154.2 306.5" stroke="#1C1C1C" stroke-width="0.8749" stroke-miterlimit="10" stroke-linecap="round" stroke-linejoin="round"/>
<path d="M178 314.5L179.2 303.5" stroke="#1C1C1C" stroke-width="0.8749" stroke-miterlimit="10" stroke-linecap="round" stroke-linejoin="round"/>
<path d="M152.8 321.4L152.4 325.6H176.8L177.9 316.1" stroke="#1C1C1C" stroke-width="0.8749" stroke-miterlimit="10" stroke-linecap="round" stroke-linejoin="round"/>
<path d="M154.1 308.1L153 319.4" stroke="#1C1C1C" stroke-width="0.8749" stroke-miterlimit="10" stroke-linecap="round" stroke-linejoin="round"/>
<path d="M180.1 295L182.3 325.1H177" stroke="#1C1C1C" stroke-width="0.8749" stroke-miterlimit="10"/>
<path d="M173.4 280.9C168.9 280.9 165.3 277.3 165.3 272.8V269.8H181.5V272.8C181.5 277.2 177.9 280.9 173.4 280.9Z" fill="#CC4825"/>
<path d="M189.6 280.9C185.1 280.9 181.5 277.3 181.5 272.8V269.8H197.7V272.8C197.7 277.2 194.1 280.9 189.6 280.9Z" fill="#CC4825"/>
<path d="M205.8 280.9C201.3 280.9 197.7 277.3 197.7 272.8V269.8H213.9V272.8C213.9 277.2 210.2 280.9 205.8 280.9Z" fill="#CC4825"/>
<path d="M221.9 280.9C217.4 280.9 213.8 277.3 213.8 272.8V269.8H230V272.8C230 277.2 226.4 280.9 221.9 280.9Z" fill="#CC4825"/>
<path d="M238.1 280.9C233.6 280.9 230 277.3 230 272.8V269.8H246.2V272.8C246.2 277.2 242.6 280.9 238.1 280.9Z" fill="#CC4825"/>
<path d="M254.3 280.9C249.8 280.9 246.2 277.3 246.2 272.8V269.8H262.4V272.8C262.4 277.2 258.8 280.9 254.3 280.9Z" fill="#CC4825"/>
<path d="M270.5 280.9C266 280.9 262.4 277.3 262.4 272.8V269.8H278.6V272.8C278.6 277.2 275 280.9 270.5 280.9Z" fill="#CC4825"/>
<path d="M286.7 280.9C282.2 280.9 278.6 277.3 278.6 272.8V269.8H294.8V272.8C294.8 277.2 291.1 280.9 286.7 280.9Z" fill="#CC4825"/>
<path d="M181.1 271.7V274.2C181.1 277.6 178.3 280.4 174.9 280.4H173.6C170.2 280.4 167.4 277.6 167.4 274.2V271.7H181.1Z" fill="#F15A29"/>
<path d="M181.1 271.7V274.2C181.1 277.6 178.3 280.4 174.9 280.4H173.8C178.5 277.6 179.3 273.4 179.5 271.6H181.1V271.7Z" fill="white"/>
<path d="M197.4 271.7V274.5C197.4 278 194.6 280.9 191 280.9H190.2C190 280.9 189.8 280.9 189.6 280.9C186.4 280.6 183.8 277.9 183.8 274.6V271.8H197.4V271.7Z" fill="#F15A29"/>
<path d="M197.4 271.7V274.5C197.4 278 194.6 280.9 191 280.9H190.2C190 280.9 189.8 280.9 189.6 280.9C194.8 278.2 195.7 273.7 195.9 271.8H197.4V271.7Z" fill="white"/>
<path d="M213.5 271.7V274.3C213.5 277.9 210.6 280.9 206.9 280.9H205.6C202 280.9 199.1 277.9 199.1 274.3V271.7H213.5Z" fill="#F15A29"/>
<path d="M213.5 271.7V274.3C213.5 277.9 210.6 280.9 206.9 280.9H205.6C210.8 278.2 211.8 273.7 211.9 271.8H213.5V271.7Z" fill="white"/>
<path d="M229.7 271.7V274.4C229.7 278 226.8 280.8 223.3 280.8H222.1C218.5 280.8 215.7 277.9 215.7 274.4V271.7H229.7Z" fill="#F15A29"/>
<path d="M229.7 271.7V274.4C229.7 278 226.8 280.8 223.3 280.8H222.4C227.6 278.1 228.6 273.6 228.7 271.7H229.7Z" fill="white"/>
<path d="M245.9 271.7V274.4C245.9 278 243 280.9 239.4 280.9H238.2C238.1 280.9 238.1 280.9 238 280.9C234.5 280.8 231.7 277.9 231.7 274.4V271.7H245.9Z" fill="#F15A29"/>
<path d="M245.9 271.7V274.4C245.9 278 243 280.9 239.4 280.9H238.2C238.1 280.9 238.1 280.9 238 280.9C243.2 278.2 244.2 273.7 244.3 271.8H245.9V271.7Z" fill="white"/>
<path d="M261.9 271.7V274.6C261.9 278 259.1 280.8 255.7 280.8H254.6C254.5 280.8 254.3 280.8 254.2 280.8C251 280.6 248.4 277.9 248.4 274.6V271.7H261.9Z" fill="#F15A29"/>
<path d="M261.9 271.7V274.6C261.9 278 259.1 280.8 255.7 280.8H254.6C254.5 280.8 254.3 280.8 254.2 280.8C259.4 278.1 260.3 273.6 260.5 271.7H261.9Z" fill="white"/>
<path d="M278.1 271.7V274.6C278.1 278 275.3 280.8 271.9 280.8H270.9C267.5 280.8 264.7 278 264.7 274.6V271.7H278.1Z" fill="#F15A29"/>
<path d="M278.1 271.7V274.6C278.1 278 275.3 280.8 271.9 280.8H270.9C276.1 278.1 277.1 273.6 277.2 271.7H278.1Z" fill="white"/>
<path d="M294.5 271.7V274.5C294.5 278 291.7 280.8 288.2 280.8H287C283.5 280.8 280.7 278 280.7 274.5V271.7H294.5Z" fill="#F15A29"/>
<path d="M294.5 271.7V274.5C294.5 278 291.7 280.8 288.2 280.8H287.3C292.5 278.1 293.5 273.6 293.6 271.7H294.5Z" fill="white"/>
<path d="M177 280C175.9 280.5 174.7 280.8 173.4 280.8C168.9 280.8 165.3 277.2 165.3 272.7V269.7H181.5V272.7C181.5 275.1 180.4 277.3 178.7 278.8" stroke="black" stroke-width="0.8749" stroke-miterlimit="10" stroke-linecap="round" stroke-linejoin="round"/>
<path d="M193.2 280C192.1 280.5 190.9 280.8 189.6 280.8C185.1 280.8 181.5 277.2 181.5 272.7V269.7H197.7V272.7C197.7 274.5 197.1 276.1 196.2 277.4" stroke="black" stroke-width="0.8749" stroke-miterlimit="10" stroke-linecap="round" stroke-linejoin="round"/>
<path d="M204.8 280.8C200.8 280.3 197.6 276.9 197.6 272.8V269.8H213.8V272.8C213.8 276.9 210.8 280.2 206.9 280.8" stroke="black" stroke-width="0.8749" stroke-miterlimit="10" stroke-linecap="round" stroke-linejoin="round"/>
<path d="M226.5 279.5C225.2 280.4 223.6 280.9 222 280.9C217.5 280.9 213.9 277.3 213.9 272.8V269.8H230.1V272.8C230.1 274.7 229.4 276.5 228.3 277.9" stroke="black" stroke-width="0.8749" stroke-miterlimit="10" stroke-linecap="round" stroke-linejoin="round"/>
<path d="M243.4 278.9C242 280.1 240.1 280.8 238.1 280.8C233.6 280.8 230 277.2 230 272.7V269.7H246.2V272.7C246.2 274.5 245.6 276.1 244.7 277.4" stroke="black" stroke-width="0.8749" stroke-miterlimit="10" stroke-linecap="round" stroke-linejoin="round"/>
<path d="M248.7 278.6C247.2 277.1 246.2 275.1 246.2 272.8V269.8H262.4V272.8C262.4 277.3 258.8 280.9 254.3 280.9C252.7 280.9 251.2 280.4 250 279.6" stroke="black" stroke-width="0.8749" stroke-miterlimit="10" stroke-linecap="round" stroke-linejoin="round"/>
<path d="M270.8 269.7H278.5V272.7C278.5 277.2 274.9 280.8 270.4 280.8C265.9 280.8 262.3 277.2 262.3 272.7V269.7H268.4" stroke="black" stroke-width="0.8749" stroke-miterlimit="10" stroke-linecap="round" stroke-linejoin="round"/>
<path d="M289.8 280.3C288.8 280.7 287.8 280.9 286.7 280.9C282.2 280.9 278.6 277.3 278.6 272.8V269.8H294.8V272.8C294.8 274 294.5 275.1 294.1 276.1" stroke="black" stroke-width="0.8749" stroke-miterlimit="10" stroke-linecap="round" stroke-linejoin="round"/>
<path d="M292.2 278.6C291.8 278.9 291.4 279.3 291 279.5" stroke="black" stroke-width="0.8749" stroke-miterlimit="10" stroke-linecap="round" stroke-linejoin="round"/>
<path d="M174.2 302.2H160.5V304.2H174.2V302.2Z" fill="#0F9D58"/>
<path d="M173.3 308.1H159.6V310.2H173.3V308.1Z" fill="#0F9D58"/>
<path d="M172.5 314H158.8V316.1H172.5V314Z" fill="#0F9D58"/>
<path d="M171.9 320H158.2V322.2H171.9V320Z" fill="#0F9D58"/>
<path d="M167.5 304H159.2V301.3H174.1V304H170.2" stroke="#1C1C1C" stroke-width="0.8749" stroke-miterlimit="10" stroke-linecap="round" stroke-linejoin="round"/>
<path d="M160.5 309.9H158.3V307.2H173.2V309.9H162.1" stroke="#1C1C1C" stroke-width="0.8749" stroke-miterlimit="10" stroke-linecap="round" stroke-linejoin="round"/>
<path d="M164.4 315.9H157.5V313.2H172.5V315.9H166.2" stroke="#1C1C1C" stroke-width="0.8749" stroke-miterlimit="10" stroke-linecap="round" stroke-linejoin="round"/>
<path d="M161.6 319.1H171.9V321.8H156.9V319.1H159.6" stroke="#1C1C1C" stroke-width="0.8749" stroke-miterlimit="10" stroke-linecap="round" stroke-linejoin="round"/>
<path d="M201.9 292.5H192V295.1H201.9V292.5Z" fill="#0F9D58"/>
<path d="M258 300.2V307.4" stroke="black" stroke-width="0.8541" stroke-miterlimit="10" stroke-linecap="round" stroke-linejoin="round"/>
<path d="M221.1 298.2H220.2C218.8 298.2 217.7 297.1 217.7 295.7V294.5H223.6V295.7C223.6 297.1 222.4 298.2 221.1 298.2Z" fill="#FFD2A6"/>
<path d="M221.1 298.2H220.2C218.8 298.2 217.7 297.1 217.7 295.7V294.5H223.6V295.7C223.6 297.1 222.4 298.2 221.1 298.2Z" stroke="black" stroke-width="0.6562" stroke-miterlimit="10" stroke-linecap="round" stroke-linejoin="round"/>
<path d="M223.1 297.4H224.2C224.7 297.4 225.1 296.9 225.1 296.4V296.1C225.1 295.5 224.7 295.1 224.2 295.1H223.5V296.3L223.1 297.4Z" stroke="black" stroke-width="0.4817" stroke-miterlimit="10" stroke-linecap="round" stroke-linejoin="round"/>
<path d="M247.2 187C236.9 187 228.5 195.4 228.5 205.7V206.5H266V205.7C265.9 195.4 257.5 187 247.2 187Z" fill="#52D2FF"/>
<path d="M237.8 189.5C235.9 190.6 234.2 192.1 232.8 193.8" stroke="black" stroke-width="0.8749" stroke-miterlimit="10" stroke-linecap="round" stroke-linejoin="round"/>
<path d="M259.5 191.6C256.2 188.7 251.9 187 247.2 187C244.3 187 241.6 187.7 239.1 188.8" stroke="black" stroke-width="0.8749" stroke-miterlimit="10" stroke-linecap="round" stroke-linejoin="round"/>
<path d="M256.1 206.5H266V205.7C266 200.8 264.1 196.4 261.1 193.1" stroke="black" stroke-width="0.8749" stroke-miterlimit="10" stroke-linecap="round" stroke-linejoin="round"/>
<path d="M245.6 187.5C245.6 187.5 235.2 195.3 235.7 206.3H233.7C233.6 206.3 234.3 193.2 245.6 187.5Z" fill="white"/>
<path d="M246.1 188.3C246.1 188.3 242.1 195.3 242.2 205.9L242 206.2L241 206.3C241 206.3 240.9 193.9 246.1 188.3Z" fill="white"/>
<path d="M231.5 195.5C229.6 198.4 228.5 202 228.5 205.7V206.5H254.3" stroke="black" stroke-width="0.8749" stroke-miterlimit="10" stroke-linecap="round" stroke-linejoin="round"/>
<path d="M263.3 222.3H232.8V225.6H263.3V222.3Z" fill="#F15A29"/>
<path d="M242 225.6H239.7V241.3H242V225.6Z" fill="#F15A29"/>
<path d="M254.3 225.6H252V241.3H254.3V225.6Z" fill="#F15A29"/>
<path d="M239.6 222.3H253.7" stroke="black" stroke-width="0.8749" stroke-miterlimit="10" stroke-linecap="round" stroke-linejoin="round"/>
<path d="M256 222.3H263.3V225.6H231.6V222.3H237.5" stroke="black" stroke-width="0.8749" stroke-miterlimit="10" stroke-linecap="round" stroke-linejoin="round"/>
<path d="M242 225.6H239.7V241.3H242V225.6Z" stroke="black" stroke-width="0.8749" stroke-miterlimit="10" stroke-linecap="round" stroke-linejoin="round"/>
<path d="M254.3 225.6H252V241.3H254.3V225.6Z" stroke="black" stroke-width="0.8749" stroke-miterlimit="10" stroke-linecap="round" stroke-linejoin="round"/>
<path d="M219.1 211.6H217.2V230H219.1V211.6Z" fill="#145374"/>
<path d="M217.2 213V211.6H219.2V219.1V220.8V230H217.2V226.7V224.5V214.7" stroke="black" stroke-width="0.8749" stroke-miterlimit="10" stroke-linecap="round" stroke-linejoin="round"/>
<path d="M231.189 229.903V228.003H217.189V229.903H231.189Z" fill="#145374"/>
<path d="M222.6 230H217.2V228H226" stroke="black" stroke-width="0.8749" stroke-miterlimit="10" stroke-linecap="round" stroke-linejoin="round"/>
<path d="M228.9 228H231.2V230H224.5" stroke="black" stroke-width="0.8749" stroke-miterlimit="10" stroke-linecap="round" stroke-linejoin="round"/>
<path d="M218.2 230L229.5 241.3" stroke="black" stroke-width="0.8749" stroke-miterlimit="10" stroke-linecap="round" stroke-linejoin="round"/>
<path d="M229.9 230L218.2 241.3" stroke="black" stroke-width="0.8749" stroke-miterlimit="10" stroke-linecap="round" stroke-linejoin="round"/>
<path d="M275.861 229.972L277.761 229.972L277.761 211.572L275.861 211.572L275.861 229.972Z" fill="#145374"/>
<path d="M275.9 217V211.6H277.8V213.1V214.3V223.4" stroke="black" stroke-width="0.8749" stroke-miterlimit="10" stroke-linecap="round" stroke-linejoin="round"/>
<path d="M275.9 219.6V230H277.8V225.6" stroke="black" stroke-width="0.8749" stroke-miterlimit="10" stroke-linecap="round" stroke-linejoin="round"/>
<path d="M277.81 229.882L277.81 227.982L263.81 227.982L263.81 229.882L277.81 229.882Z" fill="#145374"/>
<path d="M265.5 228H263.8V230H271.2H273.5H277.8V228H267.5" stroke="black" stroke-width="0.8749" stroke-miterlimit="10" stroke-linecap="round" stroke-linejoin="round"/>
<path d="M276.8 230L265.5 241.3" stroke="black" stroke-width="0.8749" stroke-miterlimit="10" stroke-linecap="round" stroke-linejoin="round"/>
<path d="M265.1 230L276.8 241.3" stroke="black" stroke-width="0.8749" stroke-miterlimit="10" stroke-linecap="round" stroke-linejoin="round"/>
<path d="M236.2 201.7C235.9 203.2 235.7 204.8 235.7 206.5" stroke="black" stroke-width="0.8749" stroke-miterlimit="10" stroke-linecap="round" stroke-linejoin="round"/>
<path d="M247.2 187C247.2 187 239.3 191 236.6 200.2" stroke="black" stroke-width="0.8749" stroke-miterlimit="10" stroke-linecap="round" stroke-linejoin="round"/>
<path d="M243.4 195.5C242.7 198.4 242.1 202 242.1 206.5" stroke="black" stroke-width="0.8749" stroke-miterlimit="10" stroke-linecap="round" stroke-linejoin="round"/>
<path d="M247.2 187C247.2 187 245.5 189 244 193.5" stroke="black" stroke-width="0.8749" stroke-miterlimit="10" stroke-linecap="round" stroke-linejoin="round"/>
<path d="M251.9 202.2C252 203.5 252.1 205 252.1 206.5" stroke="black" stroke-width="0.8749" stroke-miterlimit="10" stroke-linecap="round" stroke-linejoin="round"/>
<path d="M251.1 197.1C251.3 198.3 251.5 199.6 251.7 201" stroke="black" stroke-width="0.8749" stroke-miterlimit="10" stroke-linecap="round" stroke-linejoin="round"/>
<path d="M247 187C247 187 249.3 189.7 250.8 195.6" stroke="black" stroke-width="0.8749" stroke-miterlimit="10" stroke-linecap="round" stroke-linejoin="round"/>
<path d="M247 187C247 187 258.5 192.8 258.5 206.5" stroke="black" stroke-width="0.8749" stroke-miterlimit="10" stroke-linecap="round" stroke-linejoin="round"/>
<path d="M168.2 225.6V241.2" stroke="#1C1C1C" stroke-width="0.8749" stroke-miterlimit="10" stroke-linecap="round" stroke-linejoin="round"/>
<path d="M289.4 225.6V241.2" stroke="#1C1C1C" stroke-width="0.8749" stroke-miterlimit="10" stroke-linecap="round" stroke-linejoin="round"/>
<path d="M173.8 249.1H164.6V241.2H294.8V249.1H176.4" fill="#FF9966"/>
<path d="M166.4 249.1L169.1 243.8H294.3L294.8 241.2H164.6V249.1H166.4Z" fill="#E5825C"/>
<path d="M195.3 241.2H294.8V249.1H164.6V241.2H184.8" stroke="black" stroke-width="0.8749" stroke-miterlimit="10" stroke-linecap="round" stroke-linejoin="round"/>
<path d="M188.8 241.2H193.5" stroke="black" stroke-width="0.8749" stroke-miterlimit="10" stroke-linecap="round" stroke-linejoin="round"/>
<path fill-rule="evenodd" clip-rule="evenodd" d="M142.6 257.4C142 258.3 141.1 259.3 140.1 260.4L140 260.5C139.9 260.6 139.7 260.8 139.6 260.9C139.5 261 139.3 261.2 139.2 261.3C139.1 261.4 138.9 261.6 138.8 261.7C138.6 261.9 138.4 262.1 138.1 262.4C137.9 262.5 137.8 262.7 137.6 262.9C136.9 263.5 136.2 264.2 135.5 264.9C135.4 265 135.2 265.1 135.1 265.3C134.5 265.9 133.8 266.5 133.1 267.1C133 267.2 132.9 267.3 132.7 267.4C130.1 269.7 127.3 272.1 124.4 274.8C124 275.1 123.7 275.4 123.3 275.8C122.5 276.5 121.7 277.2 121 277.9C120.6 278.3 120.2 278.6 119.8 279C119.6 279.2 119.3 279.5 119.1 279.7C118.9 279.9 118.7 280.1 118.4 280.3C117.5 281.1 116.6 282 115.8 282.9C115.6 283.1 115.4 283.3 115.2 283.5L115.1 283.6C114.9 283.8 114.7 284 114.5 284.2C114.3 284.4 114 284.7 113.8 284.9C113.6 285.1 113.4 285.3 113.2 285.5C113 285.7 112.8 285.9 112.6 286.2C111.3 287.5 110.1 288.9 108.9 290.3C108.7 290.5 108.5 290.7 108.4 290.9C108.2 291.2 108 291.4 107.8 291.7C107.6 291.9 107.5 292.1 107.3 292.3C107.1 292.6 106.9 292.8 106.7 293.1C104.7 295.7 102.6 298.2 100.5 300.5C98.4 302.8 96.1 305 93.8 307.1C93.4 307.5 92.9 307.9 92.5 308.3C92.1 308.7 91.6 309.1 91.2 309.5C90.7 309.9 90.3 310.3 89.8 310.6C85.8 313.9 81.5 316.8 77.1 319.3C76.3 319.8 75.4 320.2 74.6 320.7C74.1 320.9 73.7 321.2 73.2 321.4C73 321.5 72.7 321.6 72.5 321.7C72.3 321.8 72.2 321.9 72 322C71.8 322.1 71.7 322.2 71.5 322.2C71.4 322.3 71.2 322.3 71.1 322.4C70.9 322.5 70.6 322.6 70.4 322.7C70.2 322.8 70.1 322.9 69.9 322.9C69.8 322.9 69.7 323 69.6 323C69.4 323.1 69.3 323.1 69.1 323.2C68.7 323.4 68.3 323.6 67.9 323.7C67.7 323.8 67.4 323.9 67.2 324C66.8 324.2 66.4 324.3 66 324.5C65.6 324.7 65.2 324.8 64.8 325H29.1L29 324.9C28.9 324.8 28.9 324.8 28.8 324.7C28.7 324.6 28.7 324.6 28.6 324.5C28.5 324.4 28.5 324.4 28.4 324.3C28.3 324.2 28.3 324.2 28.2 324.1C28.1 324 28 323.9 28 323.9C27.9 323.8 27.9 323.7 27.8 323.6C27.7 323.5 27.7 323.4 27.6 323.3C27.4 323 27.2 322.8 27 322.5C26.9 322.4 26.9 322.3 26.8 322.2C26.7 322.1 26.7 322 26.6 321.9C26.6 321.8 26.5 321.8 26.5 321.7C26.5 321.6 26.4 321.6 26.4 321.5C26.4 321.4 26.3 321.4 26.3 321.3C26.2 321.2 26.2 321.1 26.2 321C26.2 320.9 26.1 320.8 26.1 320.7V320.6C26.1 320.5 26 320.4 26 320.3C26 320.2 25.9 320.1 25.9 320C25.8 319.9 25.8 319.7 25.7 319.6C25.7 319.5 25.7 319.5 25.6 319.4V319.3C25.6 319.2 25.5 319.1 25.5 319C25.4 318.8 25.4 318.5 25.3 318.3C25.3 318.2 25.3 318.1 25.2 317.9C25.2 317.7 25.1 317.4 25.1 317.2C24.7 313.6 25.6 309.2 28.4 304C28.6 303.5 28.8 303.1 29 302.6C29.1 302.5 29.1 302.3 29.2 302.2C29.3 302 29.4 301.8 29.5 301.6C29.6 301.4 29.7 301.2 29.8 301C29.9 300.8 30 300.6 30.1 300.4C30.2 300.2 30.3 300.1 30.4 299.9C30.5 299.8 30.5 299.7 30.6 299.6C30.6 299.6 30.6 299.5 30.7 299.5C37.5 288.7 51.9 281.7 67.5 278.8C68.3 278.7 69.1 278.5 70 278.2C75.4 276.8 82.2 274.1 89.4 270.8C107.3 262.7 127.2 251.3 130.8 249.5C136.1 247.1 148 249.5 142.6 257.4Z" fill="#FFD3CA"/>
<path fill-rule="evenodd" clip-rule="evenodd" d="M140.1 260.4C139.9 260.6 139.7 260.8 139.6 260.9C139.5 261 139.3 261.2 139.2 261.3C139.1 261.4 138.9 261.6 138.8 261.7C138.6 261.9 138.4 262.1 138.1 262.4C137.9 262.5 137.8 262.7 137.6 262.9C136.9 263.5 136.2 264.2 135.5 264.9C135.4 265 135.2 265.1 135.1 265.3C134.5 265.9 133.8 266.5 133.1 267.1C133 267.2 132.9 267.3 132.7 267.4C130.1 269.7 127.3 272.1 124.4 274.8C124 275.1 123.7 275.4 123.3 275.8C122.5 276.5 121.7 277.2 121 277.9C120.6 278.3 120.2 278.6 119.8 279C119.6 279.2 119.3 279.5 119.1 279.7C118.9 279.9 118.7 280.1 118.4 280.3C117.5 281.1 116.6 282 115.8 282.9C115.6 283.1 115.4 283.3 115.2 283.5L115.1 283.6C114.9 283.8 114.7 284 114.5 284.2C114.3 284.4 114 284.7 113.8 284.9C113.6 285.1 113.4 285.3 113.2 285.5C113 285.7 112.8 285.9 112.6 286.2C111.3 287.5 110.1 288.9 108.9 290.3C108.7 290.5 108.5 290.7 108.4 290.9C108.2 291.2 108 291.4 107.8 291.7C107.6 291.9 107.5 292.1 107.3 292.3C107.1 292.6 106.9 292.8 106.7 293.1C104.7 295.7 102.6 298.2 100.5 300.5C98.4 302.8 96.1 305 93.8 307.1C93.4 307.5 92.9 307.9 92.5 308.3C92.1 308.7 91.6 309.1 91.2 309.5C90.7 309.9 90.3 310.3 89.8 310.6C85.8 313.9 81.5 316.8 77.1 319.3C76.3 319.8 75.4 320.2 74.6 320.7C74.1 320.9 73.7 321.2 73.2 321.4C73 321.5 72.7 321.6 72.5 321.7C72.3 321.8 72.2 321.9 72 322C71.9 322 71.8 322.1 71.7 322.1C71.5 322.2 71.3 322.3 71.1 322.4C70.9 322.5 70.6 322.6 70.4 322.7C70.2 322.8 70.1 322.9 69.9 322.9C69.8 322.9 69.7 323 69.6 323C69.4 323.1 69.3 323.1 69.1 323.2C68.7 323.4 68.3 323.6 67.9 323.7C67.7 323.8 67.4 323.9 67.2 324C66.8 324.2 66.4 324.3 66 324.5C65.6 324.7 65.2 324.8 64.8 325H29.1L29 324.9C28.9 324.8 28.9 324.8 28.8 324.7C28.7 324.6 28.7 324.6 28.6 324.5C28.5 324.4 28.5 324.4 28.4 324.3C28.3 324.2 28.3 324.2 28.2 324.1C28.1 324 28 323.9 28 323.9C27.9 323.8 27.9 323.7 27.8 323.6C27.7 323.5 27.7 323.4 27.6 323.3C27.4 323 27.2 322.8 27 322.5C26.9 322.4 26.9 322.3 26.8 322.2C26.7 322.1 26.7 322 26.6 321.9C26.6 321.8 26.5 321.8 26.5 321.7C26.5 321.6 26.4 321.6 26.4 321.5C26.4 321.4 26.3 321.4 26.3 321.3C26.2 321.2 26.2 321.1 26.2 321C26.2 320.9 26.1 320.8 26.1 320.7V320.6C26.1 320.5 26 320.4 26 320.3C26 320.2 25.9 320.1 25.9 320C25.8 319.9 25.8 319.7 25.7 319.6C25.7 319.5 25.7 319.5 25.6 319.4V319.3C25.6 319.2 25.5 319.1 25.5 319C25.4 318.8 25.4 318.5 25.3 318.3C25.3 318.2 25.3 318.1 25.2 317.9C25.2 317.7 25.1 317.4 25.1 317.2C25.1 317.2 32 329.3 55.6 320C61.3 317.8 68 313.6 75.1 308.6C82.4 303.4 90 297.3 97.3 291.1C112.4 278.4 126 265.7 131.3 262.2C133.4 260.9 136.6 260.3 140.1 260.4Z" fill="#FF8685"/>
<path d="M117.8 280.9C127.9 271.1 138.8 263 142.7 257.4C148.1 249.5 136.2 247.1 130.9 249.8C125.6 252.4 85.2 275.8 67.6 279.1" stroke="#1C1C1C" stroke-width="0.9192" stroke-miterlimit="10" stroke-linecap="round" stroke-linejoin="round"/>
<path d="M75.7 319.9C87.5 313.5 97.9 304.4 106.7 293C109.1 289.8 111.9 286.7 114.8 283.8" stroke="#1C1C1C" stroke-width="0.9192" stroke-miterlimit="10" stroke-linecap="round" stroke-linejoin="round"/>
<path d="M64.4 325.1C64.5 325 64.7 325 64.8 324.9C65.2 324.7 65.6 324.6 66 324.4C66.4 324.2 66.8 324.1 67.2 323.9C67.4 323.8 67.7 323.7 67.9 323.6C68.2 323.5 68.5 323.4 68.8 323.2C68.9 323.1 69 323.1 69.2 323C69.3 323 69.4 322.9 69.4 322.9C69.5 322.9 69.6 322.8 69.6 322.8C69.7 322.8 69.8 322.7 69.9 322.7C70.1 322.6 70.2 322.5 70.4 322.5C70.6 322.4 70.9 322.3 71.1 322.2C71.2 322.1 71.4 322.1 71.5 322C71.6 322 71.6 321.9 71.7 321.9C71.8 321.9 71.9 321.8 72 321.8C72.2 321.7 72.3 321.6 72.5 321.5C72.7 321.4 73 321.3 73.2 321.2" stroke="#1C1C1C" stroke-width="0.9192" stroke-miterlimit="10" stroke-linecap="round" stroke-linejoin="round"/>
<path d="M30.6 299.7C30.6 299.7 30.6 299.8 30.5 299.8C30.4 299.9 30.4 300 30.3 300.1C30.2 300.3 30.1 300.4 30 300.6C29.9 300.8 29.8 301 29.7 301.2C29.6 301.4 29.5 301.6 29.4 301.8C29.3 302 29.2 302.2 29.1 302.4C29 302.5 29 302.7 28.9 302.8C28.7 303.3 28.5 303.7 28.3 304.2C25.6 309.3 24.6 313.7 25 317.4C25 317.6 25.1 317.9 25.1 318.1C25.1 318.2 25.1 318.3 25.2 318.5C25.2 318.7 25.3 319 25.4 319.2C25.4 319.3 25.4 319.4 25.5 319.5V319.6C25.5 319.7 25.5 319.7 25.6 319.8C25.6 319.9 25.7 320.1 25.8 320.2C25.8 320.3 25.9 320.4 25.9 320.5C25.9 320.6 26 320.7 26 320.8V320.9C26 321 26.1 321.1 26.1 321.2C26.1 321.3 26.2 321.4 26.2 321.5C26.2 321.6 26.3 321.7 26.3 321.7C26.3 321.8 26.4 321.8 26.4 321.9C26.4 322 26.5 322 26.5 322.1C26.6 322.2 26.6 322.3 26.7 322.4C26.8 322.5 26.8 322.6 26.9 322.7C27.1 323 27.3 323.3 27.5 323.5C27.6 323.6 27.6 323.7 27.7 323.8C27.8 323.9 27.8 324 27.9 324.1C28 324.2 28.1 324.3 28.1 324.3C28.2 324.4 28.2 324.4 28.3 324.5C28.4 324.6 28.4 324.6 28.5 324.7C28.6 324.8 28.6 324.8 28.7 324.9C28.8 325 28.8 325 28.9 325.1L29 325.2" stroke="#1C1C1C" stroke-width="0.9192" stroke-miterlimit="10" stroke-linecap="round" stroke-linejoin="round"/>
<path d="M64.6 279.6C51.1 282.6 38.7 288.7 32 297.8" stroke="#1C1C1C" stroke-width="0.9192" stroke-miterlimit="10" stroke-linecap="round" stroke-linejoin="round"/>
<path fill-rule="evenodd" clip-rule="evenodd" d="M64.8 325C64.7 325.1 64.5 325.1 64.4 325.2C64.5 325.1 64.7 325 64.8 325Z" fill="white"/>
<path fill-rule="evenodd" clip-rule="evenodd" d="M162.5 240.5H163C169.4 236.2 175.9 231.7 176.5 231C177.7 229.7 177.7 228.7 175.9 228.3C175.3 228.2 172.2 229.7 168.4 231.9L162.5 240.5ZM163.8 240.5C171.3 236 180.5 230.7 181.6 231C183.5 231.4 183.5 232.4 182.2 233.7C181.7 234.2 177.5 237.2 172.6 240.5H163.8ZM173.4 240.5C177.8 237.6 181.4 235.3 182 235.1C183.6 234.5 184.3 235 183.6 237.2C183.5 237.7 182.1 238.9 180.2 240.6H173.4V240.5Z" fill="#C57C62"/>
<path fill-rule="evenodd" clip-rule="evenodd" d="M163.2 213.9L192.5 205.4L184.7 197.8L187.2 187.2L157.9 195.8" fill="#0F9D58"/>
<path d="M172.7 245.6L156.7 192.7" stroke="#231F20" stroke-width="1.1489" stroke-miterlimit="10" stroke-linecap="round" stroke-linejoin="round"/>
<path d="M163.2 213.9L192.5 205.4L184.7 197.8L187.2 187.2L157.9 195.8" stroke="#231F20" stroke-width="0.9192" stroke-miterlimit="10" stroke-linecap="round" stroke-linejoin="round"/>
<path d="M166.85 206.897L166.512 205.719L169.219 197.798L171.109 197.256L172.952 203.679L174.225 203.313L174.614 204.669L173.341 205.034L173.938 207.116L172.404 207.556L171.807 205.474L166.85 206.897ZM170.099 199.265L168.255 205.026L171.486 204.099L170.099 199.265ZM177.368 206.235C177.085 206.317 176.82 206.289 176.573 206.152C176.326 206.015 176.162 205.806 176.081 205.523C176 205.24 176.028 204.975 176.165 204.728C176.301 204.481 176.511 204.317 176.794 204.236C177.068 204.158 177.328 204.187 177.575 204.323C177.822 204.46 177.986 204.67 178.067 204.953C178.148 205.236 178.12 205.501 177.984 205.747C177.847 205.994 177.642 206.157 177.368 206.235ZM177.147 196.932L176.738 195.507L179.587 194.69L182.451 204.673L180.876 205.125L178.42 196.566L177.147 196.932Z" fill="white"/>
<path fill-rule="evenodd" clip-rule="evenodd" d="M181.8 233.7C181.7 233.7 181.4 233.8 181.1 233.9C181.7 233.6 182.1 233.4 182.3 233.3C183.5 232.3 183.5 231.3 181.7 230.4C180.2 229.7 162.4 235.9 156 238.2C163.3 235.1 175.7 229.8 176.6 229.1C177.8 228.1 177.8 227.1 176 226.2C174.2 225.3 150.2 234 148.2 234.8C143.8 235.9 127.9 250.7 127.9 250.7C125.7 254.1 130.6 264.4 133.2 265.2C135.5 265.9 152.2 260.3 158.7 256.7C158.7 256.7 178.8 246.9 179.4 245C180 243.2 179.4 242.5 177.9 242.7C177 242.8 167.4 246.7 160.6 249.6C160.5 249.3 160.4 249.1 160.3 248.8C166.7 245.7 183 237.7 183.5 236.1C184.1 234.2 183.4 233.5 181.8 233.7Z" fill="#FFD3CA"/>
<path fill-rule="evenodd" clip-rule="evenodd" d="M178.1 246.2L177 247C171.6 250.4 158.5 256.8 158.5 256.8C152 260.4 135.3 266 133 265.3C132.9 265.3 132.7 265.2 132.6 265.1C132.5 264.1 132.7 262.9 133.1 261.4C133.1 261.4 148.1 258.2 154.3 256.3C160.6 254.3 178.1 246.2 178.1 246.2Z" fill="#FF8685"/>
<path d="M163.4 235.6C160.4 236.6 157.7 237.6 155.9 238.2C163.2 235.1 175.6 229.8 176.5 229.1C177.7 228.1 177.7 227.1 175.9 226.2C174.1 225.3 150.1 234 148.1 234.8C147 235.1 145.3 236.2 143.2 237.7" stroke="#1C1C1C" stroke-width="0.9192" stroke-miterlimit="10" stroke-linecap="round" stroke-linejoin="round"/>
<path d="M143.6 262.9C149 261.1 155.1 258.7 158.5 256.8C158.5 256.8 178.6 247 179.2 245.1C179.8 243.3 179.2 242.6 177.7 242.8C176.8 242.9 167.2 246.8 160.4 249.7C160.3 249.4 160.2 249.2 160.1 248.9C166.5 245.8 182.8 237.8 183.3 236.2C184 234.2 183.3 233.5 181.7 233.7C181.6 233.7 181.3 233.8 181 233.9C181.6 233.6 182 233.4 182.2 233.3C183.4 232.3 183.4 231.3 181.6 230.4C180.6 229.9 172.5 232.5 165.3 234.9" stroke="#1C1C1C" stroke-width="0.9192" stroke-miterlimit="10" stroke-linecap="round" stroke-linejoin="round"/>
<path d="M137.1 242.5C132.2 246.6 127.8 250.8 127.8 250.8C125.6 254.2 130.5 264.5 133.1 265.3C134 265.6 137.1 264.9 140.9 263.8" stroke="#1C1C1C" stroke-width="0.9192" stroke-miterlimit="10" stroke-linecap="round" stroke-linejoin="round"/>
<path d="M140.2 239.9C139.7 240.3 139.3 240.6 138.8 241" stroke="#1C1C1C" stroke-width="0.9192" stroke-miterlimit="10" stroke-linecap="round" stroke-linejoin="round"/>
<path fill-rule="evenodd" clip-rule="evenodd" d="M113 126.1C113 126.2 117.5 147.9 144.6 136.4L144.9 137C117.1 148.8 112.4 126.3 112.4 126.2L113 126.1Z" fill="#FFF0F0"/>
<path fill-rule="evenodd" clip-rule="evenodd" d="M118.1 251.7L122.8 248.1C124.1 247.1 125.9 247.4 126.8 248.7L134.4 258.8C135.4 260.1 135.1 261.9 133.8 262.8L129.1 266.4C127.8 267.4 126 267.1 125.1 265.8L117.5 255.7C116.6 254.5 116.8 252.7 118.1 251.7Z" fill="#281616"/>
<path fill-rule="evenodd" clip-rule="evenodd" d="M127.8 264.9C127.8 264.9 130.6 270 131.3 270C132.1 270 136.8 266.9 137.2 265.9C137.5 264.9 133.2 260.7 133.2 260.7L127.8 264.9Z" fill="#281616"/>
<path fill-rule="evenodd" clip-rule="evenodd" d="M118.3 251.5L122.5 248.4C123.6 247.6 125.2 247.8 126 248.9L132.7 257.7C133.5 258.8 133.3 260.4 132.2 261.2L128 264.3C126.9 265.1 125.3 264.9 124.5 263.8L117.8 255C116.9 253.9 117.1 252.4 118.3 251.5Z" fill="#B5B5B5"/>
<path fill-rule="evenodd" clip-rule="evenodd" d="M123.7 255.5C124.5 255.5 125.2 254.8 125.2 254C125.2 253.2 124.5 252.5 123.7 252.5C122.9 252.5 122.2 253.2 122.2 254C122.2 254.8 122.9 255.5 123.7 255.5Z" fill="#FF8685"/>
<path fill-rule="evenodd" clip-rule="evenodd" d="M126 258.8C126.8 258.8 127.5 258.1 127.5 257.3C127.5 256.5 126.8 255.8 126 255.8C125.2 255.8 124.5 256.5 124.5 257.3C124.5 258.1 125.2 258.8 126 258.8Z" fill="#FFD448"/>
<path fill-rule="evenodd" clip-rule="evenodd" d="M127.8 158.7C127.8 158.7 133.7 161.4 137.5 160.3L137.7 161C133.7 162.1 127.6 159.4 127.6 159.4L127.8 158.7Z" fill="#FF8685"/>
<path fill-rule="evenodd" clip-rule="evenodd" d="M128.6 158.6C128.6 158.6 127.8 159 127.9 159.7L127.2 159.9C126.9 158.7 128.3 158 128.3 158L128.6 158.6Z" fill="#FF8685"/>
<path d="M6.4 324H0V325.4H6.4V324Z" fill="white"/>
<path fill-rule="evenodd" clip-rule="evenodd" d="M105.8 138.3C107.8 141.6 108.8 144.2 109.1 146.1C109.8 150.5 107.2 150.7 106.8 144.7H107.4C107.6 149.4 109.1 149.3 108.5 146.1C108.2 144.4 107.3 141.8 105.3 138.7L105.8 138.3Z" fill="#FF8685"/>
<path fill-rule="evenodd" clip-rule="evenodd" d="M129.7 146.3C130.3 146.3 130.8 146.9 130.8 147.5C130.8 148.1 130.2 148.6 129.6 148.6C129 148.6 128.5 148 128.5 147.4C128.5 146.8 129.1 146.3 129.7 146.3Z" fill="#281616"/>
<path fill-rule="evenodd" clip-rule="evenodd" d="M125.5 145.6L131.9 146V147.1L125.4 146.7L125.5 145.6Z" fill="#281616"/>
<path fill-rule="evenodd" clip-rule="evenodd" d="M142.7 146.7L148.3 147.1L148.2 148.2L142.7 147.8V146.7Z" fill="#281616"/>
<path fill-rule="evenodd" clip-rule="evenodd" d="M144.3 147.6C144.9 147.6 145.4 148.2 145.4 148.8C145.4 149.4 144.8 149.9 144.2 149.9C143.6 149.9 143.1 149.3 143.1 148.7C143.1 148 143.7 147.5 144.3 147.6Z" fill="#281616"/>
<path fill-rule="evenodd" clip-rule="evenodd" d="M91.4 275.9C91.8 275.9 92.1 275.6 92.1 275.2C92.1 274.8 91.8 274.5 91.4 274.5C91 274.5 90.7 274.8 90.7 275.2C90.7 275.6 91 275.9 91.4 275.9Z" fill="white"/>
<path fill-rule="evenodd" clip-rule="evenodd" d="M105.5 275.7C106.2 275.7 106.8 275.1 106.8 274.4C106.8 273.7 106.2 273.1 105.5 273.1C104.8 273.1 104.2 273.7 104.2 274.4C104.2 275.2 104.8 275.7 105.5 275.7Z" fill="white"/>
<path d="M18.4 325.4H333.8" stroke="#231F20" stroke-width="1.1489" stroke-miterlimit="10" stroke-linecap="round" stroke-linejoin="round"/>
<path d="M2.09998 325.4H11.8" stroke="#231F20" stroke-width="1.1489" stroke-miterlimit="10" stroke-linecap="round" stroke-linejoin="round"/>
<path fill-rule="evenodd" clip-rule="evenodd" d="M302.4 114.1L332.8 117.2L328.4 107.3L334.7 98.4001L304.3 95.3" fill="#F2756F"/>
<path d="M299.3 147L304.4 92" stroke="#231F20" stroke-width="1.1489" stroke-miterlimit="10" stroke-linecap="round" stroke-linejoin="round"/>
<path d="M302.4 114.1L332.8 117.2L328.4 107.3L334.7 98.4001L304.3 95.3" stroke="#231F20" stroke-width="0.9192" stroke-miterlimit="10" stroke-linecap="round" stroke-linejoin="round"/>
<path d="M308.22 104.254C308.351 103.494 308.707 102.929 309.288 102.559C309.876 102.189 310.59 102.049 311.429 102.139C312.005 102.201 312.491 102.357 312.889 102.607C313.286 102.858 313.573 103.171 313.749 103.548C313.925 103.925 313.989 104.335 313.942 104.779C313.887 105.289 313.705 105.711 313.394 106.043C313.084 106.376 312.733 106.584 312.342 106.667L312.336 106.716C312.806 106.916 313.155 107.228 313.384 107.652C313.614 108.068 313.697 108.58 313.631 109.189C313.579 109.674 313.422 110.094 313.16 110.448C312.897 110.803 312.536 111.068 312.076 111.243C311.617 111.41 311.084 111.461 310.475 111.396C309.587 111.301 308.879 110.997 308.351 110.482C307.833 109.961 307.599 109.27 307.65 108.411L309.007 108.556C308.993 108.995 309.124 109.371 309.398 109.684C309.673 109.988 310.07 110.167 310.588 110.223C311.09 110.277 311.491 110.182 311.791 109.94C312.093 109.689 312.267 109.346 312.314 108.91C312.375 108.334 312.234 107.907 311.889 107.629C311.554 107.344 311.008 107.16 310.251 107.079L309.93 107.045L310.054 105.885L310.387 105.921C311.055 105.984 311.572 105.927 311.941 105.75C312.317 105.574 312.53 105.256 312.58 104.796C312.622 104.401 312.528 104.075 312.298 103.817C312.068 103.551 311.719 103.393 311.25 103.343C310.789 103.293 310.419 103.374 310.138 103.586C309.859 103.789 309.676 104.06 309.589 104.4L308.22 104.254ZM315.588 111.981C315.333 111.954 315.128 111.845 314.974 111.654C314.82 111.462 314.756 111.239 314.784 110.984C314.811 110.729 314.92 110.525 315.112 110.37C315.303 110.216 315.526 110.153 315.781 110.18C316.028 110.206 316.228 110.315 316.382 110.507C316.537 110.698 316.6 110.921 316.573 111.176C316.545 111.431 316.436 111.635 316.245 111.79C316.054 111.944 315.835 112.008 315.588 111.981ZM318.315 107.519C318.467 106.096 318.825 105.011 319.387 104.264C319.959 103.51 320.833 103.196 322.009 103.322C323.185 103.448 323.969 103.94 324.359 104.797C324.759 105.647 324.883 106.783 324.731 108.206C324.576 109.645 324.213 110.746 323.64 111.509C323.077 112.264 322.207 112.578 321.031 112.452C319.855 112.326 319.067 111.834 318.668 110.976C318.279 110.111 318.161 108.958 318.315 107.519ZM323.349 108.058C323.42 107.392 323.435 106.824 323.394 106.353C323.361 105.884 323.228 105.491 322.996 105.175C322.765 104.851 322.39 104.661 321.872 104.605C321.353 104.55 320.947 104.656 320.652 104.924C320.358 105.184 320.141 105.539 320.001 105.99C319.87 106.442 319.768 107.001 319.697 107.667C319.623 108.358 319.602 108.942 319.634 109.42C319.666 109.897 319.798 110.294 320.03 110.61C320.271 110.927 320.65 111.113 321.169 111.169C321.687 111.224 322.093 111.122 322.387 110.863C322.689 110.604 322.907 110.244 323.039 109.784C323.171 109.324 323.275 108.749 323.349 108.058Z" fill="white"/>
<path d="M310.7 176.1H301.6V178.6H310.7V176.1Z" fill="#FCD669"/>
<path d="M289 181.8L334.2 176.1C335.6 175.9 336.9 176.9 337.1 178.4C337.6 182.4 334.8 186 330.8 186.5L294.8 191C290.8 191.5 287.2 188.7 286.7 184.7C286.6 183.3 287.6 182 289 181.8Z" fill="#F2B31B"/>
<path d="M334.2 176.1L330 176.6C330.4 178.4 330.6 181.7 326.4 183.3C320.6 185.5 294.5 189.4 288.3 188.4C289.8 190.3 292.3 191.3 294.8 191L330.8 186.5C334.8 186 337.6 182.4 337.1 178.4C337 176.9 335.7 175.9 334.2 176.1Z" fill="#F6921E"/>
<path d="M291.8 181.5L293.4 181.3" stroke="black" stroke-width="0.817" stroke-miterlimit="10" stroke-linecap="round" stroke-linejoin="round"/>
<path d="M306.1 189.6L295.1 191C291.1 191.5 287.5 188.7 287 184.7C286.8 183.3 287.8 182 289.3 181.8" stroke="black" stroke-width="0.817" stroke-miterlimit="10" stroke-linecap="round" stroke-linejoin="round"/>
<path d="M310 189.1L307.9 189.4" stroke="black" stroke-width="0.817" stroke-miterlimit="10" stroke-linecap="round" stroke-linejoin="round"/>
<path d="M329.1 186.7L311.8 188.9" stroke="black" stroke-width="0.817" stroke-miterlimit="10" stroke-linecap="round" stroke-linejoin="round"/>
<path d="M333.2 185.9C332.5 186.2 331.8 186.4 331.1 186.5" stroke="black" stroke-width="0.817" stroke-miterlimit="10" stroke-linecap="round" stroke-linejoin="round"/>
<path d="M295.7 181L334.4 176.1C335.8 175.9 337.1 176.9 337.3 178.4C337.6 181 336.6 183.4 334.7 184.9" stroke="black" stroke-width="0.817" stroke-miterlimit="10" stroke-linecap="round" stroke-linejoin="round"/>
<path d="M294.7 185.1L292 185.4C291.2 185.5 291.3 186.8 292.2 186.7L294.9 186.4C295.7 186.2 295.5 185 294.7 185.1Z" fill="#FCD669"/>
<path d="M313 181L311.5 181.2C310.7 181.3 310.8 182.6 311.7 182.5L313.2 182.3C314 182.1 313.8 180.8 313 181Z" fill="#FCD669"/>
<path d="M329.1 182.5L325.1 183C324.3 183.1 324.4 184.4 325.3 184.3L329.3 183.8C330.1 183.6 330 182.4 329.1 182.5Z" fill="#FCD669"/>
<path d="M328.8 165H284.4C283 165 281.9 163.9 281.9 162.5C281.9 161.1 283 160 284.4 160H328.8C330.2 160 331.3 161.1 331.3 162.5C331.3 163.9 330.2 165 328.8 165Z" fill="#F2756F"/>
<path d="M331.3 162.5C331.3 161.1 330.2 160 328.8 160H325.8C326.4 160.6 327 161.5 326.7 162.5C326.2 164.2 290.5 164.3 281.8 162.9C282 164.1 283 165.1 284.3 165.1H328.7C330.2 165 331.3 163.9 331.3 162.5Z" fill="#DA4536"/>
<path d="M328.8 165H284.4C283 165 281.9 163.9 281.9 162.5C281.9 161.1 283 160 284.4 160H328.8C330.2 160 331.3 161.1 331.3 162.5C331.3 163.9 330.2 165 328.8 165Z" stroke="black" stroke-width="0.817" stroke-miterlimit="10" stroke-linecap="round" stroke-linejoin="round"/>
<path d="M329.4 173.3H283.7C281.9 173.3 280.3 171.8 280.3 169.9V169.8C280.3 168 281.8 166.4 283.7 166.4H329.4C331.2 166.4 332.8 167.9 332.8 169.8V169.9C332.8 171.8 331.3 173.3 329.4 173.3Z" fill="#F2756F"/>
<path d="M329.4 166.5H318.8C318.3 166.7 317.9 166.8 317.7 166.8L315.8 170.3C316.7 170.6 316.5 172 315.5 172C303 172.2 280.8 171.5 280.7 171.5C281.3 172.6 282.4 173.3 283.7 173.3H325.1H329.4C329.5 173.3 329.6 173.3 329.7 173.3C329.8 173.3 329.9 173.3 330 173.3H330.1C330.2 173.3 330.2 173.3 330.3 173.2H330.4C331.7 172.7 332.7 171.5 332.7 170V169.9C332.8 168 331.3 166.5 329.4 166.5Z" fill="#DA4536"/>
<path d="M281.2 172.2C280.7 171.6 280.4 170.8 280.4 170V169.9" stroke="black" stroke-width="0.817" stroke-miterlimit="10" stroke-linecap="round" stroke-linejoin="round"/>
<path d="M280.7 168.3C281.3 167.2 282.4 166.5 283.7 166.5H329.4C331.2 166.5 332.8 168 332.8 169.9V170C332.8 171.8 331.3 173.4 329.4 173.4H283.7C283.2 173.4 282.8 173.3 282.3 173.1" stroke="black" stroke-width="0.817" stroke-miterlimit="10" stroke-linecap="round" stroke-linejoin="round"/>
<path d="M304.8 178.5H284.1C282.9 178.5 281.9 177.5 281.9 176.3C281.9 175.1 282.9 174.1 284.1 174.1H304.8C306 174.1 307 175.1 307 176.3C307 177.5 306 178.5 304.8 178.5Z" fill="#F2756F"/>
<path d="M304.8 174.1H304.3C304.5 174.8 304.5 176 301.9 176.8C298.3 177.9 284.6 177.3 282.2 176.8C282.1 176.8 282 176.8 281.9 176.8C282.1 177.8 283 178.6 284.1 178.6H304.8C306 178.6 307 177.6 307 176.4C307 175.1 306 174.1 304.8 174.1Z" fill="#DA4536"/>
<path d="M302.3 178.5H288.6" stroke="black" stroke-width="0.817" stroke-miterlimit="10" stroke-linecap="round" stroke-linejoin="round"/>
<path d="M286.5 178.5H284.1C282.9 178.5 281.9 177.5 281.9 176.3C281.9 175.1 282.9 174.1 284.1 174.1H304.8C306 174.1 307 175.1 307 176.3C307 177.5 306 178.5 304.8 178.5H303.9" stroke="black" stroke-width="0.817" stroke-miterlimit="10" stroke-linecap="round" stroke-linejoin="round"/>
<path d="M329.1 178.5H308.4C307.2 178.5 306.2 177.5 306.2 176.3C306.2 175.1 307.2 174.1 308.4 174.1H329.1C330.3 174.1 331.3 175.1 331.3 176.3C331.3 177.5 330.3 178.5 329.1 178.5Z" fill="#BC5F46"/>
<path d="M329.1 174.1H328.6C328.8 174.8 328.8 176 326.2 176.8C322.6 177.9 308.9 177.3 306.5 176.8C306.4 176.8 306.3 176.8 306.2 176.8C306.4 177.8 307.3 178.6 308.4 178.6H329.1C330.3 178.6 331.3 177.6 331.3 176.4C331.3 175.1 330.3 174.1 329.1 174.1Z" fill="#DA4536"/>
<path d="M329.1 178.5H308.4C307.2 178.5 306.2 177.5 306.2 176.3C306.2 175.1 307.2 174.1 308.4 174.1H329.1C330.3 174.1 331.3 175.1 331.3 176.3C331.3 177.5 330.3 178.5 329.1 178.5Z" stroke="black" stroke-width="0.817" stroke-miterlimit="10" stroke-linecap="round" stroke-linejoin="round"/>
<path d="M282.8 160.1C282.8 159.6 283.3 159.1 284 159.1H329.1C329.8 159.1 330.3 159.5 330.3 160.1C330.3 160.7 329.8 161.1 329.1 161.1C329.1 161.1 323.5 161.5 322.4 162.4C321.3 163.3 321.3 163.9 319.6 163.3C317.9 162.7 317.5 161.7 315.5 162.1C313.5 162.5 313.9 163 311.2 162.6C308.5 162.2 305.2 161 302.4 162.1C299.6 163.2 300.2 164.9 297 164.1C293.8 163.3 292.9 161.4 290.7 161.8C288.5 162.2 286.2 162.3 285.1 161.9C284.3 161.6 283.5 161.1 283.2 160.8C283 160.7 282.8 160.4 282.8 160.1Z" fill="#089C58"/>
<path d="M329.1 161.1C329.8 161.1 330.3 160.7 330.3 160.1C330.3 159.5 329.8 159.1 329.1 159.1H324.3C323.9 159.9 322.9 161.2 321.2 161.2C318.8 161.3 316.6 160.3 312.8 161.2C311.2 161.6 310.1 161.9 309.2 162.1C309.9 162.2 310.5 162.4 311.2 162.5C313.9 162.9 313.6 162.4 315.5 162C317.5 161.6 317.9 162.6 319.6 163.2C321.3 163.8 321.4 163.2 322.4 162.3C323.5 161.5 329.1 161.1 329.1 161.1Z" fill="#008C46"/>
<path d="M301.6 162.5C299.7 163.6 299.9 164.8 297.1 164.1C293.9 163.3 293 161.4 290.8 161.8C288.6 162.2 286.3 162.3 285.2 161.9C284.4 161.6 283.6 161.1 283.3 160.8C283 160.6 282.8 160.3 282.8 160C282.8 159.5 283.3 159 284 159H321" stroke="black" stroke-width="0.817" stroke-miterlimit="10" stroke-linecap="round" stroke-linejoin="round"/>
<path d="M318.1 162.5C317.4 162.1 316.8 161.8 315.6 162.1C313.6 162.5 314 163 311.3 162.6C309 162.2 306.4 161.4 303.9 161.7" stroke="black" stroke-width="0.817" stroke-miterlimit="10" stroke-linecap="round" stroke-linejoin="round"/>
<path d="M323.4 159.1H329.1C329.8 159.1 330.3 159.5 330.3 160.1C330.3 160.7 329.8 161.1 329.1 161.1C329.1 161.1 323.5 161.5 322.4 162.4C321.6 163.1 321.4 163.6 320.5 163.5" stroke="black" stroke-width="0.817" stroke-miterlimit="10" stroke-linecap="round" stroke-linejoin="round"/>
<path d="M279.1 163.7C277.6 163.9 276.3 162.7 276.3 161.2C276.4 150.2 285.9 140.3 298.8 138.5C311.7 136.7 323.6 143.4 326.8 153.9C327.3 155.4 326.3 156.9 324.8 157.1L279.1 163.7Z" fill="#F2B31B"/>
<path d="M326.9 153.9C324.2 145.1 315.6 139 305.3 138.2C305.3 138.2 315.5 142.7 314 152.2C312.7 160.6 283.5 161.1 276.3 161C276.3 161 276.3 161 276.3 161.1C276.3 162.7 277.6 163.9 279.1 163.6L324.8 157C326.3 156.9 327.3 155.4 326.9 153.9Z" fill="#F6921E"/>
<path d="M296.8 138.8C297.5 138.7 298.2 138.5 298.9 138.4" stroke="black" stroke-width="0.817" stroke-miterlimit="10" stroke-linecap="round" stroke-linejoin="round"/>
<path d="M277.8 153.7C280.5 147.2 286.6 141.8 294.4 139.4" stroke="black" stroke-width="0.817" stroke-miterlimit="10" stroke-linecap="round" stroke-linejoin="round"/>
<path d="M276.3 161.2C276.3 159.5 276.6 157.7 277 156.1" stroke="black" stroke-width="0.817" stroke-miterlimit="10" stroke-linecap="round" stroke-linejoin="round"/>
<path d="M298.8 160.9L279.1 163.7C278.3 163.8 277.5 163.5 277 163" stroke="black" stroke-width="0.817" stroke-miterlimit="10" stroke-linecap="round" stroke-linejoin="round"/>
<path d="M304 160.2L301.1 160.6" stroke="black" stroke-width="0.817" stroke-miterlimit="10" stroke-linecap="round" stroke-linejoin="round"/>
<path d="M301 138.2C313.1 137.3 323.9 143.9 326.9 153.9C327.4 155.4 326.4 156.9 324.9 157.1L306.6 159.7" stroke="black" stroke-width="0.817" stroke-miterlimit="10" stroke-linecap="round" stroke-linejoin="round"/>
<path d="M285.1 150.5L283.2 150.8C282.4 150.9 282.6 152.2 283.4 152.1L285.3 151.8C286.1 151.7 285.9 150.4 285.1 150.5Z" fill="#FCD669"/>
<path d="M294.6 144.9L290.9 145.4C290.1 145.5 290.3 146.8 291.1 146.7L294.8 146.2C295.6 146.1 295.4 144.8 294.6 144.9Z" fill="#FCD669"/>
<path d="M303.3 148L301.7 148.2C300.9 148.3 301.1 149.6 301.9 149.5L303.5 149.3C304.3 149.1 304.1 147.9 303.3 148Z" fill="#FCD669"/>
<path d="M286.8 157.3L284.5 157.6C283.7 157.7 283.9 159 284.7 158.9L287 158.6C287.9 158.4 287.7 157.2 286.8 157.3Z" fill="#FCD669"/>
<path d="M307.2 152.8L306.4 152.9C306.1 152.9 305.8 153.3 305.9 153.6C306 153.9 306.3 154.2 306.6 154.1L307.4 154C307.7 154 308 153.6 307.9 153.3C307.8 153 307.5 152.7 307.2 152.8Z" fill="#FCD669"/>
<path d="M314.2 143.1L310 143.7C309.2 143.8 309.4 145.1 310.2 145L314.4 144.4C315.2 144.3 315 143 314.2 143.1Z" fill="#FCD669"/>
<path d="M320.2 153.5L318.2 153.8C317.4 153.9 317.6 155.2 318.4 155.1L320.4 154.8C321.2 154.6 321.1 153.3 320.2 153.5Z" fill="#FCD669"/>
<path d="M294.9 153.9L293.9 154C293.6 154 293.3 154.4 293.4 154.7C293.5 155 293.8 155.3 294.1 155.2L295.1 155.1C295.4 155.1 295.7 154.7 295.6 154.4C295.6 154.1 295.3 153.8 294.9 153.9Z" fill="#FCD669"/>
<path d="M302.5 140.2L301 140.4C300.2 140.5 300.4 141.8 301.2 141.7L302.7 141.5C303.5 141.4 303.3 140.1 302.5 140.2Z" fill="#FCD669"/>
<path d="M289.3 144.8C289.1 144.8 288.9 144.7 288.7 144.5C288.5 144.2 288.6 143.9 288.9 143.7C290.8 142.5 293 141.6 295.2 141C295.5 140.9 295.8 141.1 295.9 141.4C296 141.7 295.8 142 295.5 142.1C293.4 142.7 291.3 143.6 289.5 144.7C289.4 144.8 289.3 144.8 289.3 144.8Z" fill="#F6921E"/>
<path d="M286.5 146.8C286.3 146.8 286.1 146.8 286 146.6C285.8 146.4 285.8 146 286.1 145.8C286.4 145.6 286.6 145.4 286.9 145.2C287.2 145 287.5 145.1 287.7 145.3C287.9 145.5 287.8 145.9 287.6 146.1C287.3 146.3 287.1 146.5 286.8 146.7C286.6 146.7 286.6 146.8 286.5 146.8Z" fill="#F6921E"/>
<path d="M330.3 174.1C330.2 173.7 329.6 173.3 329.2 173.3H284.1C283.6 173.3 283.1 173.6 283 174.1C282.7 174.9 284.2 175.7 285 175.7C285 175.7 289.2 176.1 290.3 177.2C291.4 178.3 292.2 179.5 293.9 178.8C295.6 178.1 295.8 176.5 297.8 177C299.8 177.5 299.4 178.2 302.1 177.6C304.8 177 308.1 175.6 310.9 177C313.7 178.4 313.1 180.4 316.3 179.5C319.5 178.6 320.4 176.2 322.6 176.7C324.8 177.2 327.1 177.3 328.2 176.8C329 176.4 329.8 175.8 330.1 175.5C330.2 175.2 330.4 174.7 330.3 174.1Z" fill="#089C58"/>
<path d="M329.1 173.3H324.1C323.4 174.3 321.7 175.6 317.8 175.6C311.6 175.5 307.9 174 303.3 176.5C302.3 177 301.4 177.4 300.5 177.7C300.9 177.7 301.3 177.6 302 177.5C304.7 177 308 175.5 310.8 176.9C313.6 178.3 313 180.3 316.2 179.4C319.4 178.5 320.3 176.1 322.5 176.6C324.7 177.1 327 177.2 328.1 176.7C328.9 176.3 329.7 175.7 330 175.4C330.4 175.1 330.6 174.6 330.4 174.1C330.1 173.7 329.6 173.3 329.1 173.3Z" fill="#008C46"/>
<path d="M326.4 177.1C327 177.1 327.5 177 327.9 176.8C328.7 176.4 329.5 175.8 329.8 175.5C330.2 175.2 330.4 174.7 330.2 174.2C330.1 173.8 329.5 173.4 329.1 173.4H284C283.5 173.4 283 173.7 282.9 174.2C282.6 175 284.1 175.8 284.9 175.8" stroke="black" stroke-width="0.817" stroke-miterlimit="10" stroke-linecap="round" stroke-linejoin="round"/>
<path d="M322.4 176.6C323.2 176.8 324 176.9 324.8 177" stroke="black" stroke-width="0.817" stroke-miterlimit="10" stroke-linecap="round" stroke-linejoin="round"/>
<path d="M297.6 176.9C299.6 177.4 299.2 178.1 301.9 177.5C304.6 176.9 307.9 175.5 310.7 176.9C313.5 178.3 312.9 180.3 316.1 179.4C318.3 178.8 319.4 177.4 320.7 176.8" stroke="black" stroke-width="0.817" stroke-miterlimit="10" stroke-linecap="round" stroke-linejoin="round"/>
<path d="M286.5 176C287.8 176.2 289.5 176.6 290.1 177.3C291.2 178.4 292 179.6 293.7 178.9C294.7 178.5 295.2 177.7 295.9 177.3" stroke="black" stroke-width="0.817" stroke-miterlimit="10" stroke-linecap="round" stroke-linejoin="round"/>
<path d="M330.2 165H283.2C282.8 165 282.5 165.3 282.5 165.7C282.5 166.1 282.8 166.4 283.2 166.4H301.2C301.2 166.4 311.7 169.1 316.7 170.4C317.4 170.6 318.2 170.5 318.9 170.2L327.3 166.4H330.2C330.6 166.4 330.9 166.1 330.9 165.7C330.9 165.3 330.6 165 330.2 165Z" fill="#F2B31B"/>
<path d="M330.2 165H321.3C321 166.3 320.1 168.8 316.9 169.1C312.7 169.4 307.8 168.2 307.8 168.2C310.9 169 314.4 169.9 316.7 170.5C317.4 170.7 318.2 170.6 318.9 170.3L327.3 166.5H330.2C330.6 166.5 330.9 166.2 330.9 165.8C330.9 165.4 330.6 165 330.2 165Z" fill="#F6921E"/>
<path d="M324.5 167.8L327.4 166.5H330.3C330.7 166.5 331 166.2 331 165.8C331 165.4 330.7 165.1 330.3 165.1H283.3C282.9 165.1 282.6 165.4 282.6 165.8C282.6 166.2 282.9 166.5 283.3 166.5H301.3C301.3 166.5 304.1 167.2 307.5 168.1" stroke="black" stroke-width="0.817" stroke-miterlimit="10" stroke-linecap="round" stroke-linejoin="round"/>
<path d="M309 168.5C311.8 169.2 314.7 170 316.8 170.5C317.5 170.7 318.3 170.6 319 170.3L323.2 168.4" stroke="black" stroke-width="0.817" stroke-miterlimit="10" stroke-linecap="round" stroke-linejoin="round"/>
<path d="M20.9 179.7L16.7 181.3" stroke="#7E89FD" stroke-width="0.6894" stroke-miterlimit="10" stroke-linecap="round" stroke-linejoin="round"/>
<path d="M22.4 183.9L20.9 179.7" stroke="#7E89FD" stroke-width="0.6894" stroke-miterlimit="10" stroke-linecap="round" stroke-linejoin="round"/>
<path fill-rule="evenodd" clip-rule="evenodd" d="M227.4 124.6C228.3 123.9 229.6 124.1 230.2 125C230.9 125.9 230.7 127.2 229.8 127.8C228.9 128.5 227.6 128.3 227 127.4C226.4 126.5 226.5 125.3 227.4 124.6Z" fill="#7E89FD"/>
<path fill-rule="evenodd" clip-rule="evenodd" d="M306.2 295.1C307.4 294.2 309.2 294.4 310.1 295.7C311 296.9 310.8 298.7 309.5 299.6C308.3 300.5 306.5 300.3 305.6 299C304.7 297.8 304.9 296 306.2 295.1Z" fill="#F2B31B"/>
<path fill-rule="evenodd" clip-rule="evenodd" d="M41.5 198.3C42.7 197.4 44.5 197.6 45.4 198.9C46.3 200.1 46.1 201.9 44.8 202.8C43.6 203.7 41.8 203.5 40.9 202.2C40.1 201 40.3 199.2 41.5 198.3Z" fill="#0F9D58"/>
<path fill-rule="evenodd" clip-rule="evenodd" d="M93.6 149.1C94.8 148.2 96.6 148.4 97.5 149.7C98.4 150.9 98.2 152.7 96.9 153.6C95.7 154.5 93.9 154.3 93 153C92.1 151.7 92.4 150 93.6 149.1Z" fill="#F2B31B"/>
<path fill-rule="evenodd" clip-rule="evenodd" d="M187.9 149.2L189.7 152.8C189.7 152.9 189.8 153 189.9 153L193.9 153.6C194.2 153.6 194.3 153.9 194.1 154.1L191.2 156.9C191.1 157 191.1 157.1 191.1 157.2L191.8 161.2C191.8 161.4 191.6 161.6 191.4 161.5L187.8 159.6C187.7 159.6 187.6 159.6 187.5 159.6L183.9 161.5C183.7 161.6 183.4 161.4 183.5 161.2L184.2 157.2C184.2 157.1 184.2 157 184.1 156.9L181.2 154.1C181 153.9 181.1 153.6 181.4 153.6L185.4 153C185.5 153 185.6 152.9 185.6 152.8L187.4 149.2C187.5 149 187.8 149 187.9 149.2Z" fill="#F2756F"/>
<path fill-rule="evenodd" clip-rule="evenodd" d="M203.3 149.2L205.1 152.8C205.1 152.9 205.2 153 205.3 153L209.3 153.6C209.6 153.6 209.7 153.9 209.5 154.1L206.6 156.9C206.5 157 206.5 157.1 206.5 157.2L207.2 161.2C207.2 161.4 207 161.6 206.8 161.5L203.2 159.6C203.1 159.6 203 159.6 202.9 159.6L199.3 161.5C199.1 161.6 198.8 161.4 198.9 161.2L199.6 157.2C199.6 157.1 199.6 157 199.5 156.9L196.6 154.1C196.4 153.9 196.5 153.6 196.8 153.6L200.8 153C200.9 153 201 152.9 201 152.8L202.8 149.2C202.8 149 203.2 149 203.3 149.2Z" fill="#F2756F"/>
<path fill-rule="evenodd" clip-rule="evenodd" d="M218.6 149.2L220.4 152.8C220.4 152.9 220.5 153 220.6 153L224.6 153.6C224.9 153.6 225 153.9 224.8 154.1L221.9 156.9C221.8 157 221.8 157.1 221.8 157.2L222.5 161.2C222.5 161.4 222.3 161.6 222.1 161.5L218.5 159.6C218.4 159.6 218.3 159.6 218.2 159.6L214.6 161.5C214.4 161.6 214.1 161.4 214.2 161.2L214.9 157.2C214.9 157.1 214.9 157 214.8 156.9L211.9 154.1C211.7 153.9 211.8 153.6 212.1 153.6L216.1 153C216.2 153 216.3 152.9 216.3 152.8L218.1 149.2C218.2 149 218.5 149 218.6 149.2Z" fill="#F2756F"/>
<path fill-rule="evenodd" clip-rule="evenodd" d="M234.1 149.2L235.9 152.8C235.9 152.9 236 153 236.1 153L240.1 153.6C240.4 153.6 240.5 153.9 240.3 154.1L237.4 156.9C237.3 157 237.3 157.1 237.3 157.2L238 161.2C238 161.4 237.8 161.6 237.6 161.5L234 159.6C233.9 159.6 233.8 159.6 233.7 159.6L230.1 161.5C229.9 161.6 229.6 161.4 229.7 161.2L230.4 157.2C230.4 157.1 230.4 157 230.3 156.9L227.4 154.1C227.2 153.9 227.3 153.6 227.6 153.6L231.6 153C231.7 153 231.8 152.9 231.8 152.8L233.6 149.2C233.6 149 234 149 234.1 149.2Z" fill="#F2756F"/>
<path fill-rule="evenodd" clip-rule="evenodd" d="M249.4 149.2L251.2 152.8C251.2 152.9 251.3 153 251.4 153L255.4 153.6C255.7 153.6 255.8 153.9 255.6 154.1L252.7 156.9C252.6 157 252.6 157.1 252.6 157.2L253.3 161.2C253.3 161.4 253.1 161.6 252.9 161.5L249.3 159.6C249.2 159.6 249.1 159.6 249 159.6L245.4 161.5C245.2 161.6 244.9 161.4 245 161.2L245.7 157.2C245.7 157.1 245.7 157 245.6 156.9L242.7 154.1C242.5 153.9 242.6 153.6 242.9 153.6L246.9 153C247 153 247.1 152.9 247.1 152.8L248.9 149.2C249 149 249.3 149 249.4 149.2Z" fill="#F2756F"/>
<path fill-rule="evenodd" clip-rule="evenodd" d="M186.7 148.1L188.5 151.7C188.5 151.8 188.6 151.9 188.7 151.9L192.7 152.5C193 152.5 193.1 152.8 192.9 153L190 155.8C189.9 155.9 189.9 156 189.9 156.1L190.6 160.1C190.6 160.3 190.4 160.5 190.2 160.4L186.6 158.5C186.5 158.5 186.4 158.5 186.3 158.5L182.7 160.4C182.5 160.5 182.2 160.3 182.3 160.1L183 156.1C183 156 183 155.9 182.9 155.8L180 153C179.8 152.8 179.9 152.5 180.2 152.5L184.2 151.9C184.3 151.9 184.4 151.8 184.4 151.7L186.2 148.1C186.3 147.9 186.6 147.9 186.7 148.1Z" fill="#F2B31B"/>
<path fill-rule="evenodd" clip-rule="evenodd" d="M202.1 148.1L203.9 151.7C203.9 151.8 204 151.9 204.1 151.9L208.1 152.5C208.4 152.5 208.5 152.8 208.3 153L205.4 155.8C205.3 155.9 205.3 156 205.3 156.1L206 160.1C206 160.3 205.8 160.5 205.6 160.4L202 158.5C201.9 158.5 201.8 158.5 201.7 158.5L198.1 160.4C197.9 160.5 197.6 160.3 197.7 160.1L198.4 156.1C198.4 156 198.4 155.9 198.3 155.8L195.4 153C195.2 152.8 195.3 152.5 195.6 152.5L199.6 151.9C199.7 151.9 199.8 151.8 199.8 151.7L201.6 148.1C201.6 147.9 201.9 147.9 202.1 148.1Z" fill="#F2B31B"/>
<path fill-rule="evenodd" clip-rule="evenodd" d="M217.4 148.1L219.2 151.7C219.2 151.8 219.3 151.9 219.4 151.9L223.4 152.5C223.7 152.5 223.8 152.8 223.6 153L220.7 155.8C220.6 155.9 220.6 156 220.6 156.1L221.3 160.1C221.3 160.3 221.1 160.5 220.9 160.4L217.3 158.5C217.2 158.5 217.1 158.5 217 158.5L213.4 160.4C213.2 160.5 212.9 160.3 213 160.1L213.7 156.1C213.7 156 213.7 155.9 213.6 155.8L210.7 153C210.5 152.8 210.6 152.5 210.9 152.5L214.9 151.9C215 151.9 215.1 151.8 215.1 151.7L216.9 148.1C217 147.9 217.3 147.9 217.4 148.1Z" fill="#F2B31B"/>
<path fill-rule="evenodd" clip-rule="evenodd" d="M232.9 148.1L234.7 151.7C234.7 151.8 234.8 151.9 234.9 151.9L238.9 152.5C239.2 152.5 239.3 152.8 239.1 153L236.2 155.8C236.1 155.9 236.1 156 236.1 156.1L236.8 160.1C236.8 160.3 236.6 160.5 236.4 160.4L232.8 158.5C232.7 158.5 232.6 158.5 232.5 158.5L228.9 160.4C228.7 160.5 228.4 160.3 228.5 160.1L229.2 156.1C229.2 156 229.2 155.9 229.1 155.8L226.2 153C226 152.8 226.1 152.5 226.4 152.5L230.4 151.9C230.5 151.9 230.6 151.8 230.6 151.7L232.4 148.1C232.4 147.9 232.8 147.9 232.9 148.1Z" fill="#F2B31B"/>
<path fill-rule="evenodd" clip-rule="evenodd" d="M248.2 148.1L250 151.7C250 151.8 250.1 151.9 250.2 151.9L254.2 152.5C254.5 152.5 254.6 152.8 254.4 153L251.5 155.8C251.4 155.9 251.4 156 251.4 156.1L252.1 160.1C252.1 160.3 251.9 160.5 251.7 160.4L248.1 158.5C248 158.5 247.9 158.5 247.8 158.5L244.2 160.4C244 160.5 243.7 160.3 243.8 160.1L244.5 156.1C244.5 156 244.5 155.9 244.4 155.8L241.5 153C241.3 152.8 241.4 152.5 241.7 152.5L245.7 151.9C245.8 151.9 245.9 151.8 245.9 151.7L247.7 148.1C247.8 147.9 248.1 147.9 248.2 148.1Z" fill="#F2B31B"/>
<path opacity="0.4" d="M195.14 59.6045H190.963V64H189.65V54.0469H195.816V55.127H190.963V58.5312H195.14V59.6045ZM196.705 60.2334C196.705 59.5088 196.846 58.8571 197.129 58.2783C197.416 57.6995 197.812 57.2529 198.318 56.9385C198.829 56.624 199.41 56.4668 200.062 56.4668C201.069 56.4668 201.882 56.8154 202.502 57.5127C203.126 58.21 203.438 59.1374 203.438 60.2949V60.3838C203.438 61.1038 203.299 61.751 203.021 62.3252C202.748 62.8949 202.354 63.3392 201.839 63.6582C201.328 63.9772 200.741 64.1367 200.075 64.1367C199.073 64.1367 198.259 63.7881 197.635 63.0908C197.015 62.3936 196.705 61.4707 196.705 60.3223V60.2334ZM197.977 60.3838C197.977 61.2041 198.166 61.8626 198.544 62.3594C198.927 62.8561 199.437 63.1045 200.075 63.1045C200.718 63.1045 201.228 62.8538 201.606 62.3525C201.985 61.8467 202.174 61.1403 202.174 60.2334C202.174 59.4222 201.98 58.766 201.593 58.2646C201.21 57.7588 200.7 57.5059 200.062 57.5059C199.437 57.5059 198.934 57.7542 198.551 58.251C198.168 58.7477 197.977 59.4587 197.977 60.3838ZM208.6 57.7383C208.408 57.7064 208.201 57.6904 207.978 57.6904C207.148 57.6904 206.585 58.0436 206.289 58.75V64H205.024V56.6035H206.255L206.275 57.458C206.69 56.7972 207.278 56.4668 208.039 56.4668C208.285 56.4668 208.472 56.4987 208.6 56.5625V57.7383ZM213.439 64V54.0469H216.693C217.773 54.0469 218.585 54.2702 219.127 54.7168C219.674 55.1634 219.947 55.8242 219.947 56.6992C219.947 57.1641 219.815 57.5765 219.551 57.9365C219.286 58.292 218.926 58.5677 218.471 58.7637C219.008 58.9141 219.432 59.2012 219.742 59.625C220.057 60.0443 220.214 60.5456 220.214 61.1289C220.214 62.0221 219.924 62.724 219.346 63.2344C218.767 63.7448 217.949 64 216.892 64H213.439ZM214.752 59.3447V62.9268H216.919C217.53 62.9268 218.01 62.7695 218.361 62.4551C218.717 62.1361 218.895 61.6986 218.895 61.1426C218.895 59.944 218.243 59.3447 216.939 59.3447H214.752ZM214.752 58.292H216.734C217.309 58.292 217.767 58.1484 218.108 57.8613C218.455 57.5742 218.628 57.1846 218.628 56.6924C218.628 56.1455 218.468 55.749 218.149 55.5029C217.83 55.2523 217.345 55.127 216.693 55.127H214.752V58.292ZM223.338 64H222.073V53.5H223.338V64ZM225.033 60.2334C225.033 59.5088 225.174 58.8571 225.457 58.2783C225.744 57.6995 226.141 57.2529 226.646 56.9385C227.157 56.624 227.738 56.4668 228.39 56.4668C229.397 56.4668 230.21 56.8154 230.83 57.5127C231.454 58.21 231.767 59.1374 231.767 60.2949V60.3838C231.767 61.1038 231.628 61.751 231.35 62.3252C231.076 62.8949 230.682 63.3392 230.167 63.6582C229.657 63.9772 229.069 64.1367 228.403 64.1367C227.401 64.1367 226.587 63.7881 225.963 63.0908C225.343 62.3936 225.033 61.4707 225.033 60.3223V60.2334ZM226.305 60.3838C226.305 61.2041 226.494 61.8626 226.872 62.3594C227.255 62.8561 227.765 63.1045 228.403 63.1045C229.046 63.1045 229.556 62.8538 229.935 62.3525C230.313 61.8467 230.502 61.1403 230.502 60.2334C230.502 59.4222 230.308 58.766 229.921 58.2646C229.538 57.7588 229.028 57.5059 228.39 57.5059C227.765 57.5059 227.262 57.7542 226.879 58.251C226.496 58.7477 226.305 59.4587 226.305 60.3838ZM233.052 60.2402C233.052 59.0872 233.318 58.1712 233.852 57.4922C234.385 56.8086 235.091 56.4668 235.971 56.4668C236.873 56.4668 237.577 56.7858 238.083 57.4238L238.145 56.6035H239.3V63.8223C239.3 64.7793 239.015 65.5335 238.445 66.085C237.88 66.6364 237.119 66.9121 236.162 66.9121C235.629 66.9121 235.107 66.7982 234.597 66.5703C234.086 66.3424 233.697 66.0303 233.428 65.6338L234.084 64.875C234.626 65.5449 235.289 65.8799 236.073 65.8799C236.688 65.8799 237.167 65.7067 237.509 65.3604C237.855 65.014 238.028 64.5264 238.028 63.8975V63.2617C237.522 63.8451 236.832 64.1367 235.957 64.1367C235.091 64.1367 234.389 63.7881 233.852 63.0908C233.318 62.3936 233.052 61.4434 233.052 60.2402ZM234.323 60.3838C234.323 61.2178 234.494 61.874 234.836 62.3525C235.178 62.8265 235.656 63.0635 236.271 63.0635C237.069 63.0635 237.655 62.7012 238.028 61.9766V58.5996C237.641 57.8932 237.06 57.54 236.285 57.54C235.67 57.54 235.189 57.7793 234.843 58.2578C234.496 58.7363 234.323 59.445 234.323 60.3838ZM240.913 60.2402C240.913 59.0872 241.18 58.1712 241.713 57.4922C242.246 56.8086 242.952 56.4668 243.832 56.4668C244.734 56.4668 245.438 56.7858 245.944 57.4238L246.006 56.6035H247.161V63.8223C247.161 64.7793 246.876 65.5335 246.307 66.085C245.742 66.6364 244.98 66.9121 244.023 66.9121C243.49 66.9121 242.968 66.7982 242.458 66.5703C241.948 66.3424 241.558 66.0303 241.289 65.6338L241.945 64.875C242.488 65.5449 243.151 65.8799 243.935 65.8799C244.55 65.8799 245.028 65.7067 245.37 65.3604C245.716 65.014 245.89 64.5264 245.89 63.8975V63.2617C245.384 63.8451 244.693 64.1367 243.818 64.1367C242.952 64.1367 242.251 63.7881 241.713 63.0908C241.18 62.3936 240.913 61.4434 240.913 60.2402ZM242.185 60.3838C242.185 61.2178 242.355 61.874 242.697 62.3525C243.039 62.8265 243.518 63.0635 244.133 63.0635C244.93 63.0635 245.516 62.7012 245.89 61.9766V58.5996C245.502 57.8932 244.921 57.54 244.146 57.54C243.531 57.54 243.05 57.7793 242.704 58.2578C242.358 58.7363 242.185 59.445 242.185 60.3838ZM252.145 64.1367C251.142 64.1367 250.326 63.8086 249.697 63.1523C249.068 62.4915 248.754 61.6097 248.754 60.5068V60.2744C248.754 59.5407 248.893 58.8867 249.171 58.3125C249.453 57.7337 249.845 57.2826 250.347 56.959C250.853 56.6309 251.399 56.4668 251.987 56.4668C252.949 56.4668 253.696 56.7835 254.229 57.417C254.763 58.0505 255.029 58.9574 255.029 60.1377V60.6641H250.019C250.037 61.3932 250.249 61.9834 250.654 62.4346C251.064 62.8812 251.584 63.1045 252.213 63.1045C252.66 63.1045 253.038 63.0133 253.348 62.8311C253.658 62.6488 253.929 62.4072 254.161 62.1064L254.934 62.708C254.314 63.6605 253.384 64.1367 252.145 64.1367ZM251.987 57.5059C251.477 57.5059 251.049 57.6927 250.702 58.0664C250.356 58.4355 250.142 58.9551 250.06 59.625H253.765V59.5293C253.728 58.8867 253.555 58.39 253.245 58.0391C252.935 57.6836 252.516 57.5059 251.987 57.5059ZM260.074 57.7383C259.883 57.7064 259.675 57.6904 259.452 57.6904C258.623 57.6904 258.06 58.0436 257.764 58.75V64H256.499V56.6035H257.729L257.75 57.458C258.165 56.7972 258.753 56.4668 259.514 56.4668C259.76 56.4668 259.947 56.4987 260.074 56.5625V57.7383ZM265.55 62.0381C265.55 61.6963 265.42 61.432 265.16 61.2451C264.905 61.0537 264.456 60.8896 263.813 60.7529C263.175 60.6162 262.667 60.4521 262.289 60.2607C261.915 60.0693 261.637 59.8415 261.455 59.5771C261.277 59.3128 261.188 58.9984 261.188 58.6338C261.188 58.0277 261.444 57.515 261.954 57.0957C262.469 56.6764 263.125 56.4668 263.923 56.4668C264.761 56.4668 265.44 56.6833 265.96 57.1162C266.484 57.5492 266.746 58.1029 266.746 58.7773H265.475C265.475 58.431 265.326 58.1325 265.03 57.8818C264.739 57.6312 264.369 57.5059 263.923 57.5059C263.463 57.5059 263.103 57.6061 262.843 57.8066C262.583 58.0072 262.453 58.2692 262.453 58.5928C262.453 58.8981 262.574 59.1283 262.815 59.2832C263.057 59.4382 263.492 59.5863 264.121 59.7275C264.755 59.8688 265.267 60.0374 265.659 60.2334C266.051 60.4294 266.34 60.6663 266.527 60.9443C266.719 61.2178 266.814 61.5527 266.814 61.9492C266.814 62.61 266.55 63.141 266.021 63.542C265.493 63.9385 264.807 64.1367 263.964 64.1367C263.371 64.1367 262.847 64.0319 262.392 63.8223C261.936 63.6126 261.578 63.321 261.318 62.9473C261.063 62.569 260.936 62.1611 260.936 61.7236H262.2C262.223 62.1475 262.392 62.4847 262.706 62.7354C263.025 62.9814 263.444 63.1045 263.964 63.1045C264.442 63.1045 264.825 63.0088 265.112 62.8174C265.404 62.6214 265.55 62.3617 265.55 62.0381Z" fill="#0F2F54"/>
<path d="M81 27.8449C81 25.1109 81.4949 22.419 82.4846 19.7691C83.5156 17.1192 85.0002 14.7427 86.9385 12.6396C88.8767 10.5365 91.2273 8.83299 93.9904 7.52907C96.7534 6.22515 99.9082 5.57319 103.455 5.57319C107.702 5.57319 111.373 6.47753 114.466 8.28619C117.6 10.0528 119.93 12.4082 121.456 15.3526L112.239 22.0404C111.826 20.9468 111.27 20.0425 110.569 19.3274C109.909 18.6124 109.166 18.0445 108.342 17.6239C107.517 17.2033 106.651 16.9089 105.744 16.7406C104.878 16.5724 104.032 16.4882 103.207 16.4882C101.475 16.4882 99.9701 16.8458 98.6917 17.5608C97.4545 18.2338 96.4235 19.1381 95.5987 20.2738C94.8152 21.3674 94.2172 22.6293 93.8048 24.0594C93.4336 25.4474 93.2481 26.8355 93.2481 28.2235C93.2481 29.7798 93.4749 31.273 93.9285 32.7031C94.3821 34.1332 95.042 35.3951 95.908 36.4887C96.774 37.5823 97.8256 38.4656 99.0628 39.1386C100.341 39.7695 101.764 40.0849 103.331 40.0849C104.156 40.0849 105.001 40.0008 105.867 39.8326C106.733 39.6223 107.558 39.3068 108.342 38.8862C109.166 38.4235 109.888 37.8557 110.507 37.1827C111.167 36.4676 111.682 35.6054 112.053 34.5959L121.889 40.5897C121.229 42.2301 120.219 43.7023 118.858 45.0062C117.538 46.3101 116.012 47.4037 114.28 48.287C112.589 49.1703 110.754 49.8433 108.775 50.306C106.836 50.7687 104.939 51 103.084 51C99.8257 51 96.8359 50.348 94.1141 49.0441C91.4335 47.6981 89.1035 45.9315 87.124 43.7443C85.1858 41.5571 83.6806 39.0755 82.6083 36.2994C81.5361 33.5233 81 30.7052 81 27.8449Z" fill="#0F2F54"/>
<path d="M134.962 50.6214V5.82557H155.128C157.272 5.82557 159.252 6.28825 161.066 7.21361C162.881 8.09691 164.427 9.27464 165.705 10.7468C167.025 12.1769 168.056 13.8383 168.798 15.7311C169.541 17.5819 169.912 19.4536 169.912 21.3464C169.912 23.9542 169.355 26.3938 168.242 28.6652C167.128 30.8944 165.582 32.7241 163.602 34.1542L172.881 50.6214H159.272L151.54 36.8672H147.024V50.6214H134.962ZM147.024 26.1414H154.633C155.375 26.1414 156.055 25.7208 156.674 24.8796C157.334 24.0383 157.664 22.8606 157.664 21.3464C157.664 19.7901 157.293 18.6124 156.55 17.8132C155.808 16.972 155.066 16.5513 154.323 16.5513H147.024V26.1414Z" fill="#0F2F54"/>
<path d="M214.038 45.3637L211.687 42.84C209.914 43.9336 208.058 44.7328 206.12 45.2375C204.223 45.7423 202.305 45.9946 200.367 45.9946C197.81 45.9946 195.563 45.574 193.624 44.7328C191.727 43.8915 190.119 42.7979 188.799 41.452C187.521 40.106 186.552 38.5918 185.892 36.9093C185.232 35.1847 184.902 33.4602 184.902 31.7357C184.902 29.1699 185.5 26.9616 186.696 25.1109C187.933 23.2181 189.397 21.5777 191.088 20.1897C189.769 18.5493 188.841 17.0981 188.305 15.8363C187.768 14.5324 187.5 13.1023 187.5 11.546C187.5 9.73732 187.83 8.11794 188.49 6.68783C189.15 5.21567 190.037 3.99588 191.15 3.02846C192.305 2.06103 193.666 1.32495 195.233 0.820207C196.8 0.273402 198.511 0 200.367 0C201.975 0 203.543 0.210309 205.068 0.630927C206.635 1.00948 208.017 1.64041 209.213 2.52371C210.45 3.36495 211.44 4.47959 212.182 5.86763C212.924 7.21361 213.296 8.85402 213.296 10.7889C213.296 13.0602 212.78 15.1002 211.749 16.9089C210.718 18.7175 209.337 20.379 207.605 21.8932L212.677 27.3823C213.131 26.2045 213.481 24.9427 213.729 23.5967C213.976 22.2087 214.1 20.7155 214.1 19.1171H223.564C223.523 22.3559 223.152 25.2792 222.451 27.887C221.75 30.4528 220.801 32.7662 219.605 34.8272L229.441 45.3637H214.038ZM201.604 36.6569C202.841 36.6569 204.058 36.3835 205.254 35.8367L198.264 28.2025C196.862 29.3802 196.161 30.5579 196.161 31.7357C196.161 32.1983 196.243 32.7241 196.408 33.313C196.614 33.8598 196.924 34.3856 197.336 34.8903C197.79 35.3951 198.367 35.8157 199.068 36.1522C199.769 36.4887 200.615 36.6569 201.604 36.6569ZM198.14 11.0412C198.14 11.588 198.284 12.0718 198.573 12.4924C198.903 12.8709 199.439 13.4177 200.182 14.1328C201.006 13.5439 201.604 13.0392 201.975 12.6186C202.347 12.1559 202.532 11.588 202.532 10.9151C202.532 10.2 202.326 9.6532 201.914 9.27464C201.542 8.89608 201.027 8.7068 200.367 8.7068C199.666 8.7068 199.109 8.93814 198.697 9.40082C198.326 9.82144 198.14 10.3682 198.14 11.0412Z" fill="#0F2F54"/>
<path d="M278 39.1386C278 41.1575 277.588 42.9031 276.763 44.3753C275.938 45.8054 274.804 46.9831 273.361 47.9085C271.917 48.8338 270.226 49.5278 268.288 49.9905C266.391 50.4111 264.37 50.6214 262.226 50.6214H240.637V5.82557H266.123C267.649 5.82557 269.03 6.16206 270.268 6.83505C271.505 7.50804 272.556 8.39134 273.422 9.48495C274.288 10.5365 274.948 11.7563 275.402 13.1443C275.897 14.4903 276.144 15.8784 276.144 17.3085C276.144 19.4115 275.608 21.4305 274.536 23.3654C273.505 25.2581 271.938 26.6882 269.835 27.6557C272.35 28.4128 274.33 29.7377 275.773 31.6305C277.258 33.4812 278 35.9839 278 39.1386ZM265.752 36.6148C265.752 35.5212 265.463 34.6169 264.886 33.9019C264.309 33.1447 263.566 32.7662 262.659 32.7662H252.7V40.2742H262.226C263.216 40.2742 264.041 39.9588 264.7 39.3278C265.401 38.6969 265.752 37.7926 265.752 36.6148ZM252.7 16.299V23.1761H260.927C261.752 23.1761 262.494 22.9447 263.154 22.4821C263.855 22.0194 264.205 21.094 264.205 19.706C264.205 18.4862 263.917 17.6239 263.339 17.1192C262.762 16.5724 262.082 16.299 261.298 16.299H252.7Z" fill="#0F2F54"/>
</svg>
