<svg width="287" height="174" viewBox="0 0 287 174" fill="none" xmlns="http://www.w3.org/2000/svg">
<path d="M61.796 103.508H7.98047V172.422H61.796V103.508Z" fill="#FDBD71"/>
<path d="M61.7959 103.508L106.67 48.4268L151.545 103.508V172.422H61.7959V103.508Z" fill="#FDD8AC"/>
<path d="M242.053 121.137L177.609 103.508H151.545V172.422H242.053V121.137Z" fill="#BCBFBA"/>
<path d="M227.207 134.886L166.306 118.859V172.422H227.207V134.886Z" fill="#F9F9F3"/>
<path d="M135.687 112.955H101.778V172.422H135.687V112.955Z" fill="#F9F9F3"/>
<path d="M90.222 115.57H69.7249V148.972H90.222V115.57Z" fill="#C3E4F7"/>
<path d="M150.364 103.339H133.916L102.031 64.2003L110.804 53.4878L150.364 103.339Z" fill="#E3C29A"/>
<path d="M47.9624 115.57H21.3921V148.972H47.9624V115.57Z" fill="#C3E4F7"/>
<path d="M101.778 79.7207V100.808H111.31V67.9116L101.778 79.7207Z" fill="#C3E4F7"/>
<path d="M120.926 79.7207L111.31 67.9116V100.808H120.926V79.7207Z" fill="#C3E4F7"/>
<path d="M61.796 103.508H7.98047V109.834H61.796V103.508Z" fill="#CF9A5D"/>
<path d="M7.98047 157.154V127.294" stroke="black" stroke-width="1.2" stroke-miterlimit="10" stroke-linecap="round" stroke-linejoin="round"/>
<path d="M61.796 115.063V172.422H7.98047V162.721" stroke="black" stroke-width="1.2" stroke-miterlimit="10" stroke-linecap="round" stroke-linejoin="round"/>
<path d="M7.98047 122.402V102.242H61.796V111.099" stroke="black" stroke-width="1.2" stroke-miterlimit="10" stroke-linecap="round" stroke-linejoin="round"/>
<path d="M55.0479 37.2083H115.527L61.796 103.508H1.40112L55.0479 37.2083Z" fill="#EB505A"/>
<path d="M151.545 103.508H169.258L123.625 47.2458H115.78L110.803 53.4878L151.545 103.508Z" fill="#CF9A5D"/>
<path d="M135.012 83.2634L151.292 103.339L169.005 103.254" stroke="black" stroke-width="1.2" stroke-miterlimit="10" stroke-linecap="round" stroke-linejoin="round"/>
<path d="M129.698 76.6841L132.228 79.805" stroke="black" stroke-width="1.2" stroke-miterlimit="10" stroke-linecap="round" stroke-linejoin="round"/>
<path d="M109.538 51.8851L126.83 73.1414" stroke="black" stroke-width="1.2" stroke-miterlimit="10" stroke-linecap="round" stroke-linejoin="round"/>
<path d="M177.609 103.508L123.878 37.2083H115.443L61.7117 103.508H70.1467L115.696 47.246C118.901 47.246 120.335 47.246 123.54 47.246L169.09 103.508H177.609Z" fill="#FDBD71"/>
<path d="M52.2644 66.2247C51.5896 66.2247 50.9991 65.6342 50.9991 64.9594V43.3657C50.9991 42.6909 51.5896 42.1005 52.2644 42.1005C52.9392 42.1005 53.5297 42.6909 53.5297 43.3657V64.9594C53.5297 65.6342 53.0236 66.2247 52.2644 66.2247Z" fill="#473847"/>
<path d="M20.633 93.7229H10.2579C9.58313 93.7229 8.99268 93.1324 8.99268 92.4576C8.99268 91.7828 9.58313 91.1924 10.2579 91.1924H20.633C21.3078 91.1924 21.8983 91.7828 21.8983 92.4576C21.8983 93.1324 21.3922 93.7229 20.633 93.7229Z" fill="#473847"/>
<path d="M57.5785 94.5664L60.109 91.6985C61.6273 89.9271 60.362 87.2279 58.0846 87.2279H54.8793L47.5408 94.5664H57.5785Z" fill="#FF738E"/>
<path d="M71.9179 79.6365L74.4484 76.7686C75.9668 74.9972 74.7015 72.298 72.424 72.298H69.2187L61.8802 79.6365H71.9179Z" fill="#FF738E"/>
<path d="M40.4553 85.7096L42.9858 82.8417C44.5041 81.0703 43.2389 78.3711 40.9614 78.3711H37.7561L30.4176 85.7096H40.4553Z" fill="#FF738E"/>
<path d="M20.3799 92.4576L22.9104 89.5897C24.4287 87.8183 23.1634 85.1191 20.886 85.1191H17.6807L10.3422 92.4576H20.3799Z" fill="#FF738E"/>
<path d="M66.7726 73.1415L87.8602 48.4269L66.7726 36.4491V73.1415Z" fill="#FDD8AC"/>
<path d="M30.3334 67.7431L55.048 37.2083H115.105" stroke="black" stroke-width="1.2" stroke-miterlimit="10" stroke-linecap="round" stroke-linejoin="round"/>
<path d="M7.98047 95.3255L27.128 71.623" stroke="black" stroke-width="1.2" stroke-miterlimit="10" stroke-linecap="round" stroke-linejoin="round"/>
<path d="M61.796 103.508H1.40112L5.02819 98.9526" stroke="black" stroke-width="1.2" stroke-miterlimit="10" stroke-linecap="round" stroke-linejoin="round"/>
<path d="M66.7725 31.7255H31.8514V36.4491H66.7725V31.7255Z" fill="#EB505A"/>
<path d="M87.8602 48.4268V43.7032L66.7726 31.7255V36.4491L87.8602 48.4268Z" fill="#CF9A5D"/>
<path d="M54.4575 36.4491H66.7726V73.1415H37.8405V36.4491H50.9991" fill="#FDBD71"/>
<path d="M58.9281 43.3657H45.6851V64.9594H58.9281V43.3657Z" fill="#C3E4F7"/>
<path d="M22.9104 162.721H68.9657C72.7614 162.721 75.8824 165.842 75.8824 169.638C75.8824 171.156 74.6171 172.422 73.0988 172.422H15.2345V170.397C15.3188 166.18 18.6929 162.721 22.9104 162.721Z" fill="#C5E388"/>
<path d="M100.344 55.5966L61.7959 103.508H70.2309L76.8103 95.3256" stroke="black" stroke-width="1.2" stroke-miterlimit="10" stroke-linecap="round" stroke-linejoin="round"/>
<path d="M125.565 39.2327L123.962 37.2083H115.105L102.959 52.307" stroke="black" stroke-width="1.2" stroke-miterlimit="10" stroke-linecap="round" stroke-linejoin="round"/>
<path d="M130.12 44.7153L127.927 42.1005" stroke="black" stroke-width="1.2" stroke-miterlimit="10" stroke-linecap="round" stroke-linejoin="round"/>
<path d="M85.7515 84.36L115.78 47.2458H123.625L169.005 103.254H177.609L133.241 48.5954" stroke="black" stroke-width="1.2" stroke-miterlimit="10" stroke-linecap="round" stroke-linejoin="round"/>
<path d="M79.9312 91.5299L82.546 88.2402" stroke="black" stroke-width="1.2" stroke-miterlimit="10" stroke-linecap="round" stroke-linejoin="round"/>
<path d="M66.7726 51.0417V73.1415H37.8405V36.4491H49.6495" stroke="black" stroke-width="1.2" stroke-miterlimit="10" stroke-linecap="round" stroke-linejoin="round"/>
<path d="M53.7826 36.4491H66.7725V47.499" stroke="black" stroke-width="1.2" stroke-miterlimit="10" stroke-linecap="round" stroke-linejoin="round"/>
<path d="M58.9281 46.9929V64.9596H45.6851V55.681" stroke="black" stroke-width="1.2" stroke-miterlimit="10" stroke-linecap="round" stroke-linejoin="round"/>
<path d="M45.6851 51.0416V43.3657H58.9281" stroke="black" stroke-width="1.2" stroke-miterlimit="10" stroke-linecap="round" stroke-linejoin="round"/>
<path d="M38.009 31.7255H66.8568V36.4491H54.8791" stroke="black" stroke-width="1.2" stroke-miterlimit="10" stroke-linecap="round" stroke-linejoin="round"/>
<path d="M49.312 36.4491H31.8514V31.7255H34.7193" stroke="black" stroke-width="1.2" stroke-miterlimit="10" stroke-linecap="round" stroke-linejoin="round"/>
<path d="M52.2644 63.1038V64.9595" stroke="black" stroke-width="1.2" stroke-miterlimit="10" stroke-linecap="round" stroke-linejoin="round"/>
<path d="M52.2644 43.3657V58.3801" stroke="black" stroke-width="1.2" stroke-miterlimit="10" stroke-linecap="round" stroke-linejoin="round"/>
<path d="M80.5216 44.0406L66.8568 36.4491" stroke="black" stroke-width="1.2" stroke-miterlimit="10" stroke-linecap="round" stroke-linejoin="round"/>
<path d="M71.8336 34.5933L87.8602 43.7031V48.0893L84.2331 46.0649" stroke="black" stroke-width="1.2" stroke-miterlimit="10" stroke-linecap="round" stroke-linejoin="round"/>
<path d="M66.8568 31.7255L69.2186 33.0751" stroke="black" stroke-width="1.2" stroke-miterlimit="10" stroke-linecap="round" stroke-linejoin="round"/>
<path d="M74.9546 63.3567L87.8602 48.0894" stroke="black" stroke-width="1.2" stroke-miterlimit="10" stroke-linecap="round" stroke-linejoin="round"/>
<path d="M66.7726 73.1415L72.7615 66.056" stroke="black" stroke-width="1.2" stroke-miterlimit="10" stroke-linecap="round" stroke-linejoin="round"/>
<path d="M31.5985 115.57H47.9624V148.972H21.3921V115.57H25.7783" stroke="black" stroke-width="1.2" stroke-miterlimit="10" stroke-linecap="round" stroke-linejoin="round"/>
<path d="M49.8181 162.721H68.2065C72.5084 162.721 75.9667 166.18 75.9667 170.482V172.422H15.4875V170.482C15.4875 166.18 18.9459 162.721 23.2478 162.721H45.0945" stroke="black" stroke-width="1.2" stroke-miterlimit="10" stroke-linecap="round" stroke-linejoin="round"/>
<path d="M34.7195 141.212V148.972" stroke="black" stroke-width="1.2" stroke-miterlimit="10" stroke-linecap="round" stroke-linejoin="round"/>
<path d="M34.7195 115.57V135.982" stroke="black" stroke-width="1.2" stroke-miterlimit="10" stroke-linecap="round" stroke-linejoin="round"/>
<path d="M21.3921 132.271H47.9624" stroke="black" stroke-width="1.2" stroke-miterlimit="10" stroke-linecap="round" stroke-linejoin="round"/>
<path d="M101.778 163.312V141.212" stroke="black" stroke-width="1.2" stroke-miterlimit="10" stroke-linecap="round" stroke-linejoin="round"/>
<path d="M101.778 136.151V112.955H135.687V172.422H101.778V168.289" stroke="black" stroke-width="1.2" stroke-miterlimit="10" stroke-linecap="round" stroke-linejoin="round"/>
<path d="M86.6793 148.972H69.7249V115.57H90.1376V119.281" stroke="black" stroke-width="1.2" stroke-miterlimit="10" stroke-linecap="round" stroke-linejoin="round"/>
<path d="M90.1377 123.414V148.972" stroke="black" stroke-width="1.2" stroke-miterlimit="10" stroke-linecap="round" stroke-linejoin="round"/>
<path d="M126.83 107.556H139.989" stroke="black" stroke-width="1.2" stroke-miterlimit="10" stroke-linecap="round" stroke-linejoin="round"/>
<path d="M97.7291 107.556H121.853" stroke="black" stroke-width="1.2" stroke-miterlimit="10" stroke-linecap="round" stroke-linejoin="round"/>
<path d="M94.5238 100.808H128.18" stroke="black" stroke-width="1.2" stroke-miterlimit="10" stroke-linecap="round" stroke-linejoin="round"/>
<path d="M101.778 100.808V79.7208L111.31 69.0083V100.808" stroke="black" stroke-width="1.2" stroke-miterlimit="10" stroke-linecap="round" stroke-linejoin="round"/>
<path d="M120.926 100.808V79.7208L111.31 69.0083" stroke="black" stroke-width="1.2" stroke-miterlimit="10" stroke-linecap="round" stroke-linejoin="round"/>
<path d="M79.9312 115.57V148.972" stroke="black" stroke-width="1.2" stroke-miterlimit="10" stroke-linecap="round" stroke-linejoin="round"/>
<path d="M72.7614 132.271H90.1375" stroke="black" stroke-width="1.2" stroke-miterlimit="10" stroke-linecap="round" stroke-linejoin="round"/>
<path d="M75.8826 172.422H271.322" stroke="black" stroke-width="1.2" stroke-miterlimit="10" stroke-linecap="round" stroke-linejoin="round"/>
<path d="M151.292 121.812V172.422" stroke="black" stroke-width="1.2" stroke-miterlimit="10" stroke-linecap="round" stroke-linejoin="round"/>
<path d="M151.292 103.339V117.341" stroke="black" stroke-width="1.2" stroke-miterlimit="10" stroke-linecap="round" stroke-linejoin="round"/>
<path d="M211.265 112.617L242.053 121.137V172.422" stroke="black" stroke-width="1.2" stroke-miterlimit="10" stroke-linecap="round" stroke-linejoin="round"/>
<path d="M177.609 103.255L206.541 111.268" stroke="black" stroke-width="1.2" stroke-miterlimit="10" stroke-linecap="round" stroke-linejoin="round"/>
<path d="M171.114 109.581L248.042 129.825" stroke="black" stroke-width="1.2" stroke-miterlimit="10" stroke-linecap="round" stroke-linejoin="round"/>
<path d="M152.81 104.773L165.969 108.231" stroke="black" stroke-width="1.2" stroke-miterlimit="10" stroke-linecap="round" stroke-linejoin="round"/>
<path d="M210.759 130.753L226.954 134.886V172.422H165.969V119.281L191.189 125.692" stroke="black" stroke-width="1.2" stroke-miterlimit="10" stroke-linecap="round" stroke-linejoin="round"/>
<path d="M196.756 127.126L203.842 128.981" stroke="black" stroke-width="1.2" stroke-miterlimit="10" stroke-linecap="round" stroke-linejoin="round"/>
<path d="M274.19 160.528H226.954C224.508 160.528 222.483 162.553 222.483 164.999V167.867C222.483 170.313 224.508 172.337 226.954 172.337H285.999C286.083 165.842 280.769 160.528 274.19 160.528Z" fill="#C5E388"/>
<path d="M269.129 160.528H274.443C280.685 160.528 285.746 165.589 285.746 171.831V172.337H222.483V166.855C222.483 163.396 225.351 160.528 228.809 160.528H262.296" stroke="black" stroke-width="1.2" stroke-miterlimit="10" stroke-linecap="round" stroke-linejoin="round"/>
<path d="M125.396 138.935V147.37" stroke="black" stroke-width="1.2" stroke-miterlimit="10" stroke-linecap="round" stroke-linejoin="round"/>
<path d="M166.306 134.886H183.007" stroke="black" stroke-width="1.2" stroke-miterlimit="10" stroke-linecap="round" stroke-linejoin="round"/>
<path d="M166.306 144.333H208.144" stroke="black" stroke-width="1.2" stroke-miterlimit="10" stroke-linecap="round" stroke-linejoin="round"/>
<path d="M166.306 153.865H196.503" stroke="black" stroke-width="1.2" stroke-miterlimit="10" stroke-linecap="round" stroke-linejoin="round"/>
<path d="M166.306 163.312H208.566" stroke="black" stroke-width="1.2" stroke-miterlimit="10" stroke-linecap="round" stroke-linejoin="round"/>
<path d="M11.1857 92.6263H20.886" stroke="black" stroke-width="1.2" stroke-miterlimit="10" stroke-linecap="round" stroke-linejoin="round"/>
<path d="M30.3334 86.047H40.0337" stroke="black" stroke-width="1.2" stroke-miterlimit="10" stroke-linecap="round" stroke-linejoin="round"/>
<path d="M47.8781 94.5664H57.5783" stroke="black" stroke-width="1.2" stroke-miterlimit="10" stroke-linecap="round" stroke-linejoin="round"/>
<path d="M62.049 79.6365H71.6649" stroke="black" stroke-width="1.2" stroke-miterlimit="10" stroke-linecap="round" stroke-linejoin="round"/>
<path d="M121.516 57.0305H131.3" stroke="black" stroke-width="1.2" stroke-miterlimit="10" stroke-linecap="round" stroke-linejoin="round"/>
<path d="M135.687 67.9116H139.989" stroke="black" stroke-width="1.2" stroke-miterlimit="10" stroke-linecap="round" stroke-linejoin="round"/>
<path d="M139.989 81.9983H151.292" stroke="black" stroke-width="1.2" stroke-miterlimit="10" stroke-linecap="round" stroke-linejoin="round"/>
<path d="M156.859 95.2412H161.92" stroke="black" stroke-width="1.2" stroke-miterlimit="10" stroke-linecap="round" stroke-linejoin="round"/>
<path d="M231.177 25.1068C231.177 28.4127 229.654 32.6101 227.425 37.0674C224.973 41.7105 222.225 46.1307 219.142 50.4024C216.133 54.6369 213.124 58.4628 210.858 61.2115C210.19 62.0658 209.558 62.8087 209.038 63.4402C208.555 63.9973 207.85 64.3316 207.144 64.3316C206.401 64.3316 205.695 64.0345 205.212 63.4773L205.175 63.4402C204.655 62.8087 204.024 62.0658 203.355 61.2115C201.089 58.4628 198.081 54.6369 195.072 50.4024C191.989 46.1679 189.24 41.7105 186.789 37.0674C184.523 32.6472 183.037 28.4499 183.037 25.1068C183.037 15.4121 188.795 6.6831 197.709 2.93148C200.086 1.92858 202.612 1.29712 205.175 1.1114C205.807 1.07425 206.438 1.03711 207.07 1.03711C213.459 1.03711 219.587 3.56295 224.082 8.0946C228.651 12.5891 231.177 18.718 231.177 25.1068Z" fill="#C52828"/>
<path d="M227.351 25.1069C227.351 28.4128 225.828 32.6101 223.599 37.0675C221.148 41.7106 218.399 46.1308 215.316 50.4024C212.307 54.6369 209.298 58.4628 207.033 61.2115C206.364 62.0658 205.733 62.8087 205.213 63.4402L205.175 63.4773L205.138 63.4402C204.618 62.8087 203.987 62.0658 203.318 61.2115C201.052 58.4628 198.044 54.6369 195.035 50.4024C191.952 46.1679 189.203 41.7106 186.752 37.0675C184.486 32.6473 183 28.4499 183 25.1069C183 15.4121 188.757 6.68315 197.672 2.93154C200.049 1.92863 202.575 1.29717 205.138 1.11145C207.701 1.29717 210.227 1.92863 212.604 2.93154C221.593 6.68315 227.388 15.4121 227.351 25.1069Z" fill="#F44335"/>
<path d="M218.51 23.8069C218.51 30.0843 213.422 35.1731 207.107 35.2103C206.475 35.2103 205.844 35.1731 205.213 35.0617C199.752 34.1331 195.741 29.3786 195.741 23.8069C195.741 18.2352 199.752 13.5178 205.213 12.552C205.844 12.4406 206.475 12.4034 207.107 12.4034C213.384 12.4034 218.51 17.4923 218.51 23.8069Z" fill="#CFD8DC"/>
<path d="M214.722 23.8068C214.722 29.3785 210.71 34.0959 205.213 35.0617C199.752 34.1331 195.741 29.3785 195.741 23.8068C195.741 18.2351 199.752 13.5178 205.213 12.552C210.673 13.4806 214.684 18.2351 214.722 23.8068Z" fill="#F5F5F5"/>
<path d="M184.449 17.0094C186.677 10.769 191.432 5.5688 197.746 2.89438C200.124 1.89147 202.649 1.26001 205.212 1.07429C205.844 1.03714 206.475 1 207.107 1C213.496 1 219.625 3.52584 224.119 8.05749C228.651 12.5891 231.177 18.718 231.177 25.1069C231.177 28.4128 229.654 32.6101 227.425 37.0675C225.456 40.7819 223.302 44.385 220.962 47.8394" stroke="black" stroke-width="1.2" stroke-miterlimit="10" stroke-linecap="round" stroke-linejoin="round"/>
<path d="M215.464 55.3427C213.756 57.5714 212.196 59.5772 210.858 61.2116C210.19 62.0659 209.558 62.8088 209.038 63.4402C208.555 63.9974 207.85 64.3317 207.144 64.3317C206.401 64.3317 205.695 64.0346 205.212 63.4774L205.175 63.4402C204.655 62.8088 204.024 62.0659 203.355 61.2116C201.089 58.4629 198.081 54.637 195.072 50.4025C191.989 46.168 189.24 41.7106 186.789 37.0675C184.523 32.6473 183.037 28.45 183.037 25.1069C183.037 23.6954 183.149 22.3211 183.371 20.9839" stroke="black" stroke-width="1.2" stroke-miterlimit="10" stroke-linecap="round" stroke-linejoin="round"/>
<path d="M219.142 50.3652C218.696 50.9967 218.213 51.6653 217.767 52.2968" stroke="black" stroke-width="1.2" stroke-miterlimit="10" stroke-linecap="round" stroke-linejoin="round"/>
<path d="M195.741 24.0297C195.741 23.9554 195.741 23.8811 195.741 23.8069C195.741 18.2352 199.752 13.5178 205.213 12.552C205.844 12.4406 206.475 12.4034 207.107 12.4034C208.667 12.4034 210.19 12.7377 211.527 13.2949" stroke="black" stroke-width="1.2" stroke-miterlimit="10" stroke-linecap="round" stroke-linejoin="round"/>
<path d="M214.35 15.0035C216.876 17.0836 218.51 20.2409 218.51 23.8068C218.51 30.0843 213.421 35.1731 207.107 35.2102C206.475 35.2102 205.844 35.1731 205.212 35.0617C200.904 34.3188 197.524 31.2358 196.261 27.2241" stroke="black" stroke-width="1.2" stroke-miterlimit="10" stroke-linecap="round" stroke-linejoin="round"/>
</svg>
