<svg width="168" height="126" viewBox="0 0 168 126" fill="none" xmlns="http://www.w3.org/2000/svg">
<path d="M100.426 1.64209C100.34 1.87993 100.233 2.17928 100.106 2.53194C100.016 2.77388 99.9216 3.04041 99.8109 3.33156C97.7565 8.95766 92.4461 23.1787 88.8498 29.7234C88.6407 30.1006 88.4193 30.5189 88.1855 30.97C83.277 40.2949 72.2873 63.6645 56.9632 62.5532C40.905 61.3886 40.7738 43.5098 40.7738 43.5098C40.7738 43.5098 46.4614 32.684 62.7943 20.6732C66.571 17.893 70.6347 15.3465 74.637 13.0747C86.1434 6.54238 97.2111 2.2572 99.9954 1.22383C100.262 1.11721 100.52 1.37555 100.426 1.64209Z" fill="#4285F4"/>
<path d="M100.102 2.53194C100.012 2.77388 99.9176 3.04041 99.8069 3.33156C97.7524 8.95765 92.4421 23.1787 88.8458 29.7234C88.6367 30.1006 88.4152 30.5189 88.1815 30.97C85.1429 33.2335 82.7563 34.4596 86.2993 28.5588C92.2248 18.6844 99.9873 1.64209 99.9873 1.64209C99.9873 1.64209 100.032 1.96195 100.102 2.53194Z" fill="#3D7DD8"/>
<path d="M100.426 1.64212C100.278 2.04398 100.073 2.62217 99.811 3.33159C99.811 3.33159 84.5074 10.6349 79.3283 13.3044C77.2369 14.3788 75.6582 14.0015 74.6371 13.0706C86.1435 6.5383 97.2112 2.25312 99.9955 1.21975C100.262 1.11724 100.52 1.37558 100.426 1.64212Z" fill="white"/>
<path d="M80.0786 10.1181C74.4074 13.0583 68.3016 16.6176 62.7903 20.6732C46.4574 32.6799 40.7698 43.5056 40.7698 43.5056C40.7698 43.5056 40.901 61.3845 56.9592 62.5531C73.0173 63.7218 84.3187 37.9902 88.8499 29.7274C92.8932 22.3503 99.1303 5.23832 100.422 1.64615C100.516 1.37961 100.258 1.12127 99.9955 1.22378C97.9534 1.9865 91.4498 4.4961 83.5847 8.35481" stroke="#1C1C1C" stroke-miterlimit="10" stroke-linecap="round"/>
<path d="M167 58.227C166.951 60.6956 162.26 64.0499 157.47 69.3849C152.685 74.7116 132.247 96.0925 123.951 104.187C121.138 106.935 117.095 110.469 111.969 113.873C101.976 120.504 87.8697 126.618 70.7167 125.31C44.7637 123.337 29.5584 107.935 21.4679 94.3087C13.3691 80.6863 12.0363 61.1057 12.2824 55.8035C12.2824 55.8035 11.8272 31.5728 25.7817 16.671C25.7858 16.6628 25.7899 16.6587 25.7899 16.6587C31.293 10.7907 39.0228 6.37426 49.9018 5.45161C54.7242 5.04155 59.1118 5.25478 63.1059 5.96419C63.1059 5.96419 63.11 5.96418 63.1223 5.96828C91.0149 10.9588 99.6263 40.5204 101.439 55.8035C103.51 73.2805 113.88 89.2731 130.763 71.5049C136.483 65.4852 141.724 60.7571 145.734 57.8457C153.439 52.2524 156.629 53.3431 150.027 64.7798C149.974 64.8742 150.089 64.9685 150.167 64.8947C152.512 62.6516 162.772 53.3431 167 58.227Z" fill="#52D2FF"/>
<path d="M145.738 57.8498C134.708 68.7739 128.864 86.62 114.475 82.466C96.7027 77.332 95.124 47.512 88.85 29.7234C82.6785 12.2177 63.713 6.15694 63.1225 5.97241C91.0151 10.9629 99.6265 40.5245 101.439 55.8077C103.51 73.2847 113.88 89.2772 130.763 71.5091C136.483 65.4852 141.724 60.7613 145.738 57.8498Z" fill="black"/>
<path d="M111.973 113.873C101.98 120.504 87.8739 126.618 70.7208 125.31C44.7678 123.337 29.5626 107.935 21.472 94.3087C13.3732 80.6863 12.0405 61.1057 12.2865 55.8036C12.2865 55.8036 11.8313 31.5728 25.7859 16.671C25.4291 17.3722 11.0604 45.7077 18.5851 74.7609C26.2082 104.187 53.2602 133.015 107.172 115.439C108.82 114.902 110.419 114.381 111.973 113.873Z" fill="white"/>
<path d="M61.0187 43.596C54.4371 43.596 49.1063 38.2611 49.1063 31.6836C49.1063 25.1021 54.4412 19.7712 61.0187 19.7712C67.6002 19.7712 72.9311 25.1062 72.9311 31.6836C72.9311 38.2611 67.5961 43.596 61.0187 43.596Z" fill="white"/>
<path d="M60.8178 37.5064C57.7013 37.5064 55.1794 34.9804 55.1794 31.868C55.1794 28.7515 57.7054 26.2296 60.8178 26.2296C63.9343 26.2296 66.4562 28.7556 66.4562 31.868C66.4562 34.9845 63.9302 37.5064 60.8178 37.5064Z" fill="#1C1C1C"/>
<path d="M56.0078 33.3278C55.1098 33.3278 54.3798 32.5979 54.3798 31.6998C54.3798 30.8018 55.1098 30.0719 56.0078 30.0719C56.9058 30.0719 57.6358 30.8018 57.6358 31.6998C57.6358 32.5979 56.9058 33.3278 56.0078 33.3278Z" fill="white"/>
<path d="M33.6345 109.469C28.4718 104.692 24.4778 99.3813 21.4679 94.3129C13.3732 80.6864 12.0364 61.1058 12.2865 55.8078C12.2865 55.8078 12.2537 54.1224 12.4628 51.3627" stroke="#1C1C1C" stroke-miterlimit="10" stroke-linecap="round"/>
<path d="M142.568 85.1807C135.671 92.3691 128.212 100.025 123.951 104.183C115.66 112.278 96.6698 127.286 70.7168 125.314C56.8812 124.26 46.0964 119.388 37.8172 113.008" stroke="#1C1C1C" stroke-miterlimit="10" stroke-linecap="round"/>
<path d="M13.041 46.1588C15.0749 32.1961 22.5504 7.76849 49.9017 5.45162C88.4069 2.1916 99.3679 38.3307 101.439 55.8035C103.514 73.2805 113.88 89.2731 130.763 71.5008C147.46 53.9213 160.074 47.3808 150.027 64.7799C149.974 64.8701 150.093 64.9685 150.167 64.8947C152.156 62.9879 159.869 55.9717 164.736 56.9107C166.311 57.2142 167.033 59.039 166.098 60.343C164.503 62.5655 161.013 65.4319 157.466 69.3767C155.518 71.5459 150.987 76.3642 145.734 81.8632" stroke="#1C1C1C" stroke-miterlimit="10" stroke-linecap="round"/>
<path d="M139.075 17.819C139.062 17.9215 139.042 18.0281 139.001 18.1307C136.86 23.9823 131.685 37.7482 128.175 44.1616C123.644 52.4285 112.342 78.156 96.2843 76.9873C92.8397 76.7372 90.1292 75.7202 87.9928 74.2727C87.9887 74.2686 87.9887 74.2686 87.9887 74.2686C83.8757 71.4801 81.9033 67.1006 80.9601 63.5782C80.0498 60.1787 80.7797 56.5538 82.871 53.7284C86.008 49.4843 92.0319 42.5213 102.115 35.1073C114.942 25.6799 130.984 18.9139 137.279 16.4371C138.234 16.0639 139.185 16.8677 139.075 17.819Z" fill="white"/>
<path d="M138.689 17.8235C138.677 17.926 138.656 18.0285 138.615 18.131C136.475 23.9827 131.3 37.7486 127.79 44.162C123.258 52.4289 111.957 78.1564 95.8988 76.9877C92.4543 76.7376 89.7437 75.7206 87.6073 74.2731C87.9189 74.392 100.918 79.3743 113.892 62.5862C126.81 45.8637 135.122 25.4056 138.689 17.8235Z" fill="#4285F4"/>
<path d="M122.356 23.0598C115.902 26.2542 108.594 30.3426 102.111 35.1116C92.0278 42.5256 86.0039 49.4885 82.8669 53.7286" stroke="#1C1C1C" stroke-miterlimit="10" stroke-linecap="round"/>
<path d="M80.5131 59.1046C80.3819 60.1953 80.4311 61.3107 80.673 62.4097C81.854 67.7897 85.4339 76.2043 96.2842 76.9957C112.342 78.1644 123.644 52.4328 128.175 44.17C131.829 37.5023 137.278 22.8753 139.247 17.4747C139.542 16.6628 138.742 15.8755 137.935 16.1912C135.815 17.0113 132.202 18.4712 127.818 20.4723" stroke="#1C1C1C" stroke-miterlimit="10" stroke-linecap="round"/>
<path d="M59.8746 44.3709C52.8747 44.3709 47.2035 38.6997 47.2035 31.6998C47.2035 28.0052 48.7864 24.6795 51.3083 22.3627" stroke="#1C1C1C" stroke-miterlimit="10" stroke-linecap="round"/>
<path d="M53.6785 20.6446C55.5115 19.6153 57.6234 19.0289 59.8746 19.0289C66.8744 19.0289 72.5456 24.7001 72.5456 31.6999C72.5456 37.5926 68.5229 42.5462 63.0731 43.965" stroke="#1C1C1C" stroke-miterlimit="10" stroke-linecap="round"/>
<path d="M53.6785 31.7C53.6785 28.28 56.4506 25.5039 59.8746 25.5039C63.2946 25.5039 66.0707 28.2759 66.0707 31.7C66.0707 35.1199 63.2987 37.8961 59.8746 37.8961C57.1272 37.8961 54.798 36.1082 53.9861 33.6314" stroke="#1C1C1C" stroke-miterlimit="10" stroke-linecap="round"/>
<path d="M5.05287 31.667C5.05287 31.667 8.04635 32.9505 8.51382 36.108C8.9813 39.2655 5.11848 43.5835 8.94439 46.9378C12.7703 50.2881 18.9664 51.8873 18.5645 56.2627" stroke="#1C1C1C" stroke-miterlimit="10"/>
<path d="M45.8298 68.6058L15.2676 88.375C14.4885 88.8794 13.4469 88.6539 12.9466 87.8789L1.15724 69.6514C0.652862 68.8723 0.878395 67.8308 1.65342 67.3305L32.2156 47.5612C32.9947 47.0569 34.0363 47.2824 34.5366 48.0574L46.3259 66.2848C46.8303 67.0599 46.6089 68.1014 45.8298 68.6058Z" fill="white"/>
<path d="M45.7933 68.0051L17.2041 86.4149C16.4651 86.8944 15.4769 86.6794 14.9995 85.9478L6.47585 72.8287L3.63603 68.4598C3.15442 67.7241 3.36616 66.7404 4.10518 66.265L17.4906 57.643L32.6944 47.8512C33.4335 47.3758 34.4257 47.5866 34.9032 48.3223L35.1232 48.6613L36.6885 51.071V51.0751L46.2666 65.8145C46.7441 66.5502 46.5324 67.5298 45.7933 68.0051Z" fill="#F7941D"/>
<path d="M35.9394 50.8463L26.1301 71.1911L6.40618 72.8325L3.63022 68.4177C3.15944 67.6743 3.36642 66.6802 4.08882 66.1999L17.1732 57.4873L34.4053 48.4113L35.9394 50.8463Z" fill="#CC7619"/>
<path d="M40.7737 71.8739L14.7756 88.6907C14.2671 89.0187 13.5905 88.8752 13.2624 88.3667L7.82086 79.9563" stroke="#1C1C1C" stroke-miterlimit="10" stroke-linecap="round"/>
<path d="M5.90586 76.9999L0.833356 69.1553C0.505303 68.6469 0.64883 67.9702 1.15731 67.6422L32.7036 47.2373C33.2121 46.9093 33.8887 47.0528 34.2168 47.5613L46.6418 66.7729C46.9698 67.2813 46.8263 67.9579 46.3178 68.286L44.3946 69.5326" stroke="#1C1C1C" stroke-miterlimit="10" stroke-linecap="round"/>
<path d="M23.8708 69.266L3.11326 70.7873C2.39564 70.8406 1.70263 70.4962 1.31306 69.8893C0.722569 68.9748 0.985021 67.7529 1.89947 67.1624L31.9696 47.7129C32.884 47.1225 34.106 47.3849 34.6965 48.2994L34.7088 48.3158C35.0942 48.9104 35.1312 49.669 34.8031 50.2964L25.4782 68.208C25.1584 68.8149 24.5515 69.2168 23.8708 69.266Z" fill="white"/>
<path d="M23.7655 68.5164L3.69402 70.3777C3.00406 70.4544 2.3601 70.1798 2.00885 69.659C1.48197 68.8717 1.78304 67.7776 2.68626 67.2164L32.275 48.737C33.1741 48.1758 34.3324 48.3575 34.8592 49.1448L34.8676 49.161C35.2105 49.6737 35.2105 50.3439 34.8718 50.9132L25.1873 67.1719C24.8611 67.721 24.4179 68.4437 23.7655 68.5164Z" fill="#FFB45A"/>
<path d="M24.3629 69.2291L2.58844 70.8243C2.19068 70.853 1.81342 70.6643 1.59608 70.3322L0.829261 69.1471C0.501208 68.6427 0.648835 67.9702 1.15322 67.6422L32.7118 47.2291C33.2162 46.901 33.8887 47.0487 34.2168 47.5531L34.9877 48.7463C35.2009 49.0744 35.2214 49.4927 35.041 49.8412L25.2487 68.6468C25.0723 68.9831 24.7402 69.2045 24.3629 69.2291Z" stroke="#1C1C1C" stroke-miterlimit="10"/>
<path d="M23.1778 38.4291C23.1778 38.4291 30.2227 35.8621 32.1295 32.11L4.94625 31.7902C4.79863 31.7902 4.76172 31.9952 4.90114 32.0403L23.1778 38.4291Z" fill="#4285F4"/>
<path d="M4.79048 31.5851L19.9834 26.9185C20.008 26.9103 20.0326 26.9144 20.0531 26.9226L31.6539 31.9049C31.7564 31.95 31.7236 32.1059 31.6129 32.1018L4.81919 31.786C4.70027 31.786 4.67566 31.622 4.79048 31.5851Z" fill="white"/>
<path d="M7.9604 31.6464L21.3654 27.5294C21.3859 27.5212 21.4064 27.5253 21.4269 27.5335L31.6622 31.9294C31.7524 31.9704 31.7237 32.1057 31.6253 32.1057L7.985 31.8268C7.87839 31.8268 7.85789 31.6792 7.9604 31.6464Z" fill="#F4B400"/>
<path d="M23.1491 28.2554L31.6539 31.9049C31.7564 31.95 31.7236 32.1059 31.6129 32.1018L4.81919 31.786C4.70027 31.786 4.67566 31.6179 4.79048 31.5851L11.1547 29.6291" stroke="black" stroke-miterlimit="10" stroke-linecap="round"/>
<path d="M14.0293 28.7514L19.9834 26.9226C20.008 26.9144 20.0327 26.9184 20.0532 26.9266L21.4351 27.5171" stroke="black" stroke-miterlimit="10" stroke-linecap="round"/>
</svg>
