<svg width="263" height="232" viewBox="0 0 263 232" fill="none" xmlns="http://www.w3.org/2000/svg">
<path d="M213.951 27.556H81.7649C74.4111 27.556 68.4497 33.5156 68.4497 40.8672V192.066C68.4497 199.418 74.4111 205.378 81.7649 205.378H213.951C221.305 205.378 227.266 199.418 227.266 192.066V40.8672C227.266 33.5156 221.305 27.556 213.951 27.556Z" fill="#F8F9F9"/>
<path d="M102.074 79.1243L95.887 82.4965C95.532 82.6947 95.1997 82.9311 94.896 83.2015C98.6191 86.3393 103.329 88.0662 108.198 88.079C113.068 88.0917 117.787 86.3896 121.526 83.2713C121.193 82.9841 120.826 82.7388 120.434 82.541L113.808 79.2322C113.389 79.0211 113.036 78.6981 112.79 78.2991C112.543 77.9 112.412 77.4405 112.41 76.9713V74.3675C112.594 74.158 112.81 73.8849 113.046 73.5673C113.94 72.2963 114.634 70.8955 115.104 69.4139C115.53 69.285 115.903 69.0231 116.17 68.6666C116.436 68.31 116.581 67.8775 116.584 67.4325V64.6572C116.582 64.3663 116.519 64.0789 116.399 63.8141C116.279 63.5492 116.103 63.3128 115.885 63.1203V59.113C115.885 59.113 116.711 52.8702 108.262 52.8702C99.8129 52.8702 100.639 59.113 100.639 59.113V63.1203C100.421 63.3131 100.247 63.5497 100.128 63.8146C100.009 64.0795 99.9467 64.3667 99.9464 64.6572V67.4325C99.9464 67.7808 100.034 68.1234 100.202 68.4287C100.37 68.7339 100.612 68.992 100.906 69.179C101.366 71.0663 102.221 72.8346 103.415 74.3675V76.9078C103.411 77.3635 103.284 77.8097 103.048 78.1997C102.813 78.5896 102.476 78.909 102.074 79.1243Z" fill="#E7ECED"/>
<path d="M108.63 46.6146C104.344 46.5306 100.137 47.7776 96.5894 50.1839C93.0417 52.5902 90.3279 56.0372 88.822 60.05C87.3161 64.0627 87.0922 68.4436 88.1811 72.5889C89.2701 76.7342 91.6183 80.4398 94.9022 83.1951C95.2038 82.9268 95.534 82.6925 95.8868 82.4965L102.074 79.1242C102.471 78.9056 102.803 78.5848 103.034 78.1951C103.265 77.8054 103.388 77.3609 103.389 76.9078V74.3675C102.196 72.8346 101.34 71.0662 100.88 69.1789C100.587 68.9911 100.346 68.7329 100.178 68.4278C100.01 68.1227 99.922 67.7805 99.9208 67.4325V64.6572C99.9223 64.3668 99.9847 64.0801 100.104 63.8153C100.223 63.5506 100.397 63.3138 100.613 63.1203V59.113C100.613 59.113 99.7937 52.8702 108.236 52.8702C116.679 52.8702 115.86 59.113 115.86 59.113V63.1203C116.077 63.3131 116.251 63.5497 116.37 63.8146C116.49 64.0795 116.552 64.3667 116.552 64.6572V67.4325C116.551 67.8769 116.407 68.3093 116.142 68.6659C115.876 69.0226 115.504 69.2848 115.078 69.4139C114.607 70.893 113.913 72.2914 113.02 73.561C112.822 73.8407 112.61 74.1099 112.385 74.3675V76.9713C112.387 77.4394 112.519 77.8976 112.766 78.2954C113.012 78.6932 113.364 79.0152 113.782 79.2258L120.434 82.56C120.824 82.7579 121.189 83.0032 121.52 83.2903C124.778 80.5866 127.13 76.9504 128.26 72.8706C129.389 68.7909 129.243 64.4632 127.839 60.4693C126.435 56.4755 123.842 53.007 120.408 50.5302C116.974 48.0534 112.864 46.6869 108.63 46.6146Z" fill="#556080"/>
<path d="M111.286 53.2004C110.291 52.9686 109.271 52.8577 108.249 52.8701C99.7939 52.8701 100.626 59.1129 100.626 59.1129V63.1203C100.409 63.3131 100.235 63.5497 100.115 63.8146C99.9959 64.0795 99.934 64.3666 99.9336 64.6572V67.4325C99.9337 67.7807 100.022 68.1234 100.189 68.4286C100.357 68.7339 100.599 68.992 100.893 69.1789C101.353 71.0662 102.209 72.8346 103.402 74.3675V76.9078C103.4 77.3615 103.276 77.8064 103.044 78.1962C102.812 78.586 102.479 78.9064 102.081 79.1242L95.8934 82.4965C95.5383 82.6947 95.206 82.9311 94.9023 83.2014C98.6255 86.3393 103.335 88.0662 108.205 88.0789C113.074 88.0917 117.793 86.3896 121.533 83.2713C121.2 82.9841 120.833 82.7388 120.44 82.5409L113.814 79.2322C113.395 79.0211 113.043 78.6981 112.796 78.299C112.549 77.9 112.418 77.4404 112.417 76.9713V74.3675C112.601 74.1579 112.817 73.8848 113.052 73.5673C113.947 72.2963 114.641 70.8955 115.11 69.4139C115.536 69.285 115.91 69.0231 116.176 68.6665C116.443 68.31 116.588 67.8775 116.59 67.4325V64.6572C116.589 64.3662 116.526 64.0789 116.405 63.814C116.285 63.5492 116.11 63.3127 115.892 63.1203V59.1129C115.985 57.9912 115.739 56.8673 115.186 55.8868" stroke="#3C3C3C" stroke-width="3" stroke-linecap="round" stroke-linejoin="round"/>
<path d="M115.879 62.2375V63.133C116.096 63.3258 116.27 63.5624 116.39 63.8273C116.509 64.0922 116.571 64.3794 116.571 64.6699V67.4452C116.57 67.8896 116.426 68.322 116.161 68.6787C115.896 69.0353 115.523 69.2975 115.097 69.4266C114.626 70.9057 113.932 72.3042 113.039 73.5737C112.842 73.8534 112.629 74.1226 112.404 74.3802V76.984C112.406 77.4521 112.538 77.9103 112.785 78.3081C113.032 78.706 113.383 79.0279 113.801 79.2386L120.434 82.56C120.824 82.7579 121.189 83.0032 121.52 83.2903C124.477 80.8242 126.69 77.5857 127.914 73.9358C129.138 70.2859 129.323 66.3679 128.451 62.6186" stroke="#3C3C3C" stroke-width="3" stroke-linecap="round" stroke-linejoin="round"/>
<path d="M90.0425 77.2762C91.2851 79.5308 92.9325 81.5372 94.9023 83.1951C95.2038 82.9268 95.5341 82.6926 95.8869 82.4965L102.074 79.1243C102.471 78.9056 102.803 78.5848 103.034 78.1951C103.265 77.8054 103.388 77.3609 103.389 76.9078V74.3675C102.196 72.8346 101.341 71.0663 100.88 69.179C100.587 68.9911 100.346 68.7329 100.178 68.4278C100.011 68.1227 99.9221 67.7805 99.9209 67.4325V64.6572C99.9224 64.3669 99.9848 64.0801 100.104 63.8154C100.223 63.5506 100.397 63.3139 100.613 63.1203V59.113C100.613 59.113 99.7938 52.8702 108.236 52.8702C113.484 52.8702 115.161 55.2771 115.669 57.0998" stroke="#3C3C3C" stroke-width="3" stroke-linecap="round" stroke-linejoin="round"/>
<path d="M87.5586 65.9083C87.5586 66.264 87.5142 66.626 87.5078 66.988C87.4871 68.2192 87.5764 69.4497 87.7746 70.6651" stroke="#3C3C3C" stroke-width="3" stroke-linecap="round" stroke-linejoin="round"/>
<path d="M126.507 57.4935C124.577 53.9247 121.643 50.9998 118.067 49.0807C114.492 47.1617 110.432 46.3326 106.39 46.6962C102.348 47.0598 98.5016 48.6001 95.3263 51.1264C92.1509 53.6527 89.7861 57.0543 88.5244 60.9102" stroke="#3C3C3C" stroke-width="3" stroke-linecap="round" stroke-linejoin="round"/>
<path opacity="0.65" d="M187.943 100.279H91.2558C90.5892 100.279 90.0488 100.819 90.0488 101.485V105.556C90.0488 106.223 90.5892 106.763 91.2558 106.763H187.943C188.61 106.763 189.15 106.223 189.15 105.556V101.485C189.15 100.819 188.61 100.279 187.943 100.279Z" fill="#4285F4"/>
<path opacity="0.65" d="M211.232 118.023H91.3956C90.6518 118.023 90.0488 118.625 90.0488 119.369V123.16C90.0488 123.904 90.6518 124.507 91.3956 124.507H211.232C211.976 124.507 212.579 123.904 212.579 123.16V119.369C212.579 118.625 211.976 118.023 211.232 118.023Z" fill="#4285F4"/>
<path d="M112.442 100.279H187.937C188.096 100.278 188.254 100.308 188.401 100.369C188.548 100.429 188.682 100.518 188.794 100.63C188.907 100.742 188.997 100.875 189.058 101.022C189.119 101.169 189.15 101.326 189.15 101.485V105.556C189.15 105.715 189.119 105.873 189.058 106.019C188.997 106.166 188.907 106.299 188.794 106.412C188.682 106.524 188.548 106.612 188.401 106.673C188.254 106.733 188.096 106.764 187.937 106.763H181.864" stroke="#3C3C3C" stroke-width="3" stroke-linecap="round" stroke-linejoin="round"/>
<path d="M174.514 106.763H91.2558C90.9357 106.763 90.6287 106.636 90.4024 106.409C90.176 106.183 90.0488 105.876 90.0488 105.556V101.485C90.0488 101.165 90.176 100.858 90.4024 100.632C90.6287 100.406 90.9357 100.279 91.2558 100.279H104.66" stroke="#3C3C3C" stroke-width="3" stroke-linecap="round" stroke-linejoin="round"/>
<path d="M139.6 124.507H91.3956C91.0384 124.507 90.6959 124.365 90.4433 124.113C90.1907 123.86 90.0488 123.518 90.0488 123.16V119.35C90.0488 119.174 90.0837 118.999 90.1515 118.836C90.2192 118.673 90.3185 118.525 90.4437 118.4C90.5688 118.276 90.7173 118.177 90.8807 118.11C91.044 118.043 91.219 118.009 91.3956 118.01H119.582" stroke="#3C3C3C" stroke-width="3" stroke-linecap="round" stroke-linejoin="round"/>
<path d="M200.032 124.507H147.858" stroke="#3C3C3C" stroke-width="3" stroke-linecap="round" stroke-linejoin="round"/>
<path d="M126.5 118.023H211.232C211.409 118.022 211.584 118.056 211.747 118.123C211.91 118.19 212.059 118.288 212.184 118.413C212.309 118.537 212.409 118.685 212.476 118.848C212.544 119.011 212.579 119.186 212.579 119.363V123.173C212.579 123.53 212.437 123.873 212.185 124.125C211.932 124.378 211.589 124.52 211.232 124.52H208.246" stroke="#3C3C3C" stroke-width="3" stroke-linecap="round" stroke-linejoin="round"/>
<path opacity="0.65" d="M122.333 140.816H95.8424C92.6427 140.816 90.0488 143.409 90.0488 146.608V173.09C90.0488 176.289 92.6427 178.882 95.8424 178.882H122.333C125.533 178.882 128.127 176.289 128.127 173.09V146.608C128.127 143.409 125.533 140.816 122.333 140.816Z" fill="#0F9D58"/>
<path opacity="0.65" d="M168.72 140.816H142.23C139.03 140.816 136.436 143.409 136.436 146.608V173.09C136.436 176.289 139.03 178.882 142.23 178.882H168.72C171.92 178.882 174.514 176.289 174.514 173.09V146.608C174.514 143.409 171.92 140.816 168.72 140.816Z" fill="#0F9D58"/>
<path d="M101.007 178.882H95.8679C95.107 178.882 94.3536 178.732 93.6507 178.441C92.9478 178.15 92.3091 177.724 91.7711 177.186C91.2331 176.648 90.8064 176.009 90.5152 175.307C90.2241 174.604 90.0742 173.851 90.0742 173.09V152.812" stroke="#3C3C3C" stroke-width="3" stroke-linecap="round" stroke-linejoin="round"/>
<path d="M128.127 161.246V173.09C128.127 173.851 127.977 174.604 127.686 175.307C127.395 176.009 126.968 176.648 126.43 177.186C125.892 177.724 125.253 178.15 124.551 178.441C123.848 178.732 123.094 178.882 122.333 178.882H108.211" stroke="#3C3C3C" stroke-width="3" stroke-linecap="round" stroke-linejoin="round"/>
<path d="M90.0488 147.84V146.608C90.0488 145.071 90.6592 143.598 91.7457 142.512C92.8323 141.426 94.3059 140.816 95.8424 140.816H122.333C123.87 140.816 125.343 141.426 126.43 142.512C127.516 143.598 128.127 145.071 128.127 146.608V156.057" stroke="#3C3C3C" stroke-width="3" stroke-linecap="round" stroke-linejoin="round"/>
<path d="M161.535 178.882H142.23C141.469 178.882 140.715 178.732 140.013 178.441C139.31 178.15 138.671 177.724 138.133 177.186C137.595 176.648 137.168 176.009 136.877 175.307C136.586 174.604 136.436 173.851 136.436 173.09V146.608C136.436 145.071 137.046 143.598 138.133 142.512C139.219 141.426 140.693 140.816 142.23 140.816H147.858" stroke="#3C3C3C" stroke-width="3" stroke-linecap="round" stroke-linejoin="round"/>
<path d="M174.514 158.217V173.09C174.514 173.851 174.364 174.604 174.073 175.307C173.782 176.009 173.355 176.648 172.817 177.186C172.279 177.724 171.64 178.15 170.937 178.441C170.234 178.732 169.481 178.882 168.72 178.882" stroke="#3C3C3C" stroke-width="3" stroke-linecap="round" stroke-linejoin="round"/>
<path d="M153.734 140.816H168.701C170.238 140.816 171.711 141.426 172.798 142.512C173.884 143.598 174.495 145.071 174.495 146.608V152.812" stroke="#3C3C3C" stroke-width="3" stroke-linecap="round" stroke-linejoin="round"/>
<path d="M169.222 27.556H212.579V73.091C212.579 73.8082 212.438 74.5184 212.163 75.1811C211.889 75.8437 211.486 76.4458 210.979 76.953C210.472 77.4601 209.869 77.8624 209.206 78.1369C208.544 78.4114 207.833 78.5527 207.116 78.5527H174.698C173.249 78.5527 171.86 77.9772 170.835 76.953C169.81 75.9287 169.235 74.5395 169.235 73.091V27.556H169.222Z" fill="#DB4437"/>
<path d="M191.532 40.645L193.972 48.1516C194.015 48.2862 194.1 48.4036 194.214 48.4869C194.328 48.5703 194.466 48.6152 194.607 48.6152H202.503C202.657 48.5821 202.817 48.607 202.953 48.685C203.09 48.7631 203.192 48.8889 203.241 49.038C203.29 49.1872 203.282 49.3491 203.218 49.4927C203.155 49.6363 203.041 49.7513 202.897 49.8155L196.507 54.4579C196.389 54.5371 196.302 54.6533 196.258 54.7879C196.214 54.9225 196.217 55.0679 196.265 55.2009L198.705 62.7139C198.784 62.8499 198.81 63.0106 198.778 63.1648C198.746 63.3191 198.657 63.4558 198.53 63.5484C198.402 63.6411 198.245 63.683 198.088 63.6661C197.931 63.6492 197.787 63.5746 197.682 63.4569L191.291 58.8145C191.179 58.7275 191.042 58.6802 190.9 58.6802C190.759 58.6802 190.621 58.7275 190.51 58.8145L184.119 63.4569C184.014 63.5746 183.869 63.6492 183.712 63.6661C183.556 63.683 183.398 63.6411 183.271 63.5484C183.143 63.4558 183.055 63.3191 183.023 63.1648C182.99 63.0106 183.016 62.8499 183.096 62.7139L185.535 55.2009C185.584 55.0679 185.586 54.9225 185.543 54.7879C185.499 54.6533 185.411 54.5371 185.294 54.4579L178.903 49.8155C178.762 49.7506 178.649 49.6361 178.587 49.4938C178.524 49.3515 178.516 49.1912 178.564 49.0433C178.612 48.8954 178.712 48.7701 178.846 48.6912C178.98 48.6123 179.138 48.5852 179.291 48.6152H187.194C187.335 48.6152 187.473 48.5703 187.587 48.4869C187.701 48.4036 187.786 48.2862 187.829 48.1516L190.268 40.645C190.284 40.4883 190.357 40.343 190.474 40.2374C190.591 40.1318 190.743 40.0733 190.9 40.0733C191.058 40.0733 191.21 40.1318 191.326 40.2374C191.443 40.343 191.517 40.4883 191.532 40.645Z" fill="#F4B400"/>
<path d="M169.222 52.8702V44.068" stroke="#3C3C3C" stroke-width="3" stroke-linecap="round" stroke-linejoin="round"/>
<path d="M212.579 70.4935V73.1101C212.579 73.8273 212.438 74.5375 212.163 75.2001C211.889 75.8628 211.486 76.4649 210.979 76.972C210.472 77.4792 209.869 77.8815 209.206 78.156C208.544 78.4305 207.833 78.5717 207.116 78.5717H174.698C173.249 78.5717 171.86 77.9963 170.835 76.972C169.81 75.9478 169.235 74.5586 169.235 73.1101V58.77" stroke="#3C3C3C" stroke-width="3" stroke-linecap="round" stroke-linejoin="round"/>
<path d="M212.579 36.4979V63.5902" stroke="#3C3C3C" stroke-width="3" stroke-linecap="round" stroke-linejoin="round"/>
<path d="M169.222 37.7998V27.556H212.579V30.0137" stroke="#3C3C3C" stroke-width="3" stroke-linecap="round" stroke-linejoin="round"/>
<path d="M180.549 51.0158L178.903 49.8218C178.762 49.7569 178.649 49.6425 178.587 49.5002C178.524 49.3579 178.516 49.1976 178.564 49.0497C178.612 48.9017 178.712 48.7764 178.846 48.6975C178.98 48.6186 179.138 48.5916 179.291 48.6215H187.194C187.335 48.6215 187.473 48.5766 187.587 48.4933C187.701 48.41 187.786 48.2925 187.829 48.1579L190.268 40.645C190.268 40.4765 190.335 40.315 190.454 40.1959C190.573 40.0768 190.735 40.0099 190.903 40.0099C191.072 40.0099 191.234 40.0768 191.353 40.1959C191.472 40.315 191.539 40.4765 191.539 40.645L193.978 48.1516C194.021 48.2862 194.106 48.4036 194.22 48.4869C194.334 48.5703 194.472 48.6152 194.613 48.6152H196.144" stroke="#3C3C3C" stroke-width="3" stroke-linecap="round" stroke-linejoin="round"/>
<path d="M187.403 61.0881L184.138 63.4633C184.033 63.581 183.888 63.6555 183.732 63.6724C183.575 63.6893 183.418 63.6474 183.29 63.5548C183.163 63.4621 183.074 63.3254 183.042 63.1712C183.01 63.017 183.036 62.8562 183.115 62.7202L185.555 55.2073C185.603 55.0742 185.606 54.9289 185.562 54.7943C185.518 54.6596 185.431 54.5435 185.313 54.4642" stroke="#3C3C3C" stroke-width="3" stroke-linecap="round" stroke-linejoin="round"/>
<path d="M200.032 48.6215H202.503C202.657 48.5884 202.817 48.6133 202.953 48.6913C203.09 48.7694 203.192 48.8952 203.241 49.0443C203.29 49.1935 203.282 49.3554 203.218 49.499C203.155 49.6426 203.041 49.7575 202.897 49.8218L196.507 54.4642C196.389 54.5434 196.302 54.6596 196.258 54.7942C196.214 54.9288 196.217 55.0742 196.265 55.2072L198.705 62.7202C198.784 62.8562 198.81 63.0169 198.778 63.1711C198.746 63.3254 198.657 63.4621 198.53 63.5547C198.402 63.6474 198.245 63.6893 198.088 63.6724C197.931 63.6555 197.787 63.5809 197.682 63.4632L191.291 58.8208" stroke="#3C3C3C" stroke-width="3" stroke-linecap="round" stroke-linejoin="round"/>
<path d="M227.266 159.849V192.066C227.266 195.603 225.861 198.996 223.359 201.497C220.857 203.998 217.464 205.403 213.926 205.403H211.467" stroke="#3C3C3C" stroke-width="3" stroke-linecap="round" stroke-linejoin="round"/>
<path d="M68.4497 72.8243V40.8672C68.4497 37.3301 69.8552 33.9379 72.3571 31.4368C74.8589 28.9357 78.2521 27.5306 81.7903 27.5306H213.951C217.489 27.5306 220.882 28.9357 223.384 31.4368C225.886 33.9379 227.292 37.3301 227.292 40.8672V152.812" stroke="#3C3C3C" stroke-width="3" stroke-linecap="round" stroke-linejoin="round"/>
<path d="M68.4497 87.0881V79.9562" stroke="#3C3C3C" stroke-width="3" stroke-linecap="round" stroke-linejoin="round"/>
<path d="M201.328 205.378H81.7649C78.2268 205.378 74.8335 203.972 72.3317 201.471C69.8298 198.97 68.4243 195.578 68.4243 192.041V94.2264" stroke="#3C3C3C" stroke-width="3" stroke-linecap="round" stroke-linejoin="round"/>
<path d="M176.585 14.9243H44.3987C37.0449 14.9243 31.0835 20.8839 31.0835 28.2355V179.435C31.0835 186.786 37.0449 192.746 44.3987 192.746H176.585C183.939 192.746 189.9 186.786 189.9 179.435V28.2355C189.9 20.8839 183.939 14.9243 176.585 14.9243Z" fill="#F8F9F9"/>
<path d="M64.7146 66.4926L58.5208 69.8585C58.1654 70.056 57.833 70.2924 57.5298 70.5634C61.2529 73.7013 65.9626 75.4281 70.8322 75.4409C75.7019 75.4537 80.4206 73.7516 84.1601 70.6333C83.8294 70.3461 83.4646 70.1008 83.0738 69.9029L76.4416 66.5878C76.0247 66.3763 75.6743 66.054 75.4288 65.6562C75.1833 65.2584 75.0524 64.8007 75.0504 64.3333V61.7295C75.276 61.4718 75.488 61.2026 75.6857 60.9229C76.5812 59.6538 77.2775 58.2553 77.7503 56.7759C78.1752 56.6459 78.5474 56.3835 78.8125 56.027C79.0777 55.6705 79.2219 55.2386 79.2241 54.7944V52.0255C79.2226 51.7352 79.1602 51.4484 79.0409 51.1837C78.9216 50.9189 78.7481 50.6822 78.5317 50.4886V46.4813C78.5317 46.4813 79.3512 40.2385 70.9085 40.2385C62.4658 40.2385 63.2853 46.4813 63.2853 46.4813V50.4886C63.0688 50.6822 62.8954 50.9189 62.7761 51.1837C62.6568 51.4484 62.5944 51.7352 62.5929 52.0255V54.8008C62.5949 55.1423 62.6813 55.478 62.8442 55.7782C63.007 56.0784 63.2415 56.3339 63.5267 56.5218C63.9966 58.4118 64.8627 60.1803 66.0678 61.7104V64.2507C66.0671 64.712 65.9408 65.1644 65.7024 65.5593C65.464 65.9543 65.1225 66.2769 64.7146 66.4926Z" fill="#E7ECED"/>
<path d="M71.2387 33.9766C66.9548 33.9001 62.7523 35.1526 59.2097 37.5617C55.667 39.9709 52.9581 43.4183 51.4557 47.4297C49.9534 51.4411 49.7313 55.8193 50.8202 59.9621C51.909 64.1048 54.2552 67.8084 57.536 70.5634C57.8399 70.298 58.1698 70.064 58.5207 69.8648L64.7082 66.4926C65.1073 66.2743 65.4405 65.9528 65.6729 65.5618C65.9053 65.1708 66.0285 64.7246 66.0295 64.2698V61.7295C64.8357 60.1904 63.9825 58.4154 63.5266 56.5219C63.2331 56.3345 62.9914 56.0763 62.8238 55.7712C62.6561 55.466 62.568 55.1236 62.5673 54.7754V52.0255C62.5677 51.735 62.6295 51.4478 62.7489 51.183C62.8682 50.9181 63.0424 50.6814 63.2598 50.4886V46.475C63.2598 46.475 62.4339 40.2385 70.8829 40.2385C79.332 40.2385 78.5061 46.475 78.5061 46.475V50.4886C78.7244 50.6811 78.8995 50.9175 79.0199 51.1824C79.1403 51.4473 79.2034 51.7346 79.2049 52.0255V54.8008C79.2013 55.2456 79.0558 55.6776 78.7896 56.034C78.5234 56.3903 78.1503 56.6525 77.7248 56.7823C77.2539 58.2613 76.5598 59.6598 75.6665 60.9293C75.471 61.2105 75.2588 61.4799 75.0312 61.7359V64.3333C75.0327 64.8024 75.164 65.262 75.4107 65.6611C75.6574 66.0601 76.0098 66.3831 76.4288 66.5942L83.0546 69.9093C83.4474 70.1071 83.8143 70.3524 84.1473 70.6396C87.3983 67.932 89.7432 64.2951 90.8672 60.2169C91.9913 56.1387 91.8408 51.8144 90.4359 47.8242C89.031 43.834 86.4389 40.3688 83.0075 37.8936C79.5761 35.4184 75.4694 34.0516 71.2387 33.9766Z" fill="#556080"/>
<path d="M73.9196 40.5687C72.9245 40.3363 71.9049 40.2254 70.8831 40.2385C62.4277 40.2385 63.2599 46.4813 63.2599 46.4813V50.4886C63.0434 50.6822 62.8699 50.9189 62.7507 51.1837C62.6314 51.4484 62.569 51.7352 62.5674 52.0255V54.8008C62.5723 55.1446 62.6625 55.4819 62.8299 55.7823C62.9973 56.0827 63.2368 56.3368 63.5267 56.5218C63.9966 58.4118 64.8627 60.1803 66.0678 61.7104V64.2507C66.0674 64.7049 65.9451 65.1507 65.7139 65.5416C65.4826 65.9326 65.1507 66.2544 64.7528 66.4735L58.5208 69.8585C58.1654 70.056 57.833 70.2924 57.5298 70.5634C61.2529 73.7013 65.9626 75.4281 70.8322 75.4409C75.7019 75.4537 80.4206 73.7516 84.1601 70.6333C83.8294 70.3461 83.4646 70.1008 83.0738 69.9029L76.4416 66.5878C76.0247 66.3763 75.6743 66.054 75.4288 65.6562C75.1833 65.2584 75.0524 64.8007 75.0504 64.3333V61.7295C75.276 61.4718 75.488 61.2026 75.6857 60.9229C76.5812 59.6538 77.2775 58.2553 77.7503 56.7759C78.1752 56.6459 78.5474 56.3835 78.8125 56.027C79.0777 55.6705 79.2219 55.2386 79.2241 54.7944V52.0255C79.2226 51.7352 79.1602 51.4484 79.0409 51.1837C78.9216 50.9189 78.7481 50.6822 78.5317 50.4886V46.4813C78.6221 45.3646 78.3789 44.2462 77.8329 43.2678" stroke="#3C3C3C" stroke-width="3" stroke-linecap="round" stroke-linejoin="round"/>
<path d="M78.5125 49.5931V50.4886C78.7307 50.6811 78.9058 50.9175 79.0263 51.1824C79.1467 51.4472 79.2097 51.7345 79.2113 52.0255V54.8008C79.2077 55.2455 79.0622 55.6775 78.7959 56.0339C78.5297 56.3903 78.1567 56.6524 77.7311 56.7822C77.2603 58.2613 76.5662 59.6598 75.6729 60.9293C75.4773 61.2105 75.2652 61.4798 75.0376 61.7358V64.3333C75.039 64.8024 75.1704 65.2619 75.417 65.661C75.6637 66.0601 76.0161 66.3831 76.4352 66.5942L83.061 69.9093C83.4537 70.1071 83.8207 70.3524 84.1537 70.6396C86.446 68.7343 88.2996 66.3565 89.5879 63.6689C90.8762 60.9813 91.5687 58.0473 91.618 55.0675C91.646 53.3583 91.4646 51.6521 91.0781 49.9869" stroke="#3C3C3C" stroke-width="3" stroke-linecap="round" stroke-linejoin="round"/>
<path d="M52.6826 64.6445C53.9204 66.9005 55.566 68.9074 57.536 70.5634C57.8399 70.298 58.1698 70.064 58.5207 69.8648L64.7082 66.4926C65.1073 66.2742 65.4405 65.9528 65.6729 65.5618C65.9054 65.1708 66.0285 64.7246 66.0296 64.2698V61.7295C64.8357 60.1904 63.9826 58.4153 63.5266 56.5218C63.2331 56.3345 62.9914 56.0763 62.8238 55.7711C62.6562 55.4659 62.568 55.1235 62.5674 54.7754V52.0255C62.5677 51.735 62.6296 51.4478 62.7489 51.1829C62.8683 50.918 63.0424 50.6814 63.2598 50.4886V46.4749C63.2598 46.4749 62.4339 40.2385 70.883 40.2385C76.1366 40.2385 77.8074 42.6454 78.3219 44.4681" stroke="#3C3C3C" stroke-width="3" stroke-linecap="round" stroke-linejoin="round"/>
<path d="M50.1862 53.2703C50.1862 53.6323 50.1481 53.9943 50.1417 54.3562C50.1189 55.5851 50.2061 56.8136 50.4022 58.027" stroke="#3C3C3C" stroke-width="3" stroke-linecap="round" stroke-linejoin="round"/>
<path d="M89.1402 44.8619C87.2144 41.2897 84.2824 38.361 80.7077 36.4386C77.1329 34.5162 73.0725 33.6847 69.0295 34.0471C64.9866 34.4095 61.1389 35.9498 57.9632 38.4773C54.7876 41.0048 52.4235 44.4082 51.1641 48.2659" stroke="#3C3C3C" stroke-width="3" stroke-linecap="round" stroke-linejoin="round"/>
<path opacity="0.65" d="M150.577 87.647H53.8896C53.223 87.647 52.6826 88.1872 52.6826 88.8536V92.9245C52.6826 93.5909 53.223 94.1311 53.8896 94.1311H150.577C151.244 94.1311 151.784 93.5909 151.784 92.9245V88.8536C151.784 88.1872 151.244 87.647 150.577 87.647Z" fill="#4285F4"/>
<path opacity="0.65" d="M173.866 105.385H54.0294C53.2856 105.385 52.6826 105.987 52.6826 106.731V110.522C52.6826 111.266 53.2856 111.869 54.0294 111.869H173.866C174.61 111.869 175.213 111.266 175.213 110.522V106.731C175.213 105.987 174.61 105.385 173.866 105.385Z" fill="#4285F4"/>
<path d="M75.082 87.6406H150.558C150.716 87.6406 150.873 87.6718 151.02 87.7325C151.166 87.7931 151.299 87.882 151.411 87.994C151.524 88.1061 151.612 88.2391 151.673 88.3855C151.734 88.5319 151.765 88.6888 151.765 88.8473V92.9181C151.765 93.2381 151.638 93.5451 151.411 93.7713C151.185 93.9976 150.878 94.1248 150.558 94.1248H144.485" stroke="#3C3C3C" stroke-width="3" stroke-linecap="round" stroke-linejoin="round"/>
<path d="M137.154 94.1311H53.896C53.7369 94.132 53.5793 94.1014 53.4321 94.0411C53.2849 93.9808 53.1511 93.8921 53.0384 93.78C52.9256 93.6678 52.8362 93.5345 52.7751 93.3877C52.714 93.2409 52.6826 93.0835 52.6826 92.9245V88.8536C52.6826 88.6946 52.714 88.5372 52.7751 88.3904C52.8362 88.2436 52.9256 88.1103 53.0384 87.9982C53.1511 87.886 53.2849 87.7973 53.4321 87.737C53.5793 87.6767 53.7369 87.6462 53.896 87.647H67.2937" stroke="#3C3C3C" stroke-width="3" stroke-linecap="round" stroke-linejoin="round"/>
<path d="M102.233 111.875H54.0291C53.8501 111.875 53.6729 111.84 53.5078 111.77C53.3427 111.701 53.1931 111.6 53.0677 111.472C52.9423 111.344 52.8437 111.193 52.7775 111.026C52.7113 110.86 52.679 110.682 52.6824 110.503V106.693C52.6824 106.516 52.7172 106.341 52.7849 106.178C52.8526 106.014 52.9518 105.866 53.0768 105.741C53.2019 105.616 53.3503 105.517 53.5137 105.449C53.6771 105.381 53.8523 105.347 54.0291 105.347H82.2159" stroke="#3C3C3C" stroke-width="3" stroke-linecap="round" stroke-linejoin="round"/>
<path d="M162.666 111.875H110.492" stroke="#3C3C3C" stroke-width="3" stroke-linecap="round" stroke-linejoin="round"/>
<path d="M89.1406 105.385H173.872C174.228 105.386 174.569 105.529 174.821 105.781C175.072 106.034 175.213 106.375 175.213 106.731V110.542C175.213 110.898 175.072 111.239 174.821 111.491C174.569 111.744 174.228 111.886 173.872 111.888H170.887" stroke="#3C3C3C" stroke-width="3" stroke-linecap="round" stroke-linejoin="round"/>
<path opacity="0.65" d="M84.9668 128.184H58.4762C55.2765 128.184 52.6826 130.777 52.6826 133.976V160.459C52.6826 163.657 55.2765 166.25 58.4762 166.25H84.9668C88.1665 166.25 90.7604 163.657 90.7604 160.459V133.976C90.7604 130.777 88.1665 128.184 84.9668 128.184Z" fill="#0F9D58"/>
<path opacity="0.65" d="M131.354 128.184H104.863C101.664 128.184 99.0698 130.777 99.0698 133.976V160.459C99.0698 163.657 101.664 166.25 104.863 166.25H131.354C134.554 166.25 137.148 163.657 137.148 160.459V133.976C137.148 130.777 134.554 128.184 131.354 128.184Z" fill="#0F9D58"/>
<path d="M63.6219 166.25H58.4762C56.9402 166.249 55.4675 165.638 54.3814 164.552C53.2952 163.466 52.6843 161.994 52.6826 160.459V140.181" stroke="#3C3C3C" stroke-width="3" stroke-linecap="round" stroke-linejoin="round"/>
<path d="M90.7603 148.608V160.452C90.7603 161.988 90.1499 163.462 89.0634 164.548C87.9769 165.634 86.5033 166.244 84.9667 166.244H70.8447" stroke="#3C3C3C" stroke-width="3" stroke-linecap="round" stroke-linejoin="round"/>
<path d="M52.6826 135.208V134.001C52.6826 133.241 52.8325 132.487 53.1236 131.785C53.4148 131.082 53.8415 130.444 54.3795 129.906C54.9175 129.368 55.5562 128.941 56.2591 128.65C56.962 128.359 57.7154 128.209 58.4762 128.209H84.9668C86.5034 128.209 87.977 128.82 89.0635 129.906C90.15 130.992 90.7604 132.465 90.7604 134.001V143.451" stroke="#3C3C3C" stroke-width="3" stroke-linecap="round" stroke-linejoin="round"/>
<path d="M124.176 166.25H104.87C103.333 166.25 101.858 165.64 100.771 164.554C99.6833 163.468 99.0715 161.995 99.0698 160.459V134.001C99.0698 133.24 99.2199 132.486 99.5114 131.783C99.803 131.08 100.23 130.441 100.769 129.904C101.308 129.366 101.947 128.939 102.651 128.648C103.354 128.358 104.108 128.209 104.87 128.209H110.492" stroke="#3C3C3C" stroke-width="3" stroke-linecap="round" stroke-linejoin="round"/>
<path d="M137.154 145.585V160.459C137.152 161.995 136.54 163.468 135.453 164.554C134.365 165.641 132.891 166.251 131.354 166.251" stroke="#3C3C3C" stroke-width="3" stroke-linecap="round" stroke-linejoin="round"/>
<path d="M116.387 128.184H131.354C132.118 128.183 132.874 128.333 133.579 128.625C134.284 128.918 134.925 129.346 135.464 129.887C136.003 130.428 136.43 131.069 136.72 131.776C137.01 132.482 137.157 133.238 137.154 134.001V140.206" stroke="#3C3C3C" stroke-width="3" stroke-linecap="round" stroke-linejoin="round"/>
<path d="M131.856 14.9243H175.213V60.4593C175.213 61.1766 175.072 61.8868 174.797 62.5494C174.522 63.2121 174.12 63.8142 173.613 64.3213C173.105 64.8285 172.503 65.2308 171.84 65.5053C171.177 65.7797 170.467 65.921 169.75 65.921H137.319C135.87 65.921 134.481 65.3456 133.456 64.3213C132.432 63.2971 131.856 61.9079 131.856 60.4593V14.9243Z" fill="#DB4437"/>
<path d="M154.166 28.0132L156.606 35.5262C156.65 35.6596 156.735 35.7757 156.849 35.8578C156.963 35.9399 157.1 35.9839 157.241 35.9835H165.169C165.31 35.9843 165.446 36.0295 165.56 36.1127C165.673 36.1958 165.757 36.3126 165.8 36.4464C165.843 36.5802 165.843 36.7242 165.799 36.8577C165.755 36.9913 165.67 37.1076 165.557 37.1901L159.166 41.8325C159.048 41.9118 158.961 42.0279 158.917 42.1625C158.874 42.2972 158.876 42.4425 158.924 42.5756L161.357 50.0822C161.443 50.2204 161.473 50.3863 161.44 50.5457C161.407 50.705 161.314 50.8457 161.18 50.9385C161.047 51.0314 160.882 51.0695 160.722 51.0448C160.561 51.0202 160.415 50.9348 160.316 50.8062L153.925 46.1828C153.81 46.1024 153.674 46.0593 153.534 46.0593C153.394 46.0593 153.258 46.1024 153.143 46.1828L146.746 50.8062C146.642 50.9239 146.497 50.9984 146.34 51.0153C146.183 51.0322 146.026 50.9903 145.898 50.8976C145.771 50.805 145.682 50.6683 145.65 50.5141C145.618 50.3598 145.644 50.1991 145.724 50.0631L148.169 42.5501C148.218 42.4171 148.22 42.2717 148.176 42.1371C148.133 42.0025 148.045 41.8864 147.928 41.8071L141.537 37.1901C141.423 37.1073 141.338 36.9904 141.294 36.8562C141.251 36.7221 141.251 36.5775 141.295 36.4434C141.338 36.3093 141.424 36.1925 141.538 36.1099C141.652 36.0272 141.79 35.983 141.931 35.9835H149.827C149.969 35.9891 150.109 35.9471 150.224 35.8643C150.339 35.7814 150.423 35.6624 150.463 35.5262L152.902 28.0132C152.918 27.8566 152.991 27.7113 153.108 27.6057C153.225 27.5001 153.377 27.4416 153.534 27.4416C153.692 27.4416 153.844 27.5001 153.96 27.6057C154.077 27.7113 154.15 27.8566 154.166 28.0132Z" fill="#F4B400"/>
<path d="M131.856 40.2385V31.4363" stroke="#3C3C3C" stroke-width="3" stroke-linecap="round" stroke-linejoin="round"/>
<path d="M175.213 57.8428V60.4594C175.211 61.9068 174.635 63.2943 173.61 64.3172C172.586 65.3401 171.197 65.9147 169.75 65.9147H137.351C135.903 65.9147 134.514 65.3401 133.49 64.3172C132.466 63.2943 131.889 61.9068 131.888 60.4594V46.1384" stroke="#3C3C3C" stroke-width="3" stroke-linecap="round" stroke-linejoin="round"/>
<path d="M175.212 23.8662V50.9586" stroke="#3C3C3C" stroke-width="3" stroke-linecap="round" stroke-linejoin="round"/>
<path d="M131.856 25.1618V14.9243H175.213V17.3821" stroke="#3C3C3C" stroke-width="3" stroke-linecap="round" stroke-linejoin="round"/>
<path d="M143.182 38.3841L141.537 37.1901C141.423 37.1073 141.338 36.9904 141.294 36.8562C141.251 36.7221 141.251 36.5775 141.295 36.4434C141.338 36.3093 141.424 36.1926 141.538 36.1099C141.652 36.0273 141.79 35.983 141.931 35.9835H149.827C149.969 35.9891 150.109 35.9471 150.224 35.8643C150.339 35.7814 150.423 35.6624 150.463 35.5262L152.902 28.0133C152.902 27.8448 152.969 27.6833 153.088 27.5642C153.207 27.4451 153.369 27.3782 153.537 27.3782C153.706 27.3782 153.867 27.4451 153.987 27.5642C154.106 27.6833 154.173 27.8448 154.173 28.0133L156.612 35.5262C156.656 35.6596 156.741 35.7757 156.855 35.8578C156.97 35.9399 157.107 35.9839 157.247 35.9835H158.778" stroke="#3C3C3C" stroke-width="3" stroke-linecap="round" stroke-linejoin="round"/>
<path d="M150.018 48.4564L146.746 50.8062C146.642 50.9239 146.497 50.9984 146.34 51.0153C146.183 51.0322 146.026 50.9903 145.899 50.8977C145.771 50.805 145.683 50.6683 145.65 50.5141C145.618 50.3599 145.644 50.1991 145.724 50.0631L148.169 42.5502C148.218 42.4171 148.22 42.2718 148.177 42.1371C148.133 42.0025 148.045 41.8864 147.928 41.8071" stroke="#3C3C3C" stroke-width="3" stroke-linecap="round" stroke-linejoin="round"/>
<path d="M162.666 35.9835H165.169C165.31 35.9843 165.446 36.0295 165.56 36.1127C165.673 36.1958 165.757 36.3126 165.8 36.4464C165.843 36.5802 165.843 36.7242 165.799 36.8577C165.755 36.9913 165.67 37.1076 165.556 37.1901L159.166 41.8325C159.048 41.9118 158.961 42.0279 158.917 42.1625C158.873 42.2972 158.876 42.4425 158.924 42.5756L161.357 50.0822C161.443 50.2204 161.473 50.3863 161.44 50.5457C161.407 50.705 161.314 50.8457 161.18 50.9385C161.047 51.0314 160.882 51.0695 160.721 51.0448C160.561 51.0202 160.415 50.9348 160.316 50.8062L153.925 46.1828" stroke="#3C3C3C" stroke-width="3" stroke-linecap="round" stroke-linejoin="round"/>
<path d="M189.9 147.217V179.435C189.9 182.972 188.495 186.364 185.993 188.865C183.491 191.366 180.098 192.771 176.56 192.771H174.126" stroke="#3C3C3C" stroke-width="3" stroke-linecap="round" stroke-linejoin="round"/>
<path d="M31.0835 60.1863V28.2355C31.0835 24.6985 32.489 21.3062 34.9909 18.8051C37.4927 16.304 40.8859 14.8989 44.4241 14.8989H176.604C180.142 14.8989 183.535 16.304 186.037 18.8051C188.539 21.3062 189.944 24.6985 189.944 28.2355V140.181" stroke="#3C3C3C" stroke-width="3" stroke-linecap="round" stroke-linejoin="round"/>
<path d="M31.0835 74.4564V67.3245" stroke="#3C3C3C" stroke-width="3" stroke-linecap="round" stroke-linejoin="round"/>
<path d="M163.962 192.746H44.3987C40.8605 192.746 37.4673 191.341 34.9655 188.84C32.4636 186.339 31.0581 182.946 31.0581 179.409V81.5947" stroke="#3C3C3C" stroke-width="3" stroke-linecap="round" stroke-linejoin="round"/>
</svg>
