<svg width="14" height="14" viewBox="0 0 14 14" fill="none" xmlns="http://www.w3.org/2000/svg">
<path d="M12.3333 0.333496H1.66659C0.933252 0.333496 0.333252 0.933496 0.333252 1.66683V13.6668L2.99992 11.0002H12.3333C13.0666 11.0002 13.6666 10.4002 13.6666 9.66683V1.66683C13.6666 0.933496 13.0666 0.333496 12.3333 0.333496ZM2.99992 8.3335V6.68683L7.58659 2.10016C7.71992 1.96683 7.92658 1.96683 8.05992 2.10016L9.23992 3.28016C9.37325 3.4135 9.37325 3.62016 9.23992 3.7535L4.64658 8.3335H2.99992ZM10.3333 8.3335H5.99992L7.33325 7.00016H10.3333C10.6999 7.00016 10.9999 7.30016 10.9999 7.66683C10.9999 8.0335 10.6999 8.3335 10.3333 8.3335Z" fill="black" fill-opacity="0.4"/>
</svg>
