<svg width="14" height="14" viewBox="0 0 14 14" fill="none" xmlns="http://www.w3.org/2000/svg">
<path d="M6.99983 7.00007C6.99983 5.25007 8.45816 3.79174 10.2082 3.79174C11.7073 3.79174 12.9907 4.85924 13.329 6.26507C13.4165 6.6384 13.1423 7.00007 12.7632 7.00007H6.99983ZM6.99983 7.00007C6.99983 8.75007 5.54149 10.2084 3.79149 10.2084C2.29233 10.2084 1.00899 9.14091 0.67066 7.73507C0.58316 7.36174 0.857327 7.00007 1.23649 7.00007H6.99983ZM6.99983 7.00007C5.24983 7.00007 3.79149 5.54174 3.79149 3.79174C3.79149 2.29257 4.85899 1.00924 6.26483 0.670904C6.63816 0.583404 6.99983 0.857571 6.99983 1.23674V7.00007ZM6.99983 7.00007C8.74983 7.00007 10.2082 8.45841 10.2082 10.2084C10.2082 11.7076 9.14066 12.9909 7.73483 13.3292C7.36149 13.4167 6.99983 13.1426 6.99983 12.7634V7.00007Z" fill="#0F9D58"/>
</svg>
